<?xml version="1.0" encoding="UTF-8" standalone="no"?>
<!DOCTYPE svg PUBLIC "-//W3C//DTD SVG 1.1//EN"
 "http://www.w3.org/Graphics/SVG/1.1/DTD/svg11.dtd">
<!-- Generated by graphviz version 2.47.0 (20210316.0004)
 -->
<!-- Title: dependencies Pages: 1 -->
<svg width="2447pt" height="284pt"
 viewBox="0.00 0.00 2447.00 284.00" xmlns="http://www.w3.org/2000/svg" xmlns:xlink="http://www.w3.org/1999/xlink">
<g id="graph0" class="graph" transform="scale(1 1) rotate(0) translate(4 280)">
<title>dependencies</title>
<polygon fill="white" stroke="transparent" points="-4,4 -4,-280 2443,-280 2443,4 -4,4"/>
<text text-anchor="start" x="1198.51" y="-42.4" font-family="Times-12" font-weight="bold" font-size="14.00">Legend</text>
<polygon fill="#ffffb3" stroke="transparent" points="985.5,-10 985.5,-30 1005.5,-30 1005.5,-10 985.5,-10"/>
<text text-anchor="start" x="1009.13" y="-15.4" font-family="Times-12" font-size="14.00"> &#160;Declarations</text>
<polygon fill="#8dd3c7" stroke="transparent" points="1098.5,-10 1098.5,-30 1118.5,-30 1118.5,-10 1098.5,-10"/>
<text text-anchor="start" x="1122.23" y="-15.4" font-family="Times-12" font-size="14.00"> &#160;Module</text>
<polygon fill="#80b1d3" stroke="transparent" points="1184.5,-10 1184.5,-30 1204.5,-30 1204.5,-10 1184.5,-10"/>
<text text-anchor="start" x="1208.28" y="-15.4" font-family="Times-12" font-size="14.00"> &#160;Bootstrap</text>
<polygon fill="#fdb462" stroke="transparent" points="1281.5,-10 1281.5,-30 1301.5,-30 1301.5,-10 1281.5,-10"/>
<text text-anchor="start" x="1305.17" y="-15.4" font-family="Times-12" font-size="14.00"> &#160;Providers</text>
<polygon fill="#fb8072" stroke="transparent" points="1377.5,-10 1377.5,-30 1397.5,-30 1397.5,-10 1377.5,-10"/>
<text text-anchor="start" x="1401.23" y="-15.4" font-family="Times-12" font-size="14.00"> &#160;Exports</text>
<g id="clust1" class="cluster">
<title>cluster_OpenViduAngularDirectiveModule</title>
<polygon fill="none" stroke="black" stroke-dasharray="1,5" points="8,-70 8,-268 2431,-268 2431,-70 8,-70"/>
</g>
<g id="clust2" class="cluster">
<title>cluster_OpenViduAngularDirectiveModule_declarations</title>
<polygon fill="none" stroke="black" points="38,-78 38,-130 2399,-130 2399,-78 38,-78"/>
</g>
<g id="clust17" class="cluster">
<title>cluster_OpenViduAngularDirectiveModule_exports</title>
<polygon fill="none" stroke="black" points="16,-208 16,-260 2423,-260 2423,-208 16,-208"/>
</g>
<!-- ActivitiesPanelDirective -->
<g id="node1" class="node">
<title>ActivitiesPanelDirective</title>
<polygon fill="#ffffb3" stroke="black" points="2390.62,-122 2237.38,-122 2237.38,-86 2390.62,-86 2390.62,-122"/>
<text text-anchor="middle" x="2314" y="-99.8" font-family="Times,serif" font-size="14.00">ActivitiesPanelDirective</text>
</g>
<!-- OpenViduAngularDirectiveModule -->
<g id="node14" class="node">
<title>OpenViduAngularDirectiveModule</title>
<polygon fill="#8dd3c7" stroke="black" points="1440.82,-187 1437.82,-191 1416.82,-191 1413.82,-187 1225.18,-187 1225.18,-151 1440.82,-151 1440.82,-187"/>
<text text-anchor="middle" x="1333" y="-164.8" font-family="Times,serif" font-size="14.00">OpenViduAngularDirectiveModule</text>
</g>
<!-- ActivitiesPanelDirective&#45;&gt;OpenViduAngularDirectiveModule -->
<g id="edge1" class="edge">
<title>ActivitiesPanelDirective&#45;&gt;OpenViduAngularDirectiveModule</title>
<path fill="none" stroke="black" d="M2248.22,-122.17C2248.22,-141.09 2248.22,-168 2248.22,-168 2248.22,-168 1451.13,-168 1451.13,-168"/>
<polygon fill="black" stroke="black" points="1451.13,-164.5 1441.13,-168 1451.13,-171.5 1451.13,-164.5"/>
</g>
<!-- AdditionalPanelsDirective -->
<g id="node2" class="node">
<title>AdditionalPanelsDirective</title>
<polygon fill="#ffffb3" stroke="black" points="2219.01,-122 2054.99,-122 2054.99,-86 2219.01,-86 2219.01,-122"/>
<text text-anchor="middle" x="2137" y="-99.8" font-family="Times,serif" font-size="14.00">AdditionalPanelsDirective</text>
</g>
<!-- AdditionalPanelsDirective&#45;&gt;OpenViduAngularDirectiveModule -->
<g id="edge2" class="edge">
<title>AdditionalPanelsDirective&#45;&gt;OpenViduAngularDirectiveModule</title>
<path fill="none" stroke="black" d="M2062.87,-122.3C2062.87,-140.27 2062.87,-165 2062.87,-165 2062.87,-165 1451.09,-165 1451.09,-165"/>
<polygon fill="black" stroke="black" points="1451.09,-161.5 1441.09,-165 1451.09,-168.5 1451.09,-161.5"/>
</g>
<!-- BackgroundEffectsPanelDirective -->
<g id="node3" class="node">
<title>BackgroundEffectsPanelDirective</title>
<polygon fill="#ffffb3" stroke="black" points="2036.75,-122 1829.25,-122 1829.25,-86 2036.75,-86 2036.75,-122"/>
<text text-anchor="middle" x="1933" y="-99.8" font-family="Times,serif" font-size="14.00">BackgroundEffectsPanelDirective</text>
</g>
<!-- BackgroundEffectsPanelDirective&#45;&gt;OpenViduAngularDirectiveModule -->
<g id="edge3" class="edge">
<title>BackgroundEffectsPanelDirective&#45;&gt;OpenViduAngularDirectiveModule</title>
<path fill="none" stroke="black" d="M1836,-122.04C1836,-138.73 1836,-161 1836,-161 1836,-161 1450.91,-161 1450.91,-161"/>
<polygon fill="black" stroke="black" points="1450.91,-157.5 1440.91,-161 1450.91,-164.5 1450.91,-157.5"/>
</g>
<!-- ChatPanelDirective -->
<g id="node4" class="node">
<title>ChatPanelDirective</title>
<polygon fill="#ffffb3" stroke="black" points="1811.63,-122 1686.37,-122 1686.37,-86 1811.63,-86 1811.63,-122"/>
<text text-anchor="middle" x="1749" y="-99.8" font-family="Times,serif" font-size="14.00">ChatPanelDirective</text>
</g>
<!-- ChatPanelDirective&#45;&gt;OpenViduAngularDirectiveModule -->
<g id="edge4" class="edge">
<title>ChatPanelDirective&#45;&gt;OpenViduAngularDirectiveModule</title>
<path fill="none" stroke="black" d="M1690.81,-122.28C1690.81,-137.95 1690.81,-158 1690.81,-158 1690.81,-158 1450.84,-158 1450.84,-158"/>
<polygon fill="black" stroke="black" points="1450.84,-154.5 1440.84,-158 1450.84,-161.5 1450.84,-154.5"/>
</g>
<!-- LayoutDirective -->
<g id="node5" class="node">
<title>LayoutDirective</title>
<polygon fill="#ffffb3" stroke="black" points="1667.74,-122 1560.26,-122 1560.26,-86 1667.74,-86 1667.74,-122"/>
<text text-anchor="middle" x="1614" y="-99.8" font-family="Times,serif" font-size="14.00">LayoutDirective</text>
</g>
<!-- LayoutDirective&#45;&gt;OpenViduAngularDirectiveModule -->
<g id="edge5" class="edge">
<title>LayoutDirective&#45;&gt;OpenViduAngularDirectiveModule</title>
<path fill="none" stroke="black" d="M1634.04,-122.12C1634.04,-136.78 1634.04,-155 1634.04,-155 1634.04,-155 1450.83,-155 1450.83,-155"/>
<polygon fill="black" stroke="black" points="1450.83,-151.5 1440.83,-155 1450.83,-158.5 1450.83,-151.5"/>
</g>
<!-- PanelDirective -->
<g id="node6" class="node">
<title>PanelDirective</title>
<polygon fill="#ffffb3" stroke="black" points="1542.69,-122 1443.31,-122 1443.31,-86 1542.69,-86 1542.69,-122"/>
<text text-anchor="middle" x="1493" y="-99.8" font-family="Times,serif" font-size="14.00">PanelDirective</text>
</g>
<!-- PanelDirective&#45;&gt;OpenViduAngularDirectiveModule -->
<g id="edge6" class="edge">
<title>PanelDirective&#45;&gt;OpenViduAngularDirectiveModule</title>
<path fill="none" stroke="black" d="M1443.18,-104C1437.29,-104 1433.33,-104 1433.33,-104 1433.33,-104 1433.33,-140.89 1433.33,-140.89"/>
<polygon fill="black" stroke="black" points="1429.83,-140.89 1433.33,-150.89 1436.83,-140.89 1429.83,-140.89"/>
</g>
<!-- ParticipantPanelItemDirective -->
<g id="node7" class="node">
<title>ParticipantPanelItemDirective</title>
<polygon fill="#ffffb3" stroke="black" points="1425.99,-122 1240.01,-122 1240.01,-86 1425.99,-86 1425.99,-122"/>
<text text-anchor="middle" x="1333" y="-99.8" font-family="Times,serif" font-size="14.00">ParticipantPanelItemDirective</text>
</g>
<!-- ParticipantPanelItemDirective&#45;&gt;OpenViduAngularDirectiveModule -->
<g id="edge7" class="edge">
<title>ParticipantPanelItemDirective&#45;&gt;OpenViduAngularDirectiveModule</title>
<path fill="none" stroke="black" d="M1333,-122.11C1333,-122.11 1333,-140.99 1333,-140.99"/>
<polygon fill="black" stroke="black" points="1329.5,-140.99 1333,-150.99 1336.5,-140.99 1329.5,-140.99"/>
</g>
<!-- ParticipantPanelItemElementsDirective -->
<g id="node8" class="node">
<title>ParticipantPanelItemElementsDirective</title>
<polygon fill="#ffffb3" stroke="black" points="1221.59,-122 984.41,-122 984.41,-86 1221.59,-86 1221.59,-122"/>
<text text-anchor="middle" x="1103" y="-99.8" font-family="Times,serif" font-size="14.00">ParticipantPanelItemElementsDirective</text>
</g>
<!-- ParticipantPanelItemElementsDirective&#45;&gt;OpenViduAngularDirectiveModule -->
<g id="edge8" class="edge">
<title>ParticipantPanelItemElementsDirective&#45;&gt;OpenViduAngularDirectiveModule</title>
<path fill="none" stroke="black" d="M1221.62,-104C1228.48,-104 1232.67,-104 1232.67,-104 1232.67,-104 1232.67,-140.89 1232.67,-140.89"/>
<polygon fill="black" stroke="black" points="1229.17,-140.89 1232.67,-150.89 1236.17,-140.89 1229.17,-140.89"/>
</g>
<!-- ParticipantsPanelDirective -->
<g id="node9" class="node">
<title>ParticipantsPanelDirective</title>
<polygon fill="#ffffb3" stroke="black" points="966.78,-122 801.22,-122 801.22,-86 966.78,-86 966.78,-122"/>
<text text-anchor="middle" x="884" y="-99.8" font-family="Times,serif" font-size="14.00">ParticipantsPanelDirective</text>
</g>
<!-- ParticipantsPanelDirective&#45;&gt;OpenViduAngularDirectiveModule -->
<g id="edge9" class="edge">
<title>ParticipantsPanelDirective&#45;&gt;OpenViduAngularDirectiveModule</title>
<path fill="none" stroke="black" d="M908.05,-122.12C908.05,-136.78 908.05,-155 908.05,-155 908.05,-155 1214.94,-155 1214.94,-155"/>
<polygon fill="black" stroke="black" points="1214.94,-158.5 1224.94,-155 1214.94,-151.5 1214.94,-158.5"/>
</g>
<!-- StreamDirective -->
<g id="node10" class="node">
<title>StreamDirective</title>
<polygon fill="#ffffb3" stroke="black" points="782.74,-122 675.26,-122 675.26,-86 782.74,-86 782.74,-122"/>
<text text-anchor="middle" x="729" y="-99.8" font-family="Times,serif" font-size="14.00">StreamDirective</text>
</g>
<!-- StreamDirective&#45;&gt;OpenViduAngularDirectiveModule -->
<g id="edge10" class="edge">
<title>StreamDirective&#45;&gt;OpenViduAngularDirectiveModule</title>
<path fill="none" stroke="black" d="M778.74,-122.28C778.74,-137.95 778.74,-158 778.74,-158 778.74,-158 1215.15,-158 1215.15,-158"/>
<polygon fill="black" stroke="black" points="1215.15,-161.5 1225.15,-158 1215.15,-154.5 1215.15,-161.5"/>
</g>
<!-- ToolbarAdditionalButtonsDirective -->
<g id="node11" class="node">
<title>ToolbarAdditionalButtonsDirective</title>
<polygon fill="#ffffb3" stroke="black" points="656.85,-122 441.15,-122 441.15,-86 656.85,-86 656.85,-122"/>
<text text-anchor="middle" x="549" y="-99.8" font-family="Times,serif" font-size="14.00">ToolbarAdditionalButtonsDirective</text>
</g>
<!-- ToolbarAdditionalButtonsDirective&#45;&gt;OpenViduAngularDirectiveModule -->
<g id="edge11" class="edge">
<title>ToolbarAdditionalButtonsDirective&#45;&gt;OpenViduAngularDirectiveModule</title>
<path fill="none" stroke="black" d="M651.3,-122.04C651.3,-138.73 651.3,-161 651.3,-161 651.3,-161 1214.98,-161 1214.98,-161"/>
<polygon fill="black" stroke="black" points="1214.98,-164.5 1224.98,-161 1214.98,-157.5 1214.98,-164.5"/>
</g>
<!-- ToolbarAdditionalPanelButtonsDirective -->
<g id="node12" class="node">
<title>ToolbarAdditionalPanelButtonsDirective</title>
<polygon fill="#ffffb3" stroke="black" points="423.45,-122 176.55,-122 176.55,-86 423.45,-86 423.45,-122"/>
<text text-anchor="middle" x="300" y="-99.8" font-family="Times,serif" font-size="14.00">ToolbarAdditionalPanelButtonsDirective</text>
</g>
<!-- ToolbarAdditionalPanelButtonsDirective&#45;&gt;OpenViduAngularDirectiveModule -->
<g id="edge12" class="edge">
<title>ToolbarAdditionalPanelButtonsDirective&#45;&gt;OpenViduAngularDirectiveModule</title>
<path fill="none" stroke="black" d="M415.85,-122.3C415.85,-140.27 415.85,-165 415.85,-165 415.85,-165 1215.09,-165 1215.09,-165"/>
<polygon fill="black" stroke="black" points="1215.09,-168.5 1225.09,-165 1215.09,-161.5 1215.09,-168.5"/>
</g>
<!-- ToolbarDirective -->
<g id="node13" class="node">
<title>ToolbarDirective</title>
<polygon fill="#ffffb3" stroke="black" points="158.4,-122 45.6,-122 45.6,-86 158.4,-86 158.4,-122"/>
<text text-anchor="middle" x="102" y="-99.8" font-family="Times,serif" font-size="14.00">ToolbarDirective</text>
</g>
<!-- ToolbarDirective&#45;&gt;OpenViduAngularDirectiveModule -->
<g id="edge13" class="edge">
<title>ToolbarDirective&#45;&gt;OpenViduAngularDirectiveModule</title>
<path fill="none" stroke="black" d="M148.86,-122.17C148.86,-141.09 148.86,-168 148.86,-168 148.86,-168 1215.04,-168 1215.04,-168"/>
<polygon fill="black" stroke="black" points="1215.04,-171.5 1225.04,-168 1215.04,-164.5 1215.04,-171.5"/>
</g>
<!-- ActivitiesPanelDirective  -->
<g id="node15" class="node">
<title>ActivitiesPanelDirective </title>
<polygon fill="#fb8072" stroke="black" points="2414.62,-252 2257.38,-252 2257.38,-216 2414.62,-216 2414.62,-252"/>
<text text-anchor="middle" x="2336" y="-229.8" font-family="Times,serif" font-size="14.00">ActivitiesPanelDirective </text>
</g>
<!-- OpenViduAngularDirectiveModule&#45;&gt;ActivitiesPanelDirective  -->
<g id="edge14" class="edge">
<title>OpenViduAngularDirectiveModule&#45;&gt;ActivitiesPanelDirective </title>
<path fill="none" stroke="black" stroke-dasharray="5,2" d="M1440.95,-171C1697.83,-171 2324.12,-171 2324.12,-171 2324.12,-171 2324.12,-205.78 2324.12,-205.78"/>
<polygon fill="black" stroke="black" points="2320.63,-205.78 2324.12,-215.78 2327.63,-205.78 2320.63,-205.78"/>
</g>
<!-- AdditionalPanelsDirective  -->
<g id="node16" class="node">
<title>AdditionalPanelsDirective </title>
<polygon fill="#fb8072" stroke="black" points="2239.01,-252 2070.99,-252 2070.99,-216 2239.01,-216 2239.01,-252"/>
<text text-anchor="middle" x="2155" y="-229.8" font-family="Times,serif" font-size="14.00">AdditionalPanelsDirective </text>
</g>
<!-- OpenViduAngularDirectiveModule&#45;&gt;AdditionalPanelsDirective  -->
<g id="edge15" class="edge">
<title>OpenViduAngularDirectiveModule&#45;&gt;AdditionalPanelsDirective </title>
<path fill="none" stroke="black" stroke-dasharray="5,2" d="M1440.84,-174C1661.76,-174 2145.12,-174 2145.12,-174 2145.12,-174 2145.12,-206 2145.12,-206"/>
<polygon fill="black" stroke="black" points="2141.63,-206 2145.12,-216 2148.63,-206 2141.63,-206"/>
</g>
<!-- BackgroundEffectsPanelDirective  -->
<g id="node17" class="node">
<title>BackgroundEffectsPanelDirective </title>
<polygon fill="#fb8072" stroke="black" points="2053.25,-252 1842.75,-252 1842.75,-216 2053.25,-216 2053.25,-252"/>
<text text-anchor="middle" x="1948" y="-229.8" font-family="Times,serif" font-size="14.00">BackgroundEffectsPanelDirective </text>
</g>
<!-- OpenViduAngularDirectiveModule&#45;&gt;BackgroundEffectsPanelDirective  -->
<g id="edge16" class="edge">
<title>OpenViduAngularDirectiveModule&#45;&gt;BackgroundEffectsPanelDirective </title>
<path fill="none" stroke="black" stroke-dasharray="5,2" d="M1441.1,-178C1615.51,-178 1939.62,-178 1939.62,-178 1939.62,-178 1939.62,-205.97 1939.62,-205.97"/>
<polygon fill="black" stroke="black" points="1936.13,-205.97 1939.62,-215.97 1943.13,-205.97 1936.13,-205.97"/>
</g>
<!-- ChatPanelDirective  -->
<g id="node18" class="node">
<title>ChatPanelDirective </title>
<polygon fill="#fb8072" stroke="black" points="1824.63,-252 1695.37,-252 1695.37,-216 1824.63,-216 1824.63,-252"/>
<text text-anchor="middle" x="1760" y="-229.8" font-family="Times,serif" font-size="14.00">ChatPanelDirective </text>
</g>
<!-- OpenViduAngularDirectiveModule&#45;&gt;ChatPanelDirective  -->
<g id="edge17" class="edge">
<title>OpenViduAngularDirectiveModule&#45;&gt;ChatPanelDirective </title>
<path fill="none" stroke="black" stroke-dasharray="5,2" d="M1441.05,-181C1565.68,-181 1753.62,-181 1753.62,-181 1753.62,-181 1753.62,-205.76 1753.62,-205.76"/>
<polygon fill="black" stroke="black" points="1750.13,-205.76 1753.62,-215.76 1757.13,-205.76 1750.13,-205.76"/>
</g>
<!-- LayoutDirective  -->
<g id="node19" class="node">
<title>LayoutDirective </title>
<polygon fill="#fb8072" stroke="black" points="1677.74,-252 1566.26,-252 1566.26,-216 1677.74,-216 1677.74,-252"/>
<text text-anchor="middle" x="1622" y="-229.8" font-family="Times,serif" font-size="14.00">LayoutDirective </text>
</g>
<!-- OpenViduAngularDirectiveModule&#45;&gt;LayoutDirective  -->
<g id="edge18" class="edge">
<title>OpenViduAngularDirectiveModule&#45;&gt;LayoutDirective </title>
<path fill="none" stroke="black" stroke-dasharray="5,2" d="M1440.91,-184C1515.07,-184 1600.21,-184 1600.21,-184 1600.21,-184 1600.21,-205.95 1600.21,-205.95"/>
<polygon fill="black" stroke="black" points="1596.71,-205.95 1600.21,-215.95 1603.71,-205.95 1596.71,-205.95"/>
</g>
<!-- PanelDirective  -->
<g id="node20" class="node">
<title>PanelDirective </title>
<polygon fill="#fb8072" stroke="black" points="1548.19,-252 1445.81,-252 1445.81,-216 1548.19,-216 1548.19,-252"/>
<text text-anchor="middle" x="1497" y="-229.8" font-family="Times,serif" font-size="14.00">PanelDirective </text>
</g>
<!-- OpenViduAngularDirectiveModule&#45;&gt;PanelDirective  -->
<g id="edge19" class="edge">
<title>OpenViduAngularDirectiveModule&#45;&gt;PanelDirective </title>
<path fill="none" stroke="black" stroke-dasharray="5,2" d="M1434.2,-187.11C1434.2,-206.34 1434.2,-234 1434.2,-234 1434.2,-234 1435.72,-234 1435.72,-234"/>
<polygon fill="black" stroke="black" points="1435.72,-237.5 1445.72,-234 1435.72,-230.5 1435.72,-237.5"/>
</g>
<!-- ParticipantPanelItemDirective  -->
<g id="node21" class="node">
<title>ParticipantPanelItemDirective </title>
<polygon fill="#fb8072" stroke="black" points="1427.49,-252 1238.51,-252 1238.51,-216 1427.49,-216 1427.49,-252"/>
<text text-anchor="middle" x="1333" y="-229.8" font-family="Times,serif" font-size="14.00">ParticipantPanelItemDirective </text>
</g>
<!-- OpenViduAngularDirectiveModule&#45;&gt;ParticipantPanelItemDirective  -->
<g id="edge20" class="edge">
<title>OpenViduAngularDirectiveModule&#45;&gt;ParticipantPanelItemDirective </title>
<path fill="none" stroke="black" stroke-dasharray="5,2" d="M1333,-187.11C1333,-187.11 1333,-205.99 1333,-205.99"/>
<polygon fill="black" stroke="black" points="1329.5,-205.99 1333,-215.99 1336.5,-205.99 1329.5,-205.99"/>
</g>
<!-- ParticipantPanelItemElementsDirective  -->
<g id="node22" class="node">
<title>ParticipantPanelItemElementsDirective </title>
<polygon fill="#fb8072" stroke="black" points="1220.59,-252 979.41,-252 979.41,-216 1220.59,-216 1220.59,-252"/>
<text text-anchor="middle" x="1100" y="-229.8" font-family="Times,serif" font-size="14.00">ParticipantPanelItemElementsDirective </text>
</g>
<!-- OpenViduAngularDirectiveModule&#45;&gt;ParticipantPanelItemElementsDirective  -->
<g id="edge21" class="edge">
<title>OpenViduAngularDirectiveModule&#45;&gt;ParticipantPanelItemElementsDirective </title>
<path fill="none" stroke="black" stroke-dasharray="5,2" d="M1231.8,-187.11C1231.8,-206.34 1231.8,-234 1231.8,-234 1231.8,-234 1230.56,-234 1230.56,-234"/>
<polygon fill="black" stroke="black" points="1230.56,-230.5 1220.56,-234 1230.56,-237.5 1230.56,-230.5"/>
</g>
<!-- ParticipantsPanelDirective  -->
<g id="node23" class="node">
<title>ParticipantsPanelDirective </title>
<polygon fill="#fb8072" stroke="black" points="961.28,-252 792.72,-252 792.72,-216 961.28,-216 961.28,-252"/>
<text text-anchor="middle" x="877" y="-229.8" font-family="Times,serif" font-size="14.00">ParticipantsPanelDirective </text>
</g>
<!-- OpenViduAngularDirectiveModule&#45;&gt;ParticipantsPanelDirective  -->
<g id="edge22" class="edge">
<title>OpenViduAngularDirectiveModule&#45;&gt;ParticipantsPanelDirective </title>
<path fill="none" stroke="black" stroke-dasharray="5,2" d="M1225.06,-184C1084,-184 854.7,-184 854.7,-184 854.7,-184 854.7,-205.95 854.7,-205.95"/>
<polygon fill="black" stroke="black" points="851.2,-205.95 854.7,-215.95 858.2,-205.95 851.2,-205.95"/>
</g>
<!-- StreamDirective  -->
<g id="node24" class="node">
<title>StreamDirective </title>
<polygon fill="#fb8072" stroke="black" points="774.74,-252 663.26,-252 663.26,-216 774.74,-216 774.74,-252"/>
<text text-anchor="middle" x="719" y="-229.8" font-family="Times,serif" font-size="14.00">StreamDirective </text>
</g>
<!-- OpenViduAngularDirectiveModule&#45;&gt;StreamDirective  -->
<g id="edge23" class="edge">
<title>OpenViduAngularDirectiveModule&#45;&gt;StreamDirective </title>
<path fill="none" stroke="black" stroke-dasharray="5,2" d="M1224.98,-181C1050.23,-181 724.88,-181 724.88,-181 724.88,-181 724.88,-205.76 724.88,-205.76"/>
<polygon fill="black" stroke="black" points="721.38,-205.76 724.88,-215.76 728.38,-205.76 721.38,-205.76"/>
</g>
<!-- ToolbarAdditionalButtonsDirective  -->
<g id="node25" class="node">
<title>ToolbarAdditionalButtonsDirective </title>
<polygon fill="#fb8072" stroke="black" points="645.85,-252 426.15,-252 426.15,-216 645.85,-216 645.85,-252"/>
<text text-anchor="middle" x="536" y="-229.8" font-family="Times,serif" font-size="14.00">ToolbarAdditionalButtonsDirective </text>
</g>
<!-- OpenViduAngularDirectiveModule&#45;&gt;ToolbarAdditionalButtonsDirective  -->
<g id="edge24" class="edge">
<title>OpenViduAngularDirectiveModule&#45;&gt;ToolbarAdditionalButtonsDirective </title>
<path fill="none" stroke="black" stroke-dasharray="5,2" d="M1224.86,-178C1008.6,-178 543.38,-178 543.38,-178 543.38,-178 543.38,-205.97 543.38,-205.97"/>
<polygon fill="black" stroke="black" points="539.88,-205.97 543.38,-215.97 546.88,-205.97 539.88,-205.97"/>
</g>
<!-- ToolbarAdditionalPanelButtonsDirective  -->
<g id="node26" class="node">
<title>ToolbarAdditionalPanelButtonsDirective </title>
<polygon fill="#fb8072" stroke="black" points="408.45,-252 157.55,-252 157.55,-216 408.45,-216 408.45,-252"/>
<text text-anchor="middle" x="283" y="-229.8" font-family="Times,serif" font-size="14.00">ToolbarAdditionalPanelButtonsDirective </text>
</g>
<!-- OpenViduAngularDirectiveModule&#45;&gt;ToolbarAdditionalPanelButtonsDirective  -->
<g id="edge25" class="edge">
<title>OpenViduAngularDirectiveModule&#45;&gt;ToolbarAdditionalPanelButtonsDirective </title>
<path fill="none" stroke="black" stroke-dasharray="5,2" d="M1225.07,-174C958.86,-174 292.38,-174 292.38,-174 292.38,-174 292.38,-206 292.38,-206"/>
<polygon fill="black" stroke="black" points="288.88,-206 292.38,-216 295.88,-206 288.88,-206"/>
</g>
<!-- ToolbarDirective  -->
<g id="node27" class="node">
<title>ToolbarDirective </title>
<polygon fill="#fb8072" stroke="black" points="139.9,-252 24.1,-252 24.1,-216 139.9,-216 139.9,-252"/>
<text text-anchor="middle" x="82" y="-229.8" font-family="Times,serif" font-size="14.00">ToolbarDirective </text>
</g>
<!-- OpenViduAngularDirectiveModule&#45;&gt;ToolbarDirective  -->
<g id="edge26" class="edge">
<title>OpenViduAngularDirectiveModule&#45;&gt;ToolbarDirective </title>
<path fill="none" stroke="black" stroke-dasharray="5,2" d="M1225.12,-171C923.4,-171 92.88,-171 92.88,-171 92.88,-171 92.88,-205.78 92.88,-205.78"/>
<polygon fill="black" stroke="black" points="89.38,-205.78 92.88,-215.78 96.38,-205.78 89.38,-205.78"/>
</g>
</g>
</svg>
