<?xml version="1.0" encoding="UTF-8" standalone="no"?>
<!DOCTYPE svg PUBLIC "-//W3C//DTD SVG 1.1//EN"
 "http://www.w3.org/Graphics/SVG/1.1/DTD/svg11.dtd">
<!-- Generated by graphviz version 5.0.0 (20220707.1540)
 -->
<!-- Title: dependencies Pages: 1 -->
<svg width="5685pt" height="247pt"
 viewBox="0.00 0.00 5685.00 246.80" xmlns="http://www.w3.org/2000/svg" xmlns:xlink="http://www.w3.org/1999/xlink">
<g id="graph0" class="graph" transform="scale(1 1) rotate(0) translate(4 242.8)">
<title>dependencies</title>
<polygon fill="white" stroke="transparent" points="-4,4 -4,-242.8 5681,-242.8 5681,4 -4,4"/>
<text text-anchor="middle" x="2838.5" y="-8.2" font-family="sans-serif" font-size="14.00">dependencies</text>
<g id="clust1" class="cluster">
<title>cluster_ApiDirectiveModule</title>
<polygon fill="none" stroke="black" stroke-dasharray="1,5" points="8,-32.8 8,-230.8 5669,-230.8 5669,-32.8 8,-32.8"/>
</g>
<g id="clust30" class="cluster">
<title>cluster_ApiDirectiveModule_exports</title>
<polygon fill="none" stroke="black" points="16,-170.8 16,-222.8 5661,-222.8 5661,-170.8 16,-170.8"/>
</g>
<g id="clust2" class="cluster">
<title>cluster_ApiDirectiveModule_declarations</title>
<polygon fill="none" stroke="black" points="73,-40.8 73,-92.8 5626,-92.8 5626,-40.8 73,-40.8"/>
</g>
<!-- ActivitiesPanelRecordingActivityDirective -->
<g id="node1" class="node">
<title>ActivitiesPanelRecordingActivityDirective</title>
<polygon fill="#ffffb3" stroke="black" points="5617.82,-84.8 5360.18,-84.8 5360.18,-48.8 5617.82,-48.8 5617.82,-84.8"/>
<text text-anchor="middle" x="5489" y="-62.6" font-family="Times,serif" font-size="14.00">ActivitiesPanelRecordingActivityDirective</text>
</g>
<!-- ApiDirectiveModule -->
<g id="node27" class="node">
<title>ApiDirectiveModule</title>
<polygon fill="#8dd3c7" stroke="black" points="2976.14,-149.8 2973.14,-153.8 2952.14,-153.8 2949.14,-149.8 2843.86,-149.8 2843.86,-113.8 2976.14,-113.8 2976.14,-149.8"/>
<text text-anchor="middle" x="2910" y="-127.6" font-family="Times,serif" font-size="14.00">ApiDirectiveModule</text>
</g>
<!-- ActivitiesPanelRecordingActivityDirective&#45;&gt;ApiDirectiveModule -->
<g id="edge1" class="edge">
<title>ActivitiesPanelRecordingActivityDirective&#45;&gt;ApiDirectiveModule</title>
<path fill="none" stroke="black" d="M5366.52,-84.91C5366.52,-104.14 5366.52,-131.8 5366.52,-131.8 5366.52,-131.8 2986.34,-131.8 2986.34,-131.8"/>
<polygon fill="black" stroke="black" points="2986.34,-128.3 2976.34,-131.8 2986.34,-135.3 2986.34,-128.3"/>
</g>
<!-- AdminLoginDirective -->
<g id="node2" class="node">
<title>AdminLoginDirective</title>
<polygon fill="#ffffb3" stroke="black" points="5342.41,-84.8 5201.59,-84.8 5201.59,-48.8 5342.41,-48.8 5342.41,-84.8"/>
<text text-anchor="middle" x="5272" y="-62.6" font-family="Times,serif" font-size="14.00">AdminLoginDirective</text>
</g>
<!-- AdminLoginDirective&#45;&gt;ApiDirectiveModule -->
<g id="edge2" class="edge">
<title>AdminLoginDirective&#45;&gt;ApiDirectiveModule</title>
<path fill="none" stroke="black" d="M5206.4,-85.02C5206.4,-103.63 5206.4,-129.8 5206.4,-129.8 5206.4,-129.8 2986.25,-129.8 2986.25,-129.8"/>
<polygon fill="black" stroke="black" points="2986.25,-126.3 2976.25,-129.8 2986.25,-133.3 2986.25,-126.3"/>
</g>
<!-- AdminRecordingsListDirective -->
<g id="node3" class="node">
<title>AdminRecordingsListDirective</title>
<polygon fill="#ffffb3" stroke="black" points="5184.02,-84.8 4991.98,-84.8 4991.98,-48.8 5184.02,-48.8 5184.02,-84.8"/>
<text text-anchor="middle" x="5088" y="-62.6" font-family="Times,serif" font-size="14.00">AdminRecordingsListDirective</text>
</g>
<!-- AdminRecordingsListDirective&#45;&gt;ApiDirectiveModule -->
<g id="edge3" class="edge">
<title>AdminRecordingsListDirective&#45;&gt;ApiDirectiveModule</title>
<path fill="none" stroke="black" d="M5005.78,-85.07C5005.78,-103.36 5005.78,-128.8 5005.78,-128.8 5005.78,-128.8 2986.18,-128.8 2986.18,-128.8"/>
<polygon fill="black" stroke="black" points="2986.18,-125.3 2976.18,-128.8 2986.18,-132.3 2986.18,-125.3"/>
</g>
<!-- AudioMutedDirective -->
<g id="node4" class="node">
<title>AudioMutedDirective</title>
<polygon fill="#ffffb3" stroke="black" points="4973.64,-84.8 4834.36,-84.8 4834.36,-48.8 4973.64,-48.8 4973.64,-84.8"/>
<text text-anchor="middle" x="4904" y="-62.6" font-family="Times,serif" font-size="14.00">AudioMutedDirective</text>
</g>
<!-- AudioMutedDirective&#45;&gt;ApiDirectiveModule -->
<g id="edge4" class="edge">
<title>AudioMutedDirective&#45;&gt;ApiDirectiveModule</title>
<path fill="none" stroke="black" d="M4844.25,-85.1C4844.25,-103.07 4844.25,-127.8 4844.25,-127.8 4844.25,-127.8 2986.3,-127.8 2986.3,-127.8"/>
<polygon fill="black" stroke="black" points="2986.3,-124.3 2976.3,-127.8 2986.3,-131.3 2986.3,-124.3"/>
</g>
<!-- CaptionsLangDirective -->
<g id="node5" class="node">
<title>CaptionsLangDirective</title>
<polygon fill="#ffffb3" stroke="black" points="4816.13,-84.8 4669.87,-84.8 4669.87,-48.8 4816.13,-48.8 4816.13,-84.8"/>
<text text-anchor="middle" x="4743" y="-62.6" font-family="Times,serif" font-size="14.00">CaptionsLangDirective</text>
</g>
<!-- CaptionsLangDirective&#45;&gt;ApiDirectiveModule -->
<g id="edge5" class="edge">
<title>CaptionsLangDirective&#45;&gt;ApiDirectiveModule</title>
<path fill="none" stroke="black" d="M4677.31,-84.82C4677.31,-102.17 4677.31,-125.8 4677.31,-125.8 4677.31,-125.8 2986.32,-125.8 2986.32,-125.8"/>
<polygon fill="black" stroke="black" points="2986.32,-122.3 2976.32,-125.8 2986.32,-129.3 2986.32,-122.3"/>
</g>
<!-- LangDirective -->
<g id="node6" class="node">
<title>LangDirective</title>
<polygon fill="#ffffb3" stroke="black" points="4651.35,-84.8 4554.65,-84.8 4554.65,-48.8 4651.35,-48.8 4651.35,-84.8"/>
<text text-anchor="middle" x="4603" y="-62.6" font-family="Times,serif" font-size="14.00">LangDirective</text>
</g>
<!-- LangDirective&#45;&gt;ApiDirectiveModule -->
<g id="edge6" class="edge">
<title>LangDirective&#45;&gt;ApiDirectiveModule</title>
<path fill="none" stroke="black" d="M4560.7,-84.83C4560.7,-101.86 4560.7,-124.8 4560.7,-124.8 4560.7,-124.8 2986.24,-124.8 2986.24,-124.8"/>
<polygon fill="black" stroke="black" points="2986.24,-121.3 2976.24,-124.8 2986.24,-128.3 2986.24,-121.3"/>
</g>
<!-- MinimalDirective -->
<g id="node7" class="node">
<title>MinimalDirective</title>
<polygon fill="#ffffb3" stroke="black" points="4536.3,-84.8 4419.7,-84.8 4419.7,-48.8 4536.3,-48.8 4536.3,-84.8"/>
<text text-anchor="middle" x="4478" y="-62.6" font-family="Times,serif" font-size="14.00">MinimalDirective</text>
</g>
<!-- MinimalDirective&#45;&gt;ApiDirectiveModule -->
<g id="edge7" class="edge">
<title>MinimalDirective&#45;&gt;ApiDirectiveModule</title>
<path fill="none" stroke="black" d="M4424.47,-84.84C4424.47,-101.53 4424.47,-123.8 4424.47,-123.8 4424.47,-123.8 2986.54,-123.8 2986.54,-123.8"/>
<polygon fill="black" stroke="black" points="2986.54,-120.3 2976.54,-123.8 2986.54,-127.3 2986.54,-120.3"/>
</g>
<!-- ParticipantNameDirective -->
<g id="node8" class="node">
<title>ParticipantNameDirective</title>
<polygon fill="#ffffb3" stroke="black" points="4402.16,-84.8 4239.84,-84.8 4239.84,-48.8 4402.16,-48.8 4402.16,-84.8"/>
<text text-anchor="middle" x="4321" y="-62.6" font-family="Times,serif" font-size="14.00">ParticipantNameDirective</text>
</g>
<!-- ParticipantNameDirective&#45;&gt;ApiDirectiveModule -->
<g id="edge8" class="edge">
<title>ParticipantNameDirective&#45;&gt;ApiDirectiveModule</title>
<path fill="none" stroke="black" d="M4349.78,-84.81C4349.78,-100.85 4349.78,-121.8 4349.78,-121.8 4349.78,-121.8 2986.56,-121.8 2986.56,-121.8"/>
<polygon fill="black" stroke="black" points="2986.56,-118.3 2976.56,-121.8 2986.56,-125.3 2986.56,-118.3"/>
</g>
<!-- ParticipantPanelItemMuteButtonDirective -->
<g id="node9" class="node">
<title>ParticipantPanelItemMuteButtonDirective</title>
<polygon fill="#ffffb3" stroke="black" points="4221.66,-84.8 3968.34,-84.8 3968.34,-48.8 4221.66,-48.8 4221.66,-84.8"/>
<text text-anchor="middle" x="4095" y="-62.6" font-family="Times,serif" font-size="14.00">ParticipantPanelItemMuteButtonDirective</text>
</g>
<!-- ParticipantPanelItemMuteButtonDirective&#45;&gt;ApiDirectiveModule -->
<g id="edge9" class="edge">
<title>ParticipantPanelItemMuteButtonDirective&#45;&gt;ApiDirectiveModule</title>
<path fill="none" stroke="black" d="M4137.94,-85.08C4137.94,-100.75 4137.94,-120.8 4137.94,-120.8 4137.94,-120.8 2986.45,-120.8 2986.45,-120.8"/>
<polygon fill="black" stroke="black" points="2986.45,-117.3 2976.45,-120.8 2986.45,-124.3 2986.45,-117.3"/>
</g>
<!-- PrejoinDirective -->
<g id="node10" class="node">
<title>PrejoinDirective</title>
<polygon fill="#ffffb3" stroke="black" points="3950.03,-84.8 3841.97,-84.8 3841.97,-48.8 3950.03,-48.8 3950.03,-84.8"/>
<text text-anchor="middle" x="3896" y="-62.6" font-family="Times,serif" font-size="14.00">PrejoinDirective</text>
</g>
<!-- PrejoinDirective&#45;&gt;ApiDirectiveModule -->
<g id="edge10" class="edge">
<title>PrejoinDirective&#45;&gt;ApiDirectiveModule</title>
<path fill="none" stroke="black" d="M3914.09,-85.04C3914.09,-100.37 3914.09,-119.8 3914.09,-119.8 3914.09,-119.8 2986.27,-119.8 2986.27,-119.8"/>
<polygon fill="black" stroke="black" points="2986.27,-116.3 2976.27,-119.8 2986.27,-123.3 2986.27,-116.3"/>
</g>
<!-- RecordingActivityRecordingErrorDirective -->
<g id="node11" class="node">
<title>RecordingActivityRecordingErrorDirective</title>
<polygon fill="#ffffb3" stroke="black" points="3824.14,-84.8 3563.86,-84.8 3563.86,-48.8 3824.14,-48.8 3824.14,-84.8"/>
<text text-anchor="middle" x="3694" y="-62.6" font-family="Times,serif" font-size="14.00">RecordingActivityRecordingErrorDirective</text>
</g>
<!-- RecordingActivityRecordingErrorDirective&#45;&gt;ApiDirectiveModule -->
<g id="edge11" class="edge">
<title>RecordingActivityRecordingErrorDirective&#45;&gt;ApiDirectiveModule</title>
<path fill="none" stroke="black" d="M3650.23,-84.92C3650.23,-99.58 3650.23,-117.8 3650.23,-117.8 3650.23,-117.8 2986.34,-117.8 2986.34,-117.8"/>
<polygon fill="black" stroke="black" points="2986.34,-114.3 2976.34,-117.8 2986.34,-121.3 2986.34,-114.3"/>
</g>
<!-- RecordingActivityRecordingsListDirective -->
<g id="node12" class="node">
<title>RecordingActivityRecordingsListDirective</title>
<polygon fill="#ffffb3" stroke="black" points="3545.83,-84.8 3288.17,-84.8 3288.17,-48.8 3545.83,-48.8 3545.83,-84.8"/>
<text text-anchor="middle" x="3417" y="-62.6" font-family="Times,serif" font-size="14.00">RecordingActivityRecordingsListDirective</text>
</g>
<!-- RecordingActivityRecordingsListDirective&#45;&gt;ApiDirectiveModule -->
<g id="edge12" class="edge">
<title>RecordingActivityRecordingsListDirective&#45;&gt;ApiDirectiveModule</title>
<path fill="none" stroke="black" d="M3414.88,-84.85C3414.88,-99.17 3414.88,-116.8 3414.88,-116.8 3414.88,-116.8 2986.26,-116.8 2986.26,-116.8"/>
<polygon fill="black" stroke="black" points="2986.26,-113.3 2976.26,-116.8 2986.26,-120.3 2986.26,-113.3"/>
</g>
<!-- StreamDisplayAudioDetectionDirective -->
<g id="node13" class="node">
<title>StreamDisplayAudioDetectionDirective</title>
<polygon fill="#ffffb3" stroke="black" points="3270.21,-84.8 3029.79,-84.8 3029.79,-48.8 3270.21,-48.8 3270.21,-84.8"/>
<text text-anchor="middle" x="3150" y="-62.6" font-family="Times,serif" font-size="14.00">StreamDisplayAudioDetectionDirective</text>
</g>
<!-- StreamDisplayAudioDetectionDirective&#45;&gt;ApiDirectiveModule -->
<g id="edge13" class="edge">
<title>StreamDisplayAudioDetectionDirective&#45;&gt;ApiDirectiveModule</title>
<path fill="none" stroke="black" d="M3145.88,-85.05C3145.88,-98.98 3145.88,-115.8 3145.88,-115.8 3145.88,-115.8 2986.33,-115.8 2986.33,-115.8"/>
<polygon fill="black" stroke="black" points="2986.33,-112.3 2976.33,-115.8 2986.33,-119.3 2986.33,-112.3"/>
</g>
<!-- StreamDisplayParticipantNameDirective -->
<g id="node14" class="node">
<title>StreamDisplayParticipantNameDirective</title>
<polygon fill="#ffffb3" stroke="black" points="3011.87,-84.8 2766.13,-84.8 2766.13,-48.8 3011.87,-48.8 3011.87,-84.8"/>
<text text-anchor="middle" x="2889" y="-62.6" font-family="Times,serif" font-size="14.00">StreamDisplayParticipantNameDirective</text>
</g>
<!-- StreamDisplayParticipantNameDirective&#45;&gt;ApiDirectiveModule -->
<g id="edge14" class="edge">
<title>StreamDisplayParticipantNameDirective&#45;&gt;ApiDirectiveModule</title>
<path fill="none" stroke="black" d="M2910,-84.91C2910,-84.91 2910,-103.79 2910,-103.79"/>
<polygon fill="black" stroke="black" points="2906.5,-103.79 2910,-113.79 2913.5,-103.79 2906.5,-103.79"/>
</g>
<!-- StreamSettingsButtonDirective -->
<g id="node15" class="node">
<title>StreamSettingsButtonDirective</title>
<polygon fill="#ffffb3" stroke="black" points="2748.47,-84.8 2557.53,-84.8 2557.53,-48.8 2748.47,-48.8 2748.47,-84.8"/>
<text text-anchor="middle" x="2653" y="-62.6" font-family="Times,serif" font-size="14.00">StreamSettingsButtonDirective</text>
</g>
<!-- StreamSettingsButtonDirective&#45;&gt;ApiDirectiveModule -->
<g id="edge15" class="edge">
<title>StreamSettingsButtonDirective&#45;&gt;ApiDirectiveModule</title>
<path fill="none" stroke="black" d="M2740.36,-85.05C2740.36,-98.98 2740.36,-115.8 2740.36,-115.8 2740.36,-115.8 2833.44,-115.8 2833.44,-115.8"/>
<polygon fill="black" stroke="black" points="2833.44,-119.3 2843.44,-115.8 2833.44,-112.3 2833.44,-119.3"/>
</g>
<!-- ToolbarBackgroundEffectsButtonDirective -->
<g id="node16" class="node">
<title>ToolbarBackgroundEffectsButtonDirective</title>
<polygon fill="#ffffb3" stroke="black" points="2539.09,-84.8 2280.91,-84.8 2280.91,-48.8 2539.09,-48.8 2539.09,-84.8"/>
<text text-anchor="middle" x="2410" y="-62.6" font-family="Times,serif" font-size="14.00">ToolbarBackgroundEffectsButtonDirective</text>
</g>
<!-- ToolbarBackgroundEffectsButtonDirective&#45;&gt;ApiDirectiveModule -->
<g id="edge16" class="edge">
<title>ToolbarBackgroundEffectsButtonDirective&#45;&gt;ApiDirectiveModule</title>
<path fill="none" stroke="black" d="M2528.9,-84.85C2528.9,-99.17 2528.9,-116.8 2528.9,-116.8 2528.9,-116.8 2833.62,-116.8 2833.62,-116.8"/>
<polygon fill="black" stroke="black" points="2833.62,-120.3 2843.62,-116.8 2833.62,-113.3 2833.62,-120.3"/>
</g>
<!-- ToolbarCaptionsButtonDirective -->
<g id="node17" class="node">
<title>ToolbarCaptionsButtonDirective</title>
<polygon fill="#ffffb3" stroke="black" points="2263.3,-84.8 2062.7,-84.8 2062.7,-48.8 2263.3,-48.8 2263.3,-84.8"/>
<text text-anchor="middle" x="2163" y="-62.6" font-family="Times,serif" font-size="14.00">ToolbarCaptionsButtonDirective</text>
</g>
<!-- ToolbarCaptionsButtonDirective&#45;&gt;ApiDirectiveModule -->
<g id="edge17" class="edge">
<title>ToolbarCaptionsButtonDirective&#45;&gt;ApiDirectiveModule</title>
<path fill="none" stroke="black" d="M2248.93,-84.99C2248.93,-99.98 2248.93,-118.8 2248.93,-118.8 2248.93,-118.8 2833.59,-118.8 2833.59,-118.8"/>
<polygon fill="black" stroke="black" points="2833.59,-122.3 2843.59,-118.8 2833.59,-115.3 2833.59,-122.3"/>
</g>
<!-- ToolbarChatPanelButtonDirective -->
<g id="node18" class="node">
<title>ToolbarChatPanelButtonDirective</title>
<polygon fill="#ffffb3" stroke="black" points="2045.06,-84.8 1836.94,-84.8 1836.94,-48.8 2045.06,-48.8 2045.06,-84.8"/>
<text text-anchor="middle" x="1941" y="-62.6" font-family="Times,serif" font-size="14.00">ToolbarChatPanelButtonDirective</text>
</g>
<!-- ToolbarChatPanelButtonDirective&#45;&gt;ApiDirectiveModule -->
<g id="edge18" class="edge">
<title>ToolbarChatPanelButtonDirective&#45;&gt;ApiDirectiveModule</title>
<path fill="none" stroke="black" d="M2040.57,-85.04C2040.57,-100.37 2040.57,-119.8 2040.57,-119.8 2040.57,-119.8 2833.58,-119.8 2833.58,-119.8"/>
<polygon fill="black" stroke="black" points="2833.58,-123.3 2843.58,-119.8 2833.58,-116.3 2833.58,-123.3"/>
</g>
<!-- ToolbarDisplayLogoDirective -->
<g id="node19" class="node">
<title>ToolbarDisplayLogoDirective</title>
<polygon fill="#ffffb3" stroke="black" points="1818.5,-84.8 1633.5,-84.8 1633.5,-48.8 1818.5,-48.8 1818.5,-84.8"/>
<text text-anchor="middle" x="1726" y="-62.6" font-family="Times,serif" font-size="14.00">ToolbarDisplayLogoDirective</text>
</g>
<!-- ToolbarDisplayLogoDirective&#45;&gt;ApiDirectiveModule -->
<g id="edge19" class="edge">
<title>ToolbarDisplayLogoDirective&#45;&gt;ApiDirectiveModule</title>
<path fill="none" stroke="black" d="M1812.49,-84.81C1812.49,-100.85 1812.49,-121.8 1812.49,-121.8 1812.49,-121.8 2833.82,-121.8 2833.82,-121.8"/>
<polygon fill="black" stroke="black" points="2833.82,-125.3 2843.82,-121.8 2833.82,-118.3 2833.82,-125.3"/>
</g>
<!-- ToolbarDisplaySessionNameDirective -->
<g id="node20" class="node">
<title>ToolbarDisplaySessionNameDirective</title>
<polygon fill="#ffffb3" stroke="black" points="1615.17,-84.8 1382.83,-84.8 1382.83,-48.8 1615.17,-48.8 1615.17,-84.8"/>
<text text-anchor="middle" x="1499" y="-62.6" font-family="Times,serif" font-size="14.00">ToolbarDisplaySessionNameDirective</text>
</g>
<!-- ToolbarDisplaySessionNameDirective&#45;&gt;ApiDirectiveModule -->
<g id="edge20" class="edge">
<title>ToolbarDisplaySessionNameDirective&#45;&gt;ApiDirectiveModule</title>
<path fill="none" stroke="black" d="M1607.29,-84.83C1607.29,-101.2 1607.29,-122.8 1607.29,-122.8 1607.29,-122.8 2833.61,-122.8 2833.61,-122.8"/>
<polygon fill="black" stroke="black" points="2833.61,-126.3 2843.61,-122.8 2833.61,-119.3 2833.61,-126.3"/>
</g>
<!-- ToolbarFullscreenButtonDirective -->
<g id="node21" class="node">
<title>ToolbarFullscreenButtonDirective</title>
<polygon fill="#ffffb3" stroke="black" points="1364.34,-84.8 1155.66,-84.8 1155.66,-48.8 1364.34,-48.8 1364.34,-84.8"/>
<text text-anchor="middle" x="1260" y="-62.6" font-family="Times,serif" font-size="14.00">ToolbarFullscreenButtonDirective</text>
</g>
<!-- ToolbarFullscreenButtonDirective&#45;&gt;ApiDirectiveModule -->
<g id="edge21" class="edge">
<title>ToolbarFullscreenButtonDirective&#45;&gt;ApiDirectiveModule</title>
<path fill="none" stroke="black" d="M1355.29,-84.83C1355.29,-101.86 1355.29,-124.8 1355.29,-124.8 1355.29,-124.8 2833.69,-124.8 2833.69,-124.8"/>
<polygon fill="black" stroke="black" points="2833.69,-128.3 2843.69,-124.8 2833.69,-121.3 2833.69,-128.3"/>
</g>
<!-- ToolbarLeaveButtonDirective -->
<g id="node22" class="node">
<title>ToolbarLeaveButtonDirective</title>
<polygon fill="#ffffb3" stroke="black" points="1137.21,-84.8 952.79,-84.8 952.79,-48.8 1137.21,-48.8 1137.21,-84.8"/>
<text text-anchor="middle" x="1045" y="-62.6" font-family="Times,serif" font-size="14.00">ToolbarLeaveButtonDirective</text>
</g>
<!-- ToolbarLeaveButtonDirective&#45;&gt;ApiDirectiveModule -->
<g id="edge22" class="edge">
<title>ToolbarLeaveButtonDirective&#45;&gt;ApiDirectiveModule</title>
<path fill="none" stroke="black" d="M1126.59,-84.82C1126.59,-102.17 1126.59,-125.8 1126.59,-125.8 1126.59,-125.8 2833.61,-125.8 2833.61,-125.8"/>
<polygon fill="black" stroke="black" points="2833.61,-129.3 2843.61,-125.8 2833.61,-122.3 2833.61,-129.3"/>
</g>
<!-- ToolbarParticipantsPanelButtonDirective -->
<g id="node23" class="node">
<title>ToolbarParticipantsPanelButtonDirective</title>
<polygon fill="#ffffb3" stroke="black" points="934.72,-84.8 687.28,-84.8 687.28,-48.8 934.72,-48.8 934.72,-84.8"/>
<text text-anchor="middle" x="811" y="-62.6" font-family="Times,serif" font-size="14.00">ToolbarParticipantsPanelButtonDirective</text>
</g>
<!-- ToolbarParticipantsPanelButtonDirective&#45;&gt;ApiDirectiveModule -->
<g id="edge23" class="edge">
<title>ToolbarParticipantsPanelButtonDirective&#45;&gt;ApiDirectiveModule</title>
<path fill="none" stroke="black" d="M922.38,-84.8C922.38,-102.48 922.38,-126.8 922.38,-126.8 922.38,-126.8 2833.58,-126.8 2833.58,-126.8"/>
<polygon fill="black" stroke="black" points="2833.58,-130.3 2843.58,-126.8 2833.58,-123.3 2833.58,-130.3"/>
</g>
<!-- ToolbarScreenshareButtonDirective -->
<g id="node24" class="node">
<title>ToolbarScreenshareButtonDirective</title>
<polygon fill="#ffffb3" stroke="black" points="669.15,-84.8 450.85,-84.8 450.85,-48.8 669.15,-48.8 669.15,-84.8"/>
<text text-anchor="middle" x="560" y="-62.6" font-family="Times,serif" font-size="14.00">ToolbarScreenshareButtonDirective</text>
</g>
<!-- ToolbarScreenshareButtonDirective&#45;&gt;ApiDirectiveModule -->
<g id="edge24" class="edge">
<title>ToolbarScreenshareButtonDirective&#45;&gt;ApiDirectiveModule</title>
<path fill="none" stroke="black" d="M654.73,-85.07C654.73,-103.36 654.73,-128.8 654.73,-128.8 654.73,-128.8 2833.73,-128.8 2833.73,-128.8"/>
<polygon fill="black" stroke="black" points="2833.73,-132.3 2843.73,-128.8 2833.73,-125.3 2833.73,-132.3"/>
</g>
<!-- ToolbarSettingsButtonDirective -->
<g id="node25" class="node">
<title>ToolbarSettingsButtonDirective</title>
<polygon fill="#ffffb3" stroke="black" points="432.64,-84.8 237.36,-84.8 237.36,-48.8 432.64,-48.8 432.64,-84.8"/>
<text text-anchor="middle" x="335" y="-62.6" font-family="Times,serif" font-size="14.00">ToolbarSettingsButtonDirective</text>
</g>
<!-- ToolbarSettingsButtonDirective&#45;&gt;ApiDirectiveModule -->
<g id="edge25" class="edge">
<title>ToolbarSettingsButtonDirective&#45;&gt;ApiDirectiveModule</title>
<path fill="none" stroke="black" d="M417,-85.02C417,-103.63 417,-129.8 417,-129.8 417,-129.8 2833.64,-129.8 2833.64,-129.8"/>
<polygon fill="black" stroke="black" points="2833.64,-133.3 2843.64,-129.8 2833.64,-126.3 2833.64,-133.3"/>
</g>
<!-- VideoMutedDirective -->
<g id="node26" class="node">
<title>VideoMutedDirective</title>
<polygon fill="#ffffb3" stroke="black" points="219.35,-84.8 80.65,-84.8 80.65,-48.8 219.35,-48.8 219.35,-84.8"/>
<text text-anchor="middle" x="150" y="-62.6" font-family="Times,serif" font-size="14.00">VideoMutedDirective</text>
</g>
<!-- VideoMutedDirective&#45;&gt;ApiDirectiveModule -->
<g id="edge26" class="edge">
<title>VideoMutedDirective&#45;&gt;ApiDirectiveModule</title>
<path fill="none" stroke="black" d="M201.93,-84.91C201.93,-104.14 201.93,-131.8 201.93,-131.8 201.93,-131.8 2833.73,-131.8 2833.73,-131.8"/>
<polygon fill="black" stroke="black" points="2833.73,-135.3 2843.73,-131.8 2833.73,-128.3 2833.73,-135.3"/>
</g>
<!-- ActivitiesPanelRecordingActivityDirective  -->
<g id="node28" class="node">
<title>ActivitiesPanelRecordingActivityDirective </title>
<polygon fill="#fb8072" stroke="black" points="5652.82,-214.8 5391.18,-214.8 5391.18,-178.8 5652.82,-178.8 5652.82,-214.8"/>
<text text-anchor="middle" x="5522" y="-192.6" font-family="Times,serif" font-size="14.00">ActivitiesPanelRecordingActivityDirective </text>
</g>
<!-- ApiDirectiveModule&#45;&gt;ActivitiesPanelRecordingActivityDirective  -->
<g id="edge27" class="edge">
<title>ApiDirectiveModule&#45;&gt;ActivitiesPanelRecordingActivityDirective </title>
<path fill="none" stroke="black" stroke-dasharray="5,2" d="M2976.42,-132.8C3381.72,-132.8 5504.62,-132.8 5504.62,-132.8 5504.62,-132.8 5504.62,-168.63 5504.62,-168.63"/>
<polygon fill="black" stroke="black" points="5501.13,-168.63 5504.62,-178.63 5508.13,-168.63 5501.13,-168.63"/>
</g>
<!-- AdminLoginDirective  -->
<g id="node29" class="node">
<title>AdminLoginDirective </title>
<polygon fill="#fb8072" stroke="black" points="5372.91,-214.8 5229.09,-214.8 5229.09,-178.8 5372.91,-178.8 5372.91,-214.8"/>
<text text-anchor="middle" x="5301" y="-192.6" font-family="Times,serif" font-size="14.00">AdminLoginDirective </text>
</g>
<!-- ApiDirectiveModule&#45;&gt;AdminLoginDirective  -->
<g id="edge28" class="edge">
<title>ApiDirectiveModule&#45;&gt;AdminLoginDirective </title>
<path fill="none" stroke="black" stroke-dasharray="5,2" d="M2976.33,-133.8C3360.74,-133.8 5285.62,-133.8 5285.62,-133.8 5285.62,-133.8 5285.62,-168.58 5285.62,-168.58"/>
<polygon fill="black" stroke="black" points="5282.13,-168.58 5285.62,-178.58 5289.13,-168.58 5282.13,-168.58"/>
</g>
<!-- AdminRecordingsListDirective  -->
<g id="node30" class="node">
<title>AdminRecordingsListDirective </title>
<polygon fill="#fb8072" stroke="black" points="5211.02,-214.8 5014.98,-214.8 5014.98,-178.8 5211.02,-178.8 5211.02,-214.8"/>
<text text-anchor="middle" x="5113" y="-192.6" font-family="Times,serif" font-size="14.00">AdminRecordingsListDirective </text>
</g>
<!-- ApiDirectiveModule&#45;&gt;AdminRecordingsListDirective  -->
<g id="edge29" class="edge">
<title>ApiDirectiveModule&#45;&gt;AdminRecordingsListDirective </title>
<path fill="none" stroke="black" stroke-dasharray="5,2" d="M2976.43,-135.8C3342.73,-135.8 5099.62,-135.8 5099.62,-135.8 5099.62,-135.8 5099.62,-168.5 5099.62,-168.5"/>
<polygon fill="black" stroke="black" points="5096.13,-168.5 5099.62,-178.5 5103.13,-168.5 5096.13,-168.5"/>
</g>
<!-- AudioMutedDirective  -->
<g id="node31" class="node">
<title>AudioMutedDirective </title>
<polygon fill="#fb8072" stroke="black" points="4996.63,-214.8 4853.37,-214.8 4853.37,-178.8 4996.63,-178.8 4996.63,-214.8"/>
<text text-anchor="middle" x="4925" y="-192.6" font-family="Times,serif" font-size="14.00">AudioMutedDirective </text>
</g>
<!-- ApiDirectiveModule&#45;&gt;AudioMutedDirective  -->
<g id="edge30" class="edge">
<title>ApiDirectiveModule&#45;&gt;AudioMutedDirective </title>
<path fill="none" stroke="black" stroke-dasharray="5,2" d="M2976.38,-136.8C3323.45,-136.8 4913.62,-136.8 4913.62,-136.8 4913.62,-136.8 4913.62,-168.8 4913.62,-168.8"/>
<polygon fill="black" stroke="black" points="4910.13,-168.8 4913.62,-178.8 4917.13,-168.8 4910.13,-168.8"/>
</g>
<!-- CaptionsLangDirective  -->
<g id="node32" class="node">
<title>CaptionsLangDirective </title>
<polygon fill="#fb8072" stroke="black" points="4835.13,-214.8 4684.87,-214.8 4684.87,-178.8 4835.13,-178.8 4835.13,-214.8"/>
<text text-anchor="middle" x="4760" y="-192.6" font-family="Times,serif" font-size="14.00">CaptionsLangDirective </text>
</g>
<!-- ApiDirectiveModule&#45;&gt;CaptionsLangDirective  -->
<g id="edge31" class="edge">
<title>ApiDirectiveModule&#45;&gt;CaptionsLangDirective </title>
<path fill="none" stroke="black" stroke-dasharray="5,2" d="M2976.32,-137.8C3305.79,-137.8 4750.62,-137.8 4750.62,-137.8 4750.62,-137.8 4750.62,-168.78 4750.62,-168.78"/>
<polygon fill="black" stroke="black" points="4747.13,-168.78 4750.62,-178.78 4754.13,-168.78 4747.13,-168.78"/>
</g>
<!-- LangDirective  -->
<g id="node33" class="node">
<title>LangDirective </title>
<polygon fill="#fb8072" stroke="black" points="4667.35,-214.8 4566.65,-214.8 4566.65,-178.8 4667.35,-178.8 4667.35,-214.8"/>
<text text-anchor="middle" x="4617" y="-192.6" font-family="Times,serif" font-size="14.00">LangDirective </text>
</g>
<!-- ApiDirectiveModule&#45;&gt;LangDirective  -->
<g id="edge32" class="edge">
<title>ApiDirectiveModule&#45;&gt;LangDirective </title>
<path fill="none" stroke="black" stroke-dasharray="5,2" d="M2976.35,-139.8C3290.02,-139.8 4609.12,-139.8 4609.12,-139.8 4609.12,-139.8 4609.12,-168.76 4609.12,-168.76"/>
<polygon fill="black" stroke="black" points="4605.63,-168.76 4609.12,-178.76 4612.63,-168.76 4605.63,-168.76"/>
</g>
<!-- MinimalDirective  -->
<g id="node34" class="node">
<title>MinimalDirective </title>
<polygon fill="#fb8072" stroke="black" points="4548.8,-214.8 4429.2,-214.8 4429.2,-178.8 4548.8,-178.8 4548.8,-214.8"/>
<text text-anchor="middle" x="4489" y="-192.6" font-family="Times,serif" font-size="14.00">MinimalDirective </text>
</g>
<!-- ApiDirectiveModule&#45;&gt;MinimalDirective  -->
<g id="edge33" class="edge">
<title>ApiDirectiveModule&#45;&gt;MinimalDirective </title>
<path fill="none" stroke="black" stroke-dasharray="5,2" d="M2976.57,-140.8C3275.89,-140.8 4482.62,-140.8 4482.62,-140.8 4482.62,-140.8 4482.62,-168.77 4482.62,-168.77"/>
<polygon fill="black" stroke="black" points="4479.13,-168.77 4482.62,-178.77 4486.13,-168.77 4479.13,-168.77"/>
</g>
<!-- ParticipantNameDirective  -->
<g id="node35" class="node">
<title>ParticipantNameDirective </title>
<polygon fill="#fb8072" stroke="black" points="4410.66,-214.8 4245.34,-214.8 4245.34,-178.8 4410.66,-178.8 4410.66,-214.8"/>
<text text-anchor="middle" x="4328" y="-192.6" font-family="Times,serif" font-size="14.00">ParticipantNameDirective </text>
</g>
<!-- ApiDirectiveModule&#45;&gt;ParticipantNameDirective  -->
<g id="edge34" class="edge">
<title>ApiDirectiveModule&#45;&gt;ParticipantNameDirective </title>
<path fill="none" stroke="black" stroke-dasharray="5,2" d="M2976.45,-141.8C3252.9,-141.8 4297.47,-141.8 4297.47,-141.8 4297.47,-141.8 4297.47,-168.79 4297.47,-168.79"/>
<polygon fill="black" stroke="black" points="4293.97,-168.79 4297.47,-178.79 4300.97,-168.79 4293.97,-168.79"/>
</g>
<!-- ParticipantPanelItemMuteButtonDirective  -->
<g id="node36" class="node">
<title>ParticipantPanelItemMuteButtonDirective </title>
<polygon fill="#fb8072" stroke="black" points="4227.16,-214.8 3970.84,-214.8 3970.84,-178.8 4227.16,-178.8 4227.16,-214.8"/>
<text text-anchor="middle" x="4099" y="-192.6" font-family="Times,serif" font-size="14.00">ParticipantPanelItemMuteButtonDirective </text>
</g>
<!-- ApiDirectiveModule&#45;&gt;ParticipantPanelItemMuteButtonDirective  -->
<g id="edge35" class="edge">
<title>ApiDirectiveModule&#45;&gt;ParticipantPanelItemMuteButtonDirective </title>
<path fill="none" stroke="black" stroke-dasharray="5,2" d="M2976.47,-143.8C3220.69,-143.8 4054.31,-143.8 4054.31,-143.8 4054.31,-143.8 4054.31,-168.56 4054.31,-168.56"/>
<polygon fill="black" stroke="black" points="4050.81,-168.56 4054.31,-178.56 4057.81,-168.56 4050.81,-168.56"/>
</g>
<!-- PrejoinDirective  -->
<g id="node37" class="node">
<title>PrejoinDirective </title>
<polygon fill="#fb8072" stroke="black" points="3953.02,-214.8 3840.98,-214.8 3840.98,-178.8 3953.02,-178.8 3953.02,-214.8"/>
<text text-anchor="middle" x="3897" y="-192.6" font-family="Times,serif" font-size="14.00">PrejoinDirective </text>
</g>
<!-- ApiDirectiveModule&#45;&gt;PrejoinDirective  -->
<g id="edge36" class="edge">
<title>ApiDirectiveModule&#45;&gt;PrejoinDirective </title>
<path fill="none" stroke="black" stroke-dasharray="5,2" d="M2976.15,-144.8C3194.41,-144.8 3877.91,-144.8 3877.91,-144.8 3877.91,-144.8 3877.91,-168.61 3877.91,-168.61"/>
<polygon fill="black" stroke="black" points="3874.41,-168.61 3877.91,-178.61 3881.41,-168.61 3874.41,-168.61"/>
</g>
<!-- RecordingActivityRecordingErrorDirective  -->
<g id="node38" class="node">
<title>RecordingActivityRecordingErrorDirective </title>
<polygon fill="#fb8072" stroke="black" points="3822.64,-214.8 3559.36,-214.8 3559.36,-178.8 3822.64,-178.8 3822.64,-214.8"/>
<text text-anchor="middle" x="3691" y="-192.6" font-family="Times,serif" font-size="14.00">RecordingActivityRecordingErrorDirective </text>
</g>
<!-- ApiDirectiveModule&#45;&gt;RecordingActivityRecordingErrorDirective  -->
<g id="edge37" class="edge">
<title>ApiDirectiveModule&#45;&gt;RecordingActivityRecordingErrorDirective </title>
<path fill="none" stroke="black" stroke-dasharray="5,2" d="M2976.24,-145.8C3172.37,-145.8 3736.52,-145.8 3736.52,-145.8 3736.52,-145.8 3736.52,-168.68 3736.52,-168.68"/>
<polygon fill="black" stroke="black" points="3733.02,-168.68 3736.52,-178.68 3740.02,-168.68 3733.02,-168.68"/>
</g>
<!-- RecordingActivityRecordingsListDirective  -->
<g id="node39" class="node">
<title>RecordingActivityRecordingsListDirective </title>
<polygon fill="#fb8072" stroke="black" points="3541.83,-214.8 3280.17,-214.8 3280.17,-178.8 3541.83,-178.8 3541.83,-214.8"/>
<text text-anchor="middle" x="3411" y="-192.6" font-family="Times,serif" font-size="14.00">RecordingActivityRecordingsListDirective </text>
</g>
<!-- ApiDirectiveModule&#45;&gt;RecordingActivityRecordingsListDirective  -->
<g id="edge38" class="edge">
<title>ApiDirectiveModule&#45;&gt;RecordingActivityRecordingsListDirective </title>
<path fill="none" stroke="black" stroke-dasharray="5,2" d="M2976.47,-147.8C3084,-147.8 3284.21,-147.8 3284.21,-147.8 3284.21,-147.8 3284.21,-168.55 3284.21,-168.55"/>
<polygon fill="black" stroke="black" points="3280.71,-168.55 3284.21,-178.55 3287.71,-168.55 3280.71,-168.55"/>
</g>
<!-- StreamDisplayAudioDetectionDirective  -->
<g id="node40" class="node">
<title>StreamDisplayAudioDetectionDirective </title>
<polygon fill="#fb8072" stroke="black" points="3262.21,-214.8 3017.79,-214.8 3017.79,-178.8 3262.21,-178.8 3262.21,-214.8"/>
<text text-anchor="middle" x="3140" y="-192.6" font-family="Times,serif" font-size="14.00">StreamDisplayAudioDetectionDirective </text>
</g>
<!-- ApiDirectiveModule&#45;&gt;StreamDisplayAudioDetectionDirective  -->
<g id="edge39" class="edge">
<title>ApiDirectiveModule&#45;&gt;StreamDisplayAudioDetectionDirective </title>
<path fill="none" stroke="black" stroke-dasharray="5,2" d="M2976.18,-148.8C3001.21,-148.8 3023.77,-148.8 3023.77,-148.8 3023.77,-148.8 3023.77,-168.65 3023.77,-168.65"/>
<polygon fill="black" stroke="black" points="3020.27,-168.65 3023.77,-178.65 3027.27,-168.65 3020.27,-168.65"/>
</g>
<!-- StreamDisplayParticipantNameDirective  -->
<g id="node41" class="node">
<title>StreamDisplayParticipantNameDirective </title>
<polygon fill="#fb8072" stroke="black" points="2999.37,-214.8 2750.63,-214.8 2750.63,-178.8 2999.37,-178.8 2999.37,-214.8"/>
<text text-anchor="middle" x="2875" y="-192.6" font-family="Times,serif" font-size="14.00">StreamDisplayParticipantNameDirective </text>
</g>
<!-- ApiDirectiveModule&#45;&gt;StreamDisplayParticipantNameDirective  -->
<g id="edge40" class="edge">
<title>ApiDirectiveModule&#45;&gt;StreamDisplayParticipantNameDirective </title>
<path fill="none" stroke="black" stroke-dasharray="5,2" d="M2910,-149.91C2910,-149.91 2910,-168.79 2910,-168.79"/>
<polygon fill="black" stroke="black" points="2906.5,-168.79 2910,-178.79 2913.5,-168.79 2906.5,-168.79"/>
</g>
<!-- StreamSettingsButtonDirective  -->
<g id="node42" class="node">
<title>StreamSettingsButtonDirective </title>
<polygon fill="#fb8072" stroke="black" points="2732.47,-214.8 2537.53,-214.8 2537.53,-178.8 2732.47,-178.8 2732.47,-214.8"/>
<text text-anchor="middle" x="2635" y="-192.6" font-family="Times,serif" font-size="14.00">StreamSettingsButtonDirective </text>
</g>
<!-- ApiDirectiveModule&#45;&gt;StreamSettingsButtonDirective  -->
<g id="edge41" class="edge">
<title>ApiDirectiveModule&#45;&gt;StreamSettingsButtonDirective </title>
<path fill="none" stroke="black" stroke-dasharray="5,2" d="M2843.78,-148.8C2765.25,-148.8 2644.88,-148.8 2644.88,-148.8 2644.88,-148.8 2644.88,-168.65 2644.88,-168.65"/>
<polygon fill="black" stroke="black" points="2641.38,-168.65 2644.88,-178.65 2648.38,-168.65 2641.38,-168.65"/>
</g>
<!-- ToolbarBackgroundEffectsButtonDirective  -->
<g id="node43" class="node">
<title>ToolbarBackgroundEffectsButtonDirective </title>
<polygon fill="#fb8072" stroke="black" points="2520.09,-214.8 2257.91,-214.8 2257.91,-178.8 2520.09,-178.8 2520.09,-214.8"/>
<text text-anchor="middle" x="2389" y="-192.6" font-family="Times,serif" font-size="14.00">ToolbarBackgroundEffectsButtonDirective </text>
</g>
<!-- ApiDirectiveModule&#45;&gt;ToolbarBackgroundEffectsButtonDirective  -->
<g id="edge42" class="edge">
<title>ApiDirectiveModule&#45;&gt;ToolbarBackgroundEffectsButtonDirective </title>
<path fill="none" stroke="black" stroke-dasharray="5,2" d="M2843.64,-147.8C2705.62,-147.8 2400.38,-147.8 2400.38,-147.8 2400.38,-147.8 2400.38,-168.55 2400.38,-168.55"/>
<polygon fill="black" stroke="black" points="2396.88,-168.55 2400.38,-178.55 2403.88,-168.55 2396.88,-168.55"/>
</g>
<!-- ToolbarCaptionsButtonDirective  -->
<g id="node44" class="node">
<title>ToolbarCaptionsButtonDirective </title>
<polygon fill="#fb8072" stroke="black" points="2239.8,-214.8 2036.2,-214.8 2036.2,-178.8 2239.8,-178.8 2239.8,-214.8"/>
<text text-anchor="middle" x="2138" y="-192.6" font-family="Times,serif" font-size="14.00">ToolbarCaptionsButtonDirective </text>
</g>
<!-- ApiDirectiveModule&#45;&gt;ToolbarCaptionsButtonDirective  -->
<g id="edge43" class="edge">
<title>ApiDirectiveModule&#45;&gt;ToolbarCaptionsButtonDirective </title>
<path fill="none" stroke="black" stroke-dasharray="5,2" d="M2843.67,-145.8C2658.83,-145.8 2151.38,-145.8 2151.38,-145.8 2151.38,-145.8 2151.38,-168.68 2151.38,-168.68"/>
<polygon fill="black" stroke="black" points="2147.88,-168.68 2151.38,-178.68 2154.88,-168.68 2147.88,-168.68"/>
</g>
<!-- ToolbarChatPanelButtonDirective  -->
<g id="node45" class="node">
<title>ToolbarChatPanelButtonDirective </title>
<polygon fill="#fb8072" stroke="black" points="2017.56,-214.8 1806.44,-214.8 1806.44,-178.8 2017.56,-178.8 2017.56,-214.8"/>
<text text-anchor="middle" x="1912" y="-192.6" font-family="Times,serif" font-size="14.00">ToolbarChatPanelButtonDirective </text>
</g>
<!-- ApiDirectiveModule&#45;&gt;ToolbarChatPanelButtonDirective  -->
<g id="edge44" class="edge">
<title>ApiDirectiveModule&#45;&gt;ToolbarChatPanelButtonDirective </title>
<path fill="none" stroke="black" stroke-dasharray="5,2" d="M2843.62,-144.8C2622.88,-144.8 1927.38,-144.8 1927.38,-144.8 1927.38,-144.8 1927.38,-168.61 1927.38,-168.61"/>
<polygon fill="black" stroke="black" points="1923.88,-168.61 1927.38,-178.61 1930.88,-168.61 1923.88,-168.61"/>
</g>
<!-- ToolbarDisplayLogoDirective  -->
<g id="node46" class="node">
<title>ToolbarDisplayLogoDirective </title>
<polygon fill="#fb8072" stroke="black" points="1788.5,-214.8 1599.5,-214.8 1599.5,-178.8 1788.5,-178.8 1788.5,-214.8"/>
<text text-anchor="middle" x="1694" y="-192.6" font-family="Times,serif" font-size="14.00">ToolbarDisplayLogoDirective </text>
</g>
<!-- ApiDirectiveModule&#45;&gt;ToolbarDisplayLogoDirective  -->
<g id="edge45" class="edge">
<title>ApiDirectiveModule&#45;&gt;ToolbarDisplayLogoDirective </title>
<path fill="none" stroke="black" stroke-dasharray="5,2" d="M2843.82,-142.8C2592.44,-142.8 1710.88,-142.8 1710.88,-142.8 1710.88,-142.8 1710.88,-168.52 1710.88,-168.52"/>
<polygon fill="black" stroke="black" points="1707.38,-168.52 1710.88,-178.52 1714.38,-168.52 1707.38,-168.52"/>
</g>
<!-- ToolbarDisplaySessionNameDirective  -->
<g id="node47" class="node">
<title>ToolbarDisplaySessionNameDirective </title>
<polygon fill="#fb8072" stroke="black" points="1581.67,-214.8 1346.33,-214.8 1346.33,-178.8 1581.67,-178.8 1581.67,-214.8"/>
<text text-anchor="middle" x="1464" y="-192.6" font-family="Times,serif" font-size="14.00">ToolbarDisplaySessionNameDirective </text>
</g>
<!-- ApiDirectiveModule&#45;&gt;ToolbarDisplaySessionNameDirective  -->
<g id="edge46" class="edge">
<title>ApiDirectiveModule&#45;&gt;ToolbarDisplaySessionNameDirective </title>
<path fill="none" stroke="black" stroke-dasharray="5,2" d="M2843.53,-141.8C2562.02,-141.8 1482.38,-141.8 1482.38,-141.8 1482.38,-141.8 1482.38,-168.79 1482.38,-168.79"/>
<polygon fill="black" stroke="black" points="1478.88,-168.79 1482.38,-178.79 1485.88,-168.79 1478.88,-168.79"/>
</g>
<!-- ToolbarFullscreenButtonDirective  -->
<g id="node48" class="node">
<title>ToolbarFullscreenButtonDirective </title>
<polygon fill="#fb8072" stroke="black" points="1328.34,-214.8 1115.66,-214.8 1115.66,-178.8 1328.34,-178.8 1328.34,-214.8"/>
<text text-anchor="middle" x="1222" y="-192.6" font-family="Times,serif" font-size="14.00">ToolbarFullscreenButtonDirective </text>
</g>
<!-- ApiDirectiveModule&#45;&gt;ToolbarFullscreenButtonDirective  -->
<g id="edge47" class="edge">
<title>ApiDirectiveModule&#45;&gt;ToolbarFullscreenButtonDirective </title>
<path fill="none" stroke="black" stroke-dasharray="5,2" d="M2843.84,-139.8C2534.04,-139.8 1241.88,-139.8 1241.88,-139.8 1241.88,-139.8 1241.88,-168.76 1241.88,-168.76"/>
<polygon fill="black" stroke="black" points="1238.38,-168.76 1241.88,-178.76 1245.38,-168.76 1238.38,-168.76"/>
</g>
<!-- ToolbarLeaveButtonDirective  -->
<g id="node49" class="node">
<title>ToolbarLeaveButtonDirective </title>
<polygon fill="#fb8072" stroke="black" points="1098.21,-214.8 909.79,-214.8 909.79,-178.8 1098.21,-178.8 1098.21,-214.8"/>
<text text-anchor="middle" x="1004" y="-192.6" font-family="Times,serif" font-size="14.00">ToolbarLeaveButtonDirective </text>
</g>
<!-- ApiDirectiveModule&#45;&gt;ToolbarLeaveButtonDirective  -->
<g id="edge48" class="edge">
<title>ApiDirectiveModule&#45;&gt;ToolbarLeaveButtonDirective </title>
<path fill="none" stroke="black" stroke-dasharray="5,2" d="M2843.75,-138.8C2509.65,-138.8 1025.38,-138.8 1025.38,-138.8 1025.38,-138.8 1025.38,-168.77 1025.38,-168.77"/>
<polygon fill="black" stroke="black" points="1021.88,-168.77 1025.38,-178.77 1028.88,-168.77 1021.88,-168.77"/>
</g>
<!-- ToolbarParticipantsPanelButtonDirective  -->
<g id="node50" class="node">
<title>ToolbarParticipantsPanelButtonDirective </title>
<polygon fill="#fb8072" stroke="black" points="891.72,-214.8 640.28,-214.8 640.28,-178.8 891.72,-178.8 891.72,-214.8"/>
<text text-anchor="middle" x="766" y="-192.6" font-family="Times,serif" font-size="14.00">ToolbarParticipantsPanelButtonDirective </text>
</g>
<!-- ApiDirectiveModule&#45;&gt;ToolbarParticipantsPanelButtonDirective  -->
<g id="edge49" class="edge">
<title>ApiDirectiveModule&#45;&gt;ToolbarParticipantsPanelButtonDirective </title>
<path fill="none" stroke="black" stroke-dasharray="5,2" d="M2843.62,-137.8C2484.42,-137.8 789.38,-137.8 789.38,-137.8 789.38,-137.8 789.38,-168.78 789.38,-168.78"/>
<polygon fill="black" stroke="black" points="785.88,-168.78 789.38,-178.78 792.88,-168.78 785.88,-168.78"/>
</g>
<!-- ToolbarScreenshareButtonDirective  -->
<g id="node51" class="node">
<title>ToolbarScreenshareButtonDirective </title>
<polygon fill="#fb8072" stroke="black" points="622.65,-214.8 401.35,-214.8 401.35,-178.8 622.65,-178.8 622.65,-214.8"/>
<text text-anchor="middle" x="512" y="-192.6" font-family="Times,serif" font-size="14.00">ToolbarScreenshareButtonDirective </text>
</g>
<!-- ApiDirectiveModule&#45;&gt;ToolbarScreenshareButtonDirective  -->
<g id="edge50" class="edge">
<title>ApiDirectiveModule&#45;&gt;ToolbarScreenshareButtonDirective </title>
<path fill="none" stroke="black" stroke-dasharray="5,2" d="M2843.74,-135.8C2459.73,-135.8 536.88,-135.8 536.88,-135.8 536.88,-135.8 536.88,-168.5 536.88,-168.5"/>
<polygon fill="black" stroke="black" points="533.38,-168.5 536.88,-178.5 540.38,-168.5 533.38,-168.5"/>
</g>
<!-- ToolbarSettingsButtonDirective  -->
<g id="node52" class="node">
<title>ToolbarSettingsButtonDirective </title>
<polygon fill="#fb8072" stroke="black" points="383.63,-214.8 184.37,-214.8 184.37,-178.8 383.63,-178.8 383.63,-214.8"/>
<text text-anchor="middle" x="284" y="-192.6" font-family="Times,serif" font-size="14.00">ToolbarSettingsButtonDirective </text>
</g>
<!-- ApiDirectiveModule&#45;&gt;ToolbarSettingsButtonDirective  -->
<g id="edge51" class="edge">
<title>ApiDirectiveModule&#45;&gt;ToolbarSettingsButtonDirective </title>
<path fill="none" stroke="black" stroke-dasharray="5,2" d="M2843.78,-134.8C2438.52,-134.8 310.38,-134.8 310.38,-134.8 310.38,-134.8 310.38,-168.53 310.38,-168.53"/>
<polygon fill="black" stroke="black" points="306.88,-168.53 310.38,-178.53 313.88,-168.53 306.88,-168.53"/>
</g>
<!-- VideoMutedDirective  -->
<g id="node53" class="node">
<title>VideoMutedDirective </title>
<polygon fill="#fb8072" stroke="black" points="166.35,-214.8 23.65,-214.8 23.65,-178.8 166.35,-178.8 166.35,-214.8"/>
<text text-anchor="middle" x="95" y="-192.6" font-family="Times,serif" font-size="14.00">VideoMutedDirective </text>
</g>
<!-- ApiDirectiveModule&#45;&gt;VideoMutedDirective  -->
<g id="edge52" class="edge">
<title>ApiDirectiveModule&#45;&gt;VideoMutedDirective </title>
<path fill="none" stroke="black" stroke-dasharray="5,2" d="M2843.52,-132.8C2420.64,-132.8 123.38,-132.8 123.38,-132.8 123.38,-132.8 123.38,-168.63 123.38,-168.63"/>
<polygon fill="black" stroke="black" points="119.88,-168.63 123.38,-178.63 126.88,-168.63 119.88,-168.63"/>
</g>
</g>
</svg>
