<?xml version="1.0" encoding="UTF-8" standalone="no"?>
<!DOCTYPE svg PUBLIC "-//W3C//DTD SVG 1.1//EN"
 "http://www.w3.org/Graphics/SVG/1.1/DTD/svg11.dtd">
<!-- Generated by graphviz version 5.0.0 (20220707.1540)
 -->
<!-- Title: dependencies Pages: 1 -->
<svg width="5897pt" height="247pt"
 viewBox="0.00 0.00 5897.00 246.80" xmlns="http://www.w3.org/2000/svg" xmlns:xlink="http://www.w3.org/1999/xlink">
<g id="graph0" class="graph" transform="scale(1 1) rotate(0) translate(4 242.8)">
<title>dependencies</title>
<polygon fill="white" stroke="transparent" points="-4,4 -4,-242.8 5893,-242.8 5893,4 -4,4"/>
<text text-anchor="middle" x="2944.5" y="-8.2" font-family="sans-serif" font-size="14.00">dependencies</text>
<g id="clust1" class="cluster">
<title>cluster_ApiDirectiveModule</title>
<polygon fill="none" stroke="black" stroke-dasharray="1,5" points="8,-32.8 8,-230.8 5881,-230.8 5881,-32.8 8,-32.8"/>
</g>
<g id="clust2" class="cluster">
<title>cluster_ApiDirectiveModule_declarations</title>
<polygon fill="none" stroke="black" points="63,-40.8 63,-92.8 5825,-92.8 5825,-40.8 63,-40.8"/>
</g>
<g id="clust31" class="cluster">
<title>cluster_ApiDirectiveModule_exports</title>
<polygon fill="none" stroke="black" points="16,-170.8 16,-222.8 5873,-222.8 5873,-170.8 16,-170.8"/>
</g>
<!-- ActivitiesPanelRecordingActivityDirective -->
<g id="node1" class="node">
<title>ActivitiesPanelRecordingActivityDirective</title>
<polygon fill="#ffffb3" stroke="black" points="5816.82,-84.8 5559.18,-84.8 5559.18,-48.8 5816.82,-48.8 5816.82,-84.8"/>
<text text-anchor="middle" x="5688" y="-62.6" font-family="Times,serif" font-size="14.00">ActivitiesPanelRecordingActivityDirective</text>
</g>
<!-- ApiDirectiveModule -->
<g id="node28" class="node">
<title>ApiDirectiveModule</title>
<polygon fill="#8dd3c7" stroke="black" points="3206.14,-149.8 3203.14,-153.8 3182.14,-153.8 3179.14,-149.8 3073.86,-149.8 3073.86,-113.8 3206.14,-113.8 3206.14,-149.8"/>
<text text-anchor="middle" x="3140" y="-127.6" font-family="Times,serif" font-size="14.00">ApiDirectiveModule</text>
</g>
<!-- ActivitiesPanelRecordingActivityDirective&#45;&gt;ApiDirectiveModule -->
<g id="edge1" class="edge">
<title>ActivitiesPanelRecordingActivityDirective&#45;&gt;ApiDirectiveModule</title>
<path fill="none" stroke="black" d="M5572.02,-84.91C5572.02,-104.14 5572.02,-131.8 5572.02,-131.8 5572.02,-131.8 3216.31,-131.8 3216.31,-131.8"/>
<polygon fill="black" stroke="black" points="3216.31,-128.3 3206.31,-131.8 3216.31,-135.3 3216.31,-128.3"/>
</g>
<!-- AdminLoginDirective -->
<g id="node2" class="node">
<title>AdminLoginDirective</title>
<polygon fill="#ffffb3" stroke="black" points="5541.41,-84.8 5400.59,-84.8 5400.59,-48.8 5541.41,-48.8 5541.41,-84.8"/>
<text text-anchor="middle" x="5471" y="-62.6" font-family="Times,serif" font-size="14.00">AdminLoginDirective</text>
</g>
<!-- AdminLoginDirective&#45;&gt;ApiDirectiveModule -->
<g id="edge2" class="edge">
<title>AdminLoginDirective&#45;&gt;ApiDirectiveModule</title>
<path fill="none" stroke="black" d="M5411.9,-85.02C5411.9,-103.63 5411.9,-129.8 5411.9,-129.8 5411.9,-129.8 3216.15,-129.8 3216.15,-129.8"/>
<polygon fill="black" stroke="black" points="3216.15,-126.3 3206.15,-129.8 3216.15,-133.3 3216.15,-126.3"/>
</g>
<!-- AdminRecordingsListDirective -->
<g id="node3" class="node">
<title>AdminRecordingsListDirective</title>
<polygon fill="#ffffb3" stroke="black" points="5383.02,-84.8 5190.98,-84.8 5190.98,-48.8 5383.02,-48.8 5383.02,-84.8"/>
<text text-anchor="middle" x="5287" y="-62.6" font-family="Times,serif" font-size="14.00">AdminRecordingsListDirective</text>
</g>
<!-- AdminRecordingsListDirective&#45;&gt;ApiDirectiveModule -->
<g id="edge3" class="edge">
<title>AdminRecordingsListDirective&#45;&gt;ApiDirectiveModule</title>
<path fill="none" stroke="black" d="M5199.65,-85.07C5199.65,-103.36 5199.65,-128.8 5199.65,-128.8 5199.65,-128.8 3216.2,-128.8 3216.2,-128.8"/>
<polygon fill="black" stroke="black" points="3216.2,-125.3 3206.2,-128.8 3216.2,-132.3 3216.2,-125.3"/>
</g>
<!-- AudioMutedDirective -->
<g id="node4" class="node">
<title>AudioMutedDirective</title>
<polygon fill="#ffffb3" stroke="black" points="5172.64,-84.8 5033.36,-84.8 5033.36,-48.8 5172.64,-48.8 5172.64,-84.8"/>
<text text-anchor="middle" x="5103" y="-62.6" font-family="Times,serif" font-size="14.00">AudioMutedDirective</text>
</g>
<!-- AudioMutedDirective&#45;&gt;ApiDirectiveModule -->
<g id="edge4" class="edge">
<title>AudioMutedDirective&#45;&gt;ApiDirectiveModule</title>
<path fill="none" stroke="black" d="M5040.12,-85.1C5040.12,-103.07 5040.12,-127.8 5040.12,-127.8 5040.12,-127.8 3216.24,-127.8 3216.24,-127.8"/>
<polygon fill="black" stroke="black" points="3216.24,-124.3 3206.24,-127.8 3216.24,-131.3 3216.24,-124.3"/>
</g>
<!-- CaptionsLangDirective -->
<g id="node5" class="node">
<title>CaptionsLangDirective</title>
<polygon fill="#ffffb3" stroke="black" points="5015.13,-84.8 4868.87,-84.8 4868.87,-48.8 5015.13,-48.8 5015.13,-84.8"/>
<text text-anchor="middle" x="4942" y="-62.6" font-family="Times,serif" font-size="14.00">CaptionsLangDirective</text>
</g>
<!-- CaptionsLangDirective&#45;&gt;ApiDirectiveModule -->
<g id="edge5" class="edge">
<title>CaptionsLangDirective&#45;&gt;ApiDirectiveModule</title>
<path fill="none" stroke="black" d="M4873.96,-84.82C4873.96,-102.17 4873.96,-125.8 4873.96,-125.8 4873.96,-125.8 3216.38,-125.8 3216.38,-125.8"/>
<polygon fill="black" stroke="black" points="3216.38,-122.3 3206.38,-125.8 3216.38,-129.3 3216.38,-122.3"/>
</g>
<!-- CaptionsLangOptionsDirective -->
<g id="node6" class="node">
<title>CaptionsLangOptionsDirective</title>
<polygon fill="#ffffb3" stroke="black" points="4850.47,-84.8 4659.53,-84.8 4659.53,-48.8 4850.47,-48.8 4850.47,-84.8"/>
<text text-anchor="middle" x="4755" y="-62.6" font-family="Times,serif" font-size="14.00">CaptionsLangOptionsDirective</text>
</g>
<!-- CaptionsLangOptionsDirective&#45;&gt;ApiDirectiveModule -->
<g id="edge6" class="edge">
<title>CaptionsLangOptionsDirective&#45;&gt;ApiDirectiveModule</title>
<path fill="none" stroke="black" d="M4663.35,-84.83C4663.35,-101.86 4663.35,-124.8 4663.35,-124.8 4663.35,-124.8 3216.44,-124.8 3216.44,-124.8"/>
<polygon fill="black" stroke="black" points="3216.44,-121.3 3206.44,-124.8 3216.44,-128.3 3216.44,-121.3"/>
</g>
<!-- LangDirective -->
<g id="node7" class="node">
<title>LangDirective</title>
<polygon fill="#ffffb3" stroke="black" points="4641.35,-84.8 4544.65,-84.8 4544.65,-48.8 4641.35,-48.8 4641.35,-84.8"/>
<text text-anchor="middle" x="4593" y="-62.6" font-family="Times,serif" font-size="14.00">LangDirective</text>
</g>
<!-- LangDirective&#45;&gt;ApiDirectiveModule -->
<g id="edge7" class="edge">
<title>LangDirective&#45;&gt;ApiDirectiveModule</title>
<path fill="none" stroke="black" d="M4557.86,-84.84C4557.86,-101.53 4557.86,-123.8 4557.86,-123.8 4557.86,-123.8 3216.48,-123.8 3216.48,-123.8"/>
<polygon fill="black" stroke="black" points="3216.48,-120.3 3206.48,-123.8 3216.48,-127.3 3216.48,-120.3"/>
</g>
<!-- MinimalDirective -->
<g id="node8" class="node">
<title>MinimalDirective</title>
<polygon fill="#ffffb3" stroke="black" points="4526.3,-84.8 4409.7,-84.8 4409.7,-48.8 4526.3,-48.8 4526.3,-84.8"/>
<text text-anchor="middle" x="4468" y="-62.6" font-family="Times,serif" font-size="14.00">MinimalDirective</text>
</g>
<!-- MinimalDirective&#45;&gt;ApiDirectiveModule -->
<g id="edge8" class="edge">
<title>MinimalDirective&#45;&gt;ApiDirectiveModule</title>
<path fill="none" stroke="black" d="M4419.96,-84.81C4419.96,-100.85 4419.96,-121.8 4419.96,-121.8 4419.96,-121.8 3216.57,-121.8 3216.57,-121.8"/>
<polygon fill="black" stroke="black" points="3216.57,-118.3 3206.57,-121.8 3216.57,-125.3 3216.57,-118.3"/>
</g>
<!-- ParticipantNameDirective -->
<g id="node9" class="node">
<title>ParticipantNameDirective</title>
<polygon fill="#ffffb3" stroke="black" points="4392.16,-84.8 4229.84,-84.8 4229.84,-48.8 4392.16,-48.8 4392.16,-84.8"/>
<text text-anchor="middle" x="4311" y="-62.6" font-family="Times,serif" font-size="14.00">ParticipantNameDirective</text>
</g>
<!-- ParticipantNameDirective&#45;&gt;ApiDirectiveModule -->
<g id="edge9" class="edge">
<title>ParticipantNameDirective&#45;&gt;ApiDirectiveModule</title>
<path fill="none" stroke="black" d="M4237.55,-85.08C4237.55,-100.75 4237.55,-120.8 4237.55,-120.8 4237.55,-120.8 3216.18,-120.8 3216.18,-120.8"/>
<polygon fill="black" stroke="black" points="3216.18,-117.3 3206.18,-120.8 3216.18,-124.3 3216.18,-117.3"/>
</g>
<!-- ParticipantPanelItemMuteButtonDirective -->
<g id="node10" class="node">
<title>ParticipantPanelItemMuteButtonDirective</title>
<polygon fill="#ffffb3" stroke="black" points="4211.66,-84.8 3958.34,-84.8 3958.34,-48.8 4211.66,-48.8 4211.66,-84.8"/>
<text text-anchor="middle" x="4085" y="-62.6" font-family="Times,serif" font-size="14.00">ParticipantPanelItemMuteButtonDirective</text>
</g>
<!-- ParticipantPanelItemMuteButtonDirective&#45;&gt;ApiDirectiveModule -->
<g id="edge10" class="edge">
<title>ParticipantPanelItemMuteButtonDirective&#45;&gt;ApiDirectiveModule</title>
<path fill="none" stroke="black" d="M3964.55,-85.04C3964.55,-100.37 3964.55,-119.8 3964.55,-119.8 3964.55,-119.8 3216.43,-119.8 3216.43,-119.8"/>
<polygon fill="black" stroke="black" points="3216.43,-116.3 3206.43,-119.8 3216.43,-123.3 3216.43,-116.3"/>
</g>
<!-- PrejoinDirective -->
<g id="node11" class="node">
<title>PrejoinDirective</title>
<polygon fill="#ffffb3" stroke="black" points="3940.03,-84.8 3831.97,-84.8 3831.97,-48.8 3940.03,-48.8 3940.03,-84.8"/>
<text text-anchor="middle" x="3886" y="-62.6" font-family="Times,serif" font-size="14.00">PrejoinDirective</text>
</g>
<!-- PrejoinDirective&#45;&gt;ApiDirectiveModule -->
<g id="edge11" class="edge">
<title>PrejoinDirective&#45;&gt;ApiDirectiveModule</title>
<path fill="none" stroke="black" d="M3836.36,-84.92C3836.36,-99.58 3836.36,-117.8 3836.36,-117.8 3836.36,-117.8 3216.14,-117.8 3216.14,-117.8"/>
<polygon fill="black" stroke="black" points="3216.14,-114.3 3206.14,-117.8 3216.14,-121.3 3216.14,-114.3"/>
</g>
<!-- RecordingActivityRecordingErrorDirective -->
<g id="node12" class="node">
<title>RecordingActivityRecordingErrorDirective</title>
<polygon fill="#ffffb3" stroke="black" points="3814.14,-84.8 3553.86,-84.8 3553.86,-48.8 3814.14,-48.8 3814.14,-84.8"/>
<text text-anchor="middle" x="3684" y="-62.6" font-family="Times,serif" font-size="14.00">RecordingActivityRecordingErrorDirective</text>
</g>
<!-- RecordingActivityRecordingErrorDirective&#45;&gt;ApiDirectiveModule -->
<g id="edge12" class="edge">
<title>RecordingActivityRecordingErrorDirective&#45;&gt;ApiDirectiveModule</title>
<path fill="none" stroke="black" d="M3729.11,-84.85C3729.11,-99.17 3729.11,-116.8 3729.11,-116.8 3729.11,-116.8 3216.15,-116.8 3216.15,-116.8"/>
<polygon fill="black" stroke="black" points="3216.15,-113.3 3206.15,-116.8 3216.15,-120.3 3216.15,-113.3"/>
</g>
<!-- RecordingActivityRecordingsListDirective -->
<g id="node13" class="node">
<title>RecordingActivityRecordingsListDirective</title>
<polygon fill="#ffffb3" stroke="black" points="3535.83,-84.8 3278.17,-84.8 3278.17,-48.8 3535.83,-48.8 3535.83,-84.8"/>
<text text-anchor="middle" x="3407" y="-62.6" font-family="Times,serif" font-size="14.00">RecordingActivityRecordingsListDirective</text>
</g>
<!-- RecordingActivityRecordingsListDirective&#45;&gt;ApiDirectiveModule -->
<g id="edge13" class="edge">
<title>RecordingActivityRecordingsListDirective&#45;&gt;ApiDirectiveModule</title>
<path fill="none" stroke="black" d="M3450.72,-85.05C3450.72,-98.98 3450.72,-115.8 3450.72,-115.8 3450.72,-115.8 3216.28,-115.8 3216.28,-115.8"/>
<polygon fill="black" stroke="black" points="3216.28,-112.3 3206.28,-115.8 3216.28,-119.3 3216.28,-112.3"/>
</g>
<!-- StreamDisplayAudioDetectionDirective -->
<g id="node14" class="node">
<title>StreamDisplayAudioDetectionDirective</title>
<polygon fill="#ffffb3" stroke="black" points="3260.21,-84.8 3019.79,-84.8 3019.79,-48.8 3260.21,-48.8 3260.21,-84.8"/>
<text text-anchor="middle" x="3140" y="-62.6" font-family="Times,serif" font-size="14.00">StreamDisplayAudioDetectionDirective</text>
</g>
<!-- StreamDisplayAudioDetectionDirective&#45;&gt;ApiDirectiveModule -->
<g id="edge14" class="edge">
<title>StreamDisplayAudioDetectionDirective&#45;&gt;ApiDirectiveModule</title>
<path fill="none" stroke="black" d="M3140,-84.91C3140,-84.91 3140,-103.79 3140,-103.79"/>
<polygon fill="black" stroke="black" points="3136.5,-103.79 3140,-113.79 3143.5,-103.79 3136.5,-103.79"/>
</g>
<!-- StreamDisplayParticipantNameDirective -->
<g id="node15" class="node">
<title>StreamDisplayParticipantNameDirective</title>
<polygon fill="#ffffb3" stroke="black" points="3001.87,-84.8 2756.13,-84.8 2756.13,-48.8 3001.87,-48.8 3001.87,-84.8"/>
<text text-anchor="middle" x="2879" y="-62.6" font-family="Times,serif" font-size="14.00">StreamDisplayParticipantNameDirective</text>
</g>
<!-- StreamDisplayParticipantNameDirective&#45;&gt;ApiDirectiveModule -->
<g id="edge15" class="edge">
<title>StreamDisplayParticipantNameDirective&#45;&gt;ApiDirectiveModule</title>
<path fill="none" stroke="black" d="M2918.39,-85.05C2918.39,-98.98 2918.39,-115.8 2918.39,-115.8 2918.39,-115.8 3063.81,-115.8 3063.81,-115.8"/>
<polygon fill="black" stroke="black" points="3063.81,-119.3 3073.81,-115.8 3063.81,-112.3 3063.81,-119.3"/>
</g>
<!-- StreamSettingsButtonDirective -->
<g id="node16" class="node">
<title>StreamSettingsButtonDirective</title>
<polygon fill="#ffffb3" stroke="black" points="2738.47,-84.8 2547.53,-84.8 2547.53,-48.8 2738.47,-48.8 2738.47,-84.8"/>
<text text-anchor="middle" x="2643" y="-62.6" font-family="Times,serif" font-size="14.00">StreamSettingsButtonDirective</text>
</g>
<!-- StreamSettingsButtonDirective&#45;&gt;ApiDirectiveModule -->
<g id="edge16" class="edge">
<title>StreamSettingsButtonDirective&#45;&gt;ApiDirectiveModule</title>
<path fill="none" stroke="black" d="M2670.66,-84.85C2670.66,-99.17 2670.66,-116.8 2670.66,-116.8 2670.66,-116.8 3063.75,-116.8 3063.75,-116.8"/>
<polygon fill="black" stroke="black" points="3063.75,-120.3 3073.75,-116.8 3063.75,-113.3 3063.75,-120.3"/>
</g>
<!-- ToolbarBackgroundEffectsButtonDirective -->
<g id="node17" class="node">
<title>ToolbarBackgroundEffectsButtonDirective</title>
<polygon fill="#ffffb3" stroke="black" points="2529.09,-84.8 2270.91,-84.8 2270.91,-48.8 2529.09,-48.8 2529.09,-84.8"/>
<text text-anchor="middle" x="2400" y="-62.6" font-family="Times,serif" font-size="14.00">ToolbarBackgroundEffectsButtonDirective</text>
</g>
<!-- ToolbarBackgroundEffectsButtonDirective&#45;&gt;ApiDirectiveModule -->
<g id="edge17" class="edge">
<title>ToolbarBackgroundEffectsButtonDirective&#45;&gt;ApiDirectiveModule</title>
<path fill="none" stroke="black" d="M2524.67,-84.92C2524.67,-99.58 2524.67,-117.8 2524.67,-117.8 2524.67,-117.8 3063.86,-117.8 3063.86,-117.8"/>
<polygon fill="black" stroke="black" points="3063.86,-121.3 3073.86,-117.8 3063.86,-114.3 3063.86,-121.3"/>
</g>
<!-- ToolbarCaptionsButtonDirective -->
<g id="node18" class="node">
<title>ToolbarCaptionsButtonDirective</title>
<polygon fill="#ffffb3" stroke="black" points="2253.3,-84.8 2052.7,-84.8 2052.7,-48.8 2253.3,-48.8 2253.3,-84.8"/>
<text text-anchor="middle" x="2153" y="-62.6" font-family="Times,serif" font-size="14.00">ToolbarCaptionsButtonDirective</text>
</g>
<!-- ToolbarCaptionsButtonDirective&#45;&gt;ApiDirectiveModule -->
<g id="edge18" class="edge">
<title>ToolbarCaptionsButtonDirective&#45;&gt;ApiDirectiveModule</title>
<path fill="none" stroke="black" d="M2246.52,-85.04C2246.52,-100.37 2246.52,-119.8 2246.52,-119.8 2246.52,-119.8 3063.57,-119.8 3063.57,-119.8"/>
<polygon fill="black" stroke="black" points="3063.57,-123.3 3073.57,-119.8 3063.57,-116.3 3063.57,-123.3"/>
</g>
<!-- ToolbarChatPanelButtonDirective -->
<g id="node19" class="node">
<title>ToolbarChatPanelButtonDirective</title>
<polygon fill="#ffffb3" stroke="black" points="2035.06,-84.8 1826.94,-84.8 1826.94,-48.8 2035.06,-48.8 2035.06,-84.8"/>
<text text-anchor="middle" x="1931" y="-62.6" font-family="Times,serif" font-size="14.00">ToolbarChatPanelButtonDirective</text>
</g>
<!-- ToolbarChatPanelButtonDirective&#45;&gt;ApiDirectiveModule -->
<g id="edge19" class="edge">
<title>ToolbarChatPanelButtonDirective&#45;&gt;ApiDirectiveModule</title>
<path fill="none" stroke="black" d="M2026.41,-85.08C2026.41,-100.75 2026.41,-120.8 2026.41,-120.8 2026.41,-120.8 3063.67,-120.8 3063.67,-120.8"/>
<polygon fill="black" stroke="black" points="3063.67,-124.3 3073.67,-120.8 3063.67,-117.3 3063.67,-124.3"/>
</g>
<!-- ToolbarDisplayLogoDirective -->
<g id="node20" class="node">
<title>ToolbarDisplayLogoDirective</title>
<polygon fill="#ffffb3" stroke="black" points="1808.5,-84.8 1623.5,-84.8 1623.5,-48.8 1808.5,-48.8 1808.5,-84.8"/>
<text text-anchor="middle" x="1716" y="-62.6" font-family="Times,serif" font-size="14.00">ToolbarDisplayLogoDirective</text>
</g>
<!-- ToolbarDisplayLogoDirective&#45;&gt;ApiDirectiveModule -->
<g id="edge20" class="edge">
<title>ToolbarDisplayLogoDirective&#45;&gt;ApiDirectiveModule</title>
<path fill="none" stroke="black" d="M1797.36,-84.81C1797.36,-100.85 1797.36,-121.8 1797.36,-121.8 1797.36,-121.8 3063.42,-121.8 3063.42,-121.8"/>
<polygon fill="black" stroke="black" points="3063.42,-125.3 3073.42,-121.8 3063.42,-118.3 3063.42,-125.3"/>
</g>
<!-- ToolbarDisplaySessionNameDirective -->
<g id="node21" class="node">
<title>ToolbarDisplaySessionNameDirective</title>
<polygon fill="#ffffb3" stroke="black" points="1605.17,-84.8 1372.83,-84.8 1372.83,-48.8 1605.17,-48.8 1605.17,-84.8"/>
<text text-anchor="middle" x="1489" y="-62.6" font-family="Times,serif" font-size="14.00">ToolbarDisplaySessionNameDirective</text>
</g>
<!-- ToolbarDisplaySessionNameDirective&#45;&gt;ApiDirectiveModule -->
<g id="edge21" class="edge">
<title>ToolbarDisplaySessionNameDirective&#45;&gt;ApiDirectiveModule</title>
<path fill="none" stroke="black" d="M1590.67,-84.84C1590.67,-101.53 1590.67,-123.8 1590.67,-123.8 1590.67,-123.8 3063.43,-123.8 3063.43,-123.8"/>
<polygon fill="black" stroke="black" points="3063.43,-127.3 3073.43,-123.8 3063.43,-120.3 3063.43,-127.3"/>
</g>
<!-- ToolbarFullscreenButtonDirective -->
<g id="node22" class="node">
<title>ToolbarFullscreenButtonDirective</title>
<polygon fill="#ffffb3" stroke="black" points="1354.34,-84.8 1145.66,-84.8 1145.66,-48.8 1354.34,-48.8 1354.34,-84.8"/>
<text text-anchor="middle" x="1250" y="-62.6" font-family="Times,serif" font-size="14.00">ToolbarFullscreenButtonDirective</text>
</g>
<!-- ToolbarFullscreenButtonDirective&#45;&gt;ApiDirectiveModule -->
<g id="edge22" class="edge">
<title>ToolbarFullscreenButtonDirective&#45;&gt;ApiDirectiveModule</title>
<path fill="none" stroke="black" d="M1350.29,-84.83C1350.29,-101.86 1350.29,-124.8 1350.29,-124.8 1350.29,-124.8 3063.65,-124.8 3063.65,-124.8"/>
<polygon fill="black" stroke="black" points="3063.65,-128.3 3073.65,-124.8 3063.65,-121.3 3063.65,-128.3"/>
</g>
<!-- ToolbarLeaveButtonDirective -->
<g id="node23" class="node">
<title>ToolbarLeaveButtonDirective</title>
<polygon fill="#ffffb3" stroke="black" points="1127.21,-84.8 942.79,-84.8 942.79,-48.8 1127.21,-48.8 1127.21,-84.8"/>
<text text-anchor="middle" x="1035" y="-62.6" font-family="Times,serif" font-size="14.00">ToolbarLeaveButtonDirective</text>
</g>
<!-- ToolbarLeaveButtonDirective&#45;&gt;ApiDirectiveModule -->
<g id="edge23" class="edge">
<title>ToolbarLeaveButtonDirective&#45;&gt;ApiDirectiveModule</title>
<path fill="none" stroke="black" d="M1121.59,-84.82C1121.59,-102.17 1121.59,-125.8 1121.59,-125.8 1121.59,-125.8 3063.71,-125.8 3063.71,-125.8"/>
<polygon fill="black" stroke="black" points="3063.71,-129.3 3073.71,-125.8 3063.71,-122.3 3063.71,-129.3"/>
</g>
<!-- ToolbarParticipantsPanelButtonDirective -->
<g id="node24" class="node">
<title>ToolbarParticipantsPanelButtonDirective</title>
<polygon fill="#ffffb3" stroke="black" points="924.72,-84.8 677.28,-84.8 677.28,-48.8 924.72,-48.8 924.72,-84.8"/>
<text text-anchor="middle" x="801" y="-62.6" font-family="Times,serif" font-size="14.00">ToolbarParticipantsPanelButtonDirective</text>
</g>
<!-- ToolbarParticipantsPanelButtonDirective&#45;&gt;ApiDirectiveModule -->
<g id="edge24" class="edge">
<title>ToolbarParticipantsPanelButtonDirective&#45;&gt;ApiDirectiveModule</title>
<path fill="none" stroke="black" d="M917.38,-85.1C917.38,-103.07 917.38,-127.8 917.38,-127.8 917.38,-127.8 3063.78,-127.8 3063.78,-127.8"/>
<polygon fill="black" stroke="black" points="3063.78,-131.3 3073.78,-127.8 3063.78,-124.3 3063.78,-131.3"/>
</g>
<!-- ToolbarScreenshareButtonDirective -->
<g id="node25" class="node">
<title>ToolbarScreenshareButtonDirective</title>
<polygon fill="#ffffb3" stroke="black" points="659.15,-84.8 440.85,-84.8 440.85,-48.8 659.15,-48.8 659.15,-84.8"/>
<text text-anchor="middle" x="550" y="-62.6" font-family="Times,serif" font-size="14.00">ToolbarScreenshareButtonDirective</text>
</g>
<!-- ToolbarScreenshareButtonDirective&#45;&gt;ApiDirectiveModule -->
<g id="edge25" class="edge">
<title>ToolbarScreenshareButtonDirective&#45;&gt;ApiDirectiveModule</title>
<path fill="none" stroke="black" d="M649.73,-85.07C649.73,-103.36 649.73,-128.8 649.73,-128.8 649.73,-128.8 3063.71,-128.8 3063.71,-128.8"/>
<polygon fill="black" stroke="black" points="3063.71,-132.3 3073.71,-128.8 3063.71,-125.3 3063.71,-132.3"/>
</g>
<!-- ToolbarSettingsButtonDirective -->
<g id="node26" class="node">
<title>ToolbarSettingsButtonDirective</title>
<polygon fill="#ffffb3" stroke="black" points="422.64,-84.8 227.36,-84.8 227.36,-48.8 422.64,-48.8 422.64,-84.8"/>
<text text-anchor="middle" x="325" y="-62.6" font-family="Times,serif" font-size="14.00">ToolbarSettingsButtonDirective</text>
</g>
<!-- ToolbarSettingsButtonDirective&#45;&gt;ApiDirectiveModule -->
<g id="edge26" class="edge">
<title>ToolbarSettingsButtonDirective&#45;&gt;ApiDirectiveModule</title>
<path fill="none" stroke="black" d="M412,-85.02C412,-103.63 412,-129.8 412,-129.8 412,-129.8 3063.58,-129.8 3063.58,-129.8"/>
<polygon fill="black" stroke="black" points="3063.58,-133.3 3073.58,-129.8 3063.58,-126.3 3063.58,-133.3"/>
</g>
<!-- VideoMutedDirective -->
<g id="node27" class="node">
<title>VideoMutedDirective</title>
<polygon fill="#ffffb3" stroke="black" points="209.35,-84.8 70.65,-84.8 70.65,-48.8 209.35,-48.8 209.35,-84.8"/>
<text text-anchor="middle" x="140" y="-62.6" font-family="Times,serif" font-size="14.00">VideoMutedDirective</text>
</g>
<!-- VideoMutedDirective&#45;&gt;ApiDirectiveModule -->
<g id="edge27" class="edge">
<title>VideoMutedDirective&#45;&gt;ApiDirectiveModule</title>
<path fill="none" stroke="black" d="M196.93,-84.91C196.93,-104.14 196.93,-131.8 196.93,-131.8 196.93,-131.8 3063.7,-131.8 3063.7,-131.8"/>
<polygon fill="black" stroke="black" points="3063.7,-135.3 3073.7,-131.8 3063.7,-128.3 3063.7,-135.3"/>
</g>
<!-- ActivitiesPanelRecordingActivityDirective  -->
<g id="node29" class="node">
<title>ActivitiesPanelRecordingActivityDirective </title>
<polygon fill="#fb8072" stroke="black" points="5864.82,-214.8 5603.18,-214.8 5603.18,-178.8 5864.82,-178.8 5864.82,-214.8"/>
<text text-anchor="middle" x="5734" y="-192.6" font-family="Times,serif" font-size="14.00">ActivitiesPanelRecordingActivityDirective </text>
</g>
<!-- ApiDirectiveModule&#45;&gt;ActivitiesPanelRecordingActivityDirective  -->
<g id="edge28" class="edge">
<title>ApiDirectiveModule&#45;&gt;ActivitiesPanelRecordingActivityDirective </title>
<path fill="none" stroke="black" stroke-dasharray="5,2" d="M3206.44,-132.8C3609.53,-132.8 5710.12,-132.8 5710.12,-132.8 5710.12,-132.8 5710.12,-168.63 5710.12,-168.63"/>
<polygon fill="black" stroke="black" points="5706.63,-168.63 5710.12,-178.63 5713.63,-168.63 5706.63,-168.63"/>
</g>
<!-- AdminLoginDirective  -->
<g id="node30" class="node">
<title>AdminLoginDirective </title>
<polygon fill="#fb8072" stroke="black" points="5584.91,-214.8 5441.09,-214.8 5441.09,-178.8 5584.91,-178.8 5584.91,-214.8"/>
<text text-anchor="middle" x="5513" y="-192.6" font-family="Times,serif" font-size="14.00">AdminLoginDirective </text>
</g>
<!-- ApiDirectiveModule&#45;&gt;AdminLoginDirective  -->
<g id="edge29" class="edge">
<title>ApiDirectiveModule&#45;&gt;AdminLoginDirective </title>
<path fill="none" stroke="black" stroke-dasharray="5,2" d="M3206.27,-133.8C3588.16,-133.8 5491.12,-133.8 5491.12,-133.8 5491.12,-133.8 5491.12,-168.58 5491.12,-168.58"/>
<polygon fill="black" stroke="black" points="5487.63,-168.58 5491.12,-178.58 5494.63,-168.58 5487.63,-168.58"/>
</g>
<!-- AdminRecordingsListDirective  -->
<g id="node31" class="node">
<title>AdminRecordingsListDirective </title>
<polygon fill="#fb8072" stroke="black" points="5423.02,-214.8 5226.98,-214.8 5226.98,-178.8 5423.02,-178.8 5423.02,-214.8"/>
<text text-anchor="middle" x="5325" y="-192.6" font-family="Times,serif" font-size="14.00">AdminRecordingsListDirective </text>
</g>
<!-- ApiDirectiveModule&#45;&gt;AdminRecordingsListDirective  -->
<g id="edge30" class="edge">
<title>ApiDirectiveModule&#45;&gt;AdminRecordingsListDirective </title>
<path fill="none" stroke="black" stroke-dasharray="5,2" d="M3206.28,-135.8C3569.78,-135.8 5305.12,-135.8 5305.12,-135.8 5305.12,-135.8 5305.12,-168.5 5305.12,-168.5"/>
<polygon fill="black" stroke="black" points="5301.63,-168.5 5305.12,-178.5 5308.63,-168.5 5301.63,-168.5"/>
</g>
<!-- AudioMutedDirective  -->
<g id="node32" class="node">
<title>AudioMutedDirective </title>
<polygon fill="#fb8072" stroke="black" points="5208.63,-214.8 5065.37,-214.8 5065.37,-178.8 5208.63,-178.8 5208.63,-214.8"/>
<text text-anchor="middle" x="5137" y="-192.6" font-family="Times,serif" font-size="14.00">AudioMutedDirective </text>
</g>
<!-- ApiDirectiveModule&#45;&gt;AudioMutedDirective  -->
<g id="edge31" class="edge">
<title>ApiDirectiveModule&#45;&gt;AudioMutedDirective </title>
<path fill="none" stroke="black" stroke-dasharray="5,2" d="M3206.41,-136.8C3550.98,-136.8 5119.12,-136.8 5119.12,-136.8 5119.12,-136.8 5119.12,-168.8 5119.12,-168.8"/>
<polygon fill="black" stroke="black" points="5115.63,-168.8 5119.12,-178.8 5122.63,-168.8 5115.63,-168.8"/>
</g>
<!-- CaptionsLangDirective  -->
<g id="node33" class="node">
<title>CaptionsLangDirective </title>
<polygon fill="#fb8072" stroke="black" points="5047.13,-214.8 4896.87,-214.8 4896.87,-178.8 5047.13,-178.8 5047.13,-214.8"/>
<text text-anchor="middle" x="4972" y="-192.6" font-family="Times,serif" font-size="14.00">CaptionsLangDirective </text>
</g>
<!-- ApiDirectiveModule&#45;&gt;CaptionsLangDirective  -->
<g id="edge32" class="edge">
<title>ApiDirectiveModule&#45;&gt;CaptionsLangDirective </title>
<path fill="none" stroke="black" stroke-dasharray="5,2" d="M3206.25,-137.8C3532.87,-137.8 4956.12,-137.8 4956.12,-137.8 4956.12,-137.8 4956.12,-168.78 4956.12,-168.78"/>
<polygon fill="black" stroke="black" points="4952.63,-168.78 4956.12,-178.78 4959.63,-168.78 4952.63,-168.78"/>
</g>
<!-- CaptionsLangOptionsDirective  -->
<g id="node34" class="node">
<title>CaptionsLangOptionsDirective </title>
<polygon fill="#fb8072" stroke="black" points="4879.47,-214.8 4684.53,-214.8 4684.53,-178.8 4879.47,-178.8 4879.47,-214.8"/>
<text text-anchor="middle" x="4782" y="-192.6" font-family="Times,serif" font-size="14.00">CaptionsLangOptionsDirective </text>
</g>
<!-- ApiDirectiveModule&#45;&gt;CaptionsLangOptionsDirective  -->
<g id="edge33" class="edge">
<title>ApiDirectiveModule&#45;&gt;CaptionsLangOptionsDirective </title>
<path fill="none" stroke="black" stroke-dasharray="5,2" d="M3206.33,-139.8C3511.72,-139.8 4767.62,-139.8 4767.62,-139.8 4767.62,-139.8 4767.62,-168.76 4767.62,-168.76"/>
<polygon fill="black" stroke="black" points="4764.13,-168.76 4767.62,-178.76 4771.13,-168.76 4764.13,-168.76"/>
</g>
<!-- LangDirective  -->
<g id="node35" class="node">
<title>LangDirective </title>
<polygon fill="#fb8072" stroke="black" points="4667.35,-214.8 4566.65,-214.8 4566.65,-178.8 4667.35,-178.8 4667.35,-214.8"/>
<text text-anchor="middle" x="4617" y="-192.6" font-family="Times,serif" font-size="14.00">LangDirective </text>
</g>
<!-- ApiDirectiveModule&#45;&gt;LangDirective  -->
<g id="edge34" class="edge">
<title>ApiDirectiveModule&#45;&gt;LangDirective </title>
<path fill="none" stroke="black" stroke-dasharray="5,2" d="M3206.23,-140.8C3491.89,-140.8 4604.12,-140.8 4604.12,-140.8 4604.12,-140.8 4604.12,-168.77 4604.12,-168.77"/>
<polygon fill="black" stroke="black" points="4600.63,-168.77 4604.12,-178.77 4607.63,-168.77 4600.63,-168.77"/>
</g>
<!-- MinimalDirective  -->
<g id="node36" class="node">
<title>MinimalDirective </title>
<polygon fill="#fb8072" stroke="black" points="4548.8,-214.8 4429.2,-214.8 4429.2,-178.8 4548.8,-178.8 4548.8,-214.8"/>
<text text-anchor="middle" x="4489" y="-192.6" font-family="Times,serif" font-size="14.00">MinimalDirective </text>
</g>
<!-- ApiDirectiveModule&#45;&gt;MinimalDirective  -->
<g id="edge35" class="edge">
<title>ApiDirectiveModule&#45;&gt;MinimalDirective </title>
<path fill="none" stroke="black" stroke-dasharray="5,2" d="M3206.33,-141.8C3476.24,-141.8 4477.62,-141.8 4477.62,-141.8 4477.62,-141.8 4477.62,-168.79 4477.62,-168.79"/>
<polygon fill="black" stroke="black" points="4474.13,-168.79 4477.62,-178.79 4481.13,-168.79 4474.13,-168.79"/>
</g>
<!-- ParticipantNameDirective  -->
<g id="node37" class="node">
<title>ParticipantNameDirective </title>
<polygon fill="#fb8072" stroke="black" points="4410.66,-214.8 4245.34,-214.8 4245.34,-178.8 4410.66,-178.8 4410.66,-214.8"/>
<text text-anchor="middle" x="4328" y="-192.6" font-family="Times,serif" font-size="14.00">ParticipantNameDirective </text>
</g>
<!-- ApiDirectiveModule&#45;&gt;ParticipantNameDirective  -->
<g id="edge36" class="edge">
<title>ApiDirectiveModule&#45;&gt;ParticipantNameDirective </title>
<path fill="none" stroke="black" stroke-dasharray="5,2" d="M3206.32,-143.8C3455.09,-143.8 4318.62,-143.8 4318.62,-143.8 4318.62,-143.8 4318.62,-168.56 4318.62,-168.56"/>
<polygon fill="black" stroke="black" points="4315.13,-168.56 4318.62,-178.56 4322.13,-168.56 4315.13,-168.56"/>
</g>
<!-- ParticipantPanelItemMuteButtonDirective  -->
<g id="node38" class="node">
<title>ParticipantPanelItemMuteButtonDirective </title>
<polygon fill="#fb8072" stroke="black" points="4227.16,-214.8 3970.84,-214.8 3970.84,-178.8 4227.16,-178.8 4227.16,-214.8"/>
<text text-anchor="middle" x="4099" y="-192.6" font-family="Times,serif" font-size="14.00">ParticipantPanelItemMuteButtonDirective </text>
</g>
<!-- ApiDirectiveModule&#45;&gt;ParticipantPanelItemMuteButtonDirective  -->
<g id="edge37" class="edge">
<title>ApiDirectiveModule&#45;&gt;ParticipantPanelItemMuteButtonDirective </title>
<path fill="none" stroke="black" stroke-dasharray="5,2" d="M3206.5,-144.8C3422.6,-144.8 4091.12,-144.8 4091.12,-144.8 4091.12,-144.8 4091.12,-168.61 4091.12,-168.61"/>
<polygon fill="black" stroke="black" points="4087.63,-168.61 4091.12,-178.61 4094.63,-168.61 4087.63,-168.61"/>
</g>
<!-- PrejoinDirective  -->
<g id="node39" class="node">
<title>PrejoinDirective </title>
<polygon fill="#fb8072" stroke="black" points="3953.02,-214.8 3840.98,-214.8 3840.98,-178.8 3953.02,-178.8 3953.02,-214.8"/>
<text text-anchor="middle" x="3897" y="-192.6" font-family="Times,serif" font-size="14.00">PrejoinDirective </text>
</g>
<!-- ApiDirectiveModule&#45;&gt;PrejoinDirective  -->
<g id="edge38" class="edge">
<title>ApiDirectiveModule&#45;&gt;PrejoinDirective </title>
<path fill="none" stroke="black" stroke-dasharray="5,2" d="M3206.28,-145.8C3389.72,-145.8 3890.62,-145.8 3890.62,-145.8 3890.62,-145.8 3890.62,-168.68 3890.62,-168.68"/>
<polygon fill="black" stroke="black" points="3887.13,-168.68 3890.62,-178.68 3894.13,-168.68 3887.13,-168.68"/>
</g>
<!-- RecordingActivityRecordingErrorDirective  -->
<g id="node40" class="node">
<title>RecordingActivityRecordingErrorDirective </title>
<polygon fill="#fb8072" stroke="black" points="3822.64,-214.8 3559.36,-214.8 3559.36,-178.8 3822.64,-178.8 3822.64,-214.8"/>
<text text-anchor="middle" x="3691" y="-192.6" font-family="Times,serif" font-size="14.00">RecordingActivityRecordingErrorDirective </text>
</g>
<!-- ApiDirectiveModule&#45;&gt;RecordingActivityRecordingErrorDirective  -->
<g id="edge39" class="edge">
<title>ApiDirectiveModule&#45;&gt;RecordingActivityRecordingErrorDirective </title>
<path fill="none" stroke="black" stroke-dasharray="5,2" d="M3206.17,-147.8C3342.94,-147.8 3644.14,-147.8 3644.14,-147.8 3644.14,-147.8 3644.14,-168.55 3644.14,-168.55"/>
<polygon fill="black" stroke="black" points="3640.64,-168.55 3644.14,-178.55 3647.64,-168.55 3640.64,-168.55"/>
</g>
<!-- RecordingActivityRecordingsListDirective  -->
<g id="node41" class="node">
<title>RecordingActivityRecordingsListDirective </title>
<polygon fill="#fb8072" stroke="black" points="3541.83,-214.8 3280.17,-214.8 3280.17,-178.8 3541.83,-178.8 3541.83,-214.8"/>
<text text-anchor="middle" x="3411" y="-192.6" font-family="Times,serif" font-size="14.00">RecordingActivityRecordingsListDirective </text>
</g>
<!-- ApiDirectiveModule&#45;&gt;RecordingActivityRecordingsListDirective  -->
<g id="edge40" class="edge">
<title>ApiDirectiveModule&#45;&gt;RecordingActivityRecordingsListDirective </title>
<path fill="none" stroke="black" stroke-dasharray="5,2" d="M3206.14,-148.8C3272.69,-148.8 3365.53,-148.8 3365.53,-148.8 3365.53,-148.8 3365.53,-168.65 3365.53,-168.65"/>
<polygon fill="black" stroke="black" points="3362.03,-168.65 3365.53,-178.65 3369.03,-168.65 3362.03,-168.65"/>
</g>
<!-- StreamDisplayAudioDetectionDirective  -->
<g id="node42" class="node">
<title>StreamDisplayAudioDetectionDirective </title>
<polygon fill="#fb8072" stroke="black" points="3262.21,-214.8 3017.79,-214.8 3017.79,-178.8 3262.21,-178.8 3262.21,-214.8"/>
<text text-anchor="middle" x="3140" y="-192.6" font-family="Times,serif" font-size="14.00">StreamDisplayAudioDetectionDirective </text>
</g>
<!-- ApiDirectiveModule&#45;&gt;StreamDisplayAudioDetectionDirective  -->
<g id="edge41" class="edge">
<title>ApiDirectiveModule&#45;&gt;StreamDisplayAudioDetectionDirective </title>
<path fill="none" stroke="black" stroke-dasharray="5,2" d="M3140,-149.91C3140,-149.91 3140,-168.79 3140,-168.79"/>
<polygon fill="black" stroke="black" points="3136.5,-168.79 3140,-178.79 3143.5,-168.79 3136.5,-168.79"/>
</g>
<!-- StreamDisplayParticipantNameDirective  -->
<g id="node43" class="node">
<title>StreamDisplayParticipantNameDirective </title>
<polygon fill="#fb8072" stroke="black" points="2999.37,-214.8 2750.63,-214.8 2750.63,-178.8 2999.37,-178.8 2999.37,-214.8"/>
<text text-anchor="middle" x="2875" y="-192.6" font-family="Times,serif" font-size="14.00">StreamDisplayParticipantNameDirective </text>
</g>
<!-- ApiDirectiveModule&#45;&gt;StreamDisplayParticipantNameDirective  -->
<g id="edge42" class="edge">
<title>ApiDirectiveModule&#45;&gt;StreamDisplayParticipantNameDirective </title>
<path fill="none" stroke="black" stroke-dasharray="5,2" d="M3073.58,-148.8C2984.5,-148.8 2837.36,-148.8 2837.36,-148.8 2837.36,-148.8 2837.36,-168.65 2837.36,-168.65"/>
<polygon fill="black" stroke="black" points="2833.86,-168.65 2837.36,-178.65 2840.86,-168.65 2833.86,-168.65"/>
</g>
<!-- StreamSettingsButtonDirective  -->
<g id="node44" class="node">
<title>StreamSettingsButtonDirective </title>
<polygon fill="#fb8072" stroke="black" points="2732.47,-214.8 2537.53,-214.8 2537.53,-178.8 2732.47,-178.8 2732.47,-214.8"/>
<text text-anchor="middle" x="2635" y="-192.6" font-family="Times,serif" font-size="14.00">StreamSettingsButtonDirective </text>
</g>
<!-- ApiDirectiveModule&#45;&gt;StreamSettingsButtonDirective  -->
<g id="edge43" class="edge">
<title>ApiDirectiveModule&#45;&gt;StreamSettingsButtonDirective </title>
<path fill="none" stroke="black" stroke-dasharray="5,2" d="M3073.83,-147.8C2931.51,-147.8 2609.09,-147.8 2609.09,-147.8 2609.09,-147.8 2609.09,-168.55 2609.09,-168.55"/>
<polygon fill="black" stroke="black" points="2605.59,-168.55 2609.09,-178.55 2612.59,-168.55 2605.59,-168.55"/>
</g>
<!-- ToolbarBackgroundEffectsButtonDirective  -->
<g id="node45" class="node">
<title>ToolbarBackgroundEffectsButtonDirective </title>
<polygon fill="#fb8072" stroke="black" points="2520.09,-214.8 2257.91,-214.8 2257.91,-178.8 2520.09,-178.8 2520.09,-214.8"/>
<text text-anchor="middle" x="2389" y="-192.6" font-family="Times,serif" font-size="14.00">ToolbarBackgroundEffectsButtonDirective </text>
</g>
<!-- ApiDirectiveModule&#45;&gt;ToolbarBackgroundEffectsButtonDirective  -->
<g id="edge44" class="edge">
<title>ApiDirectiveModule&#45;&gt;ToolbarBackgroundEffectsButtonDirective </title>
<path fill="none" stroke="black" stroke-dasharray="5,2" d="M3073.59,-145.8C2891.09,-145.8 2395.38,-145.8 2395.38,-145.8 2395.38,-145.8 2395.38,-168.68 2395.38,-168.68"/>
<polygon fill="black" stroke="black" points="2391.88,-168.68 2395.38,-178.68 2398.88,-168.68 2391.88,-168.68"/>
</g>
<!-- ToolbarCaptionsButtonDirective  -->
<g id="node46" class="node">
<title>ToolbarCaptionsButtonDirective </title>
<polygon fill="#fb8072" stroke="black" points="2239.8,-214.8 2036.2,-214.8 2036.2,-178.8 2239.8,-178.8 2239.8,-214.8"/>
<text text-anchor="middle" x="2138" y="-192.6" font-family="Times,serif" font-size="14.00">ToolbarCaptionsButtonDirective </text>
</g>
<!-- ApiDirectiveModule&#45;&gt;ToolbarCaptionsButtonDirective  -->
<g id="edge45" class="edge">
<title>ApiDirectiveModule&#45;&gt;ToolbarCaptionsButtonDirective </title>
<path fill="none" stroke="black" stroke-dasharray="5,2" d="M3073.65,-144.8C2851.3,-144.8 2146.38,-144.8 2146.38,-144.8 2146.38,-144.8 2146.38,-168.61 2146.38,-168.61"/>
<polygon fill="black" stroke="black" points="2142.88,-168.61 2146.38,-178.61 2149.88,-168.61 2142.88,-168.61"/>
</g>
<!-- ToolbarChatPanelButtonDirective  -->
<g id="node47" class="node">
<title>ToolbarChatPanelButtonDirective </title>
<polygon fill="#fb8072" stroke="black" points="2017.56,-214.8 1806.44,-214.8 1806.44,-178.8 2017.56,-178.8 2017.56,-214.8"/>
<text text-anchor="middle" x="1912" y="-192.6" font-family="Times,serif" font-size="14.00">ToolbarChatPanelButtonDirective </text>
</g>
<!-- ApiDirectiveModule&#45;&gt;ToolbarChatPanelButtonDirective  -->
<g id="edge46" class="edge">
<title>ApiDirectiveModule&#45;&gt;ToolbarChatPanelButtonDirective </title>
<path fill="none" stroke="black" stroke-dasharray="5,2" d="M3073.67,-143.8C2819.58,-143.8 1922.38,-143.8 1922.38,-143.8 1922.38,-143.8 1922.38,-168.56 1922.38,-168.56"/>
<polygon fill="black" stroke="black" points="1918.88,-168.56 1922.38,-178.56 1925.88,-168.56 1918.88,-168.56"/>
</g>
<!-- ToolbarDisplayLogoDirective  -->
<g id="node48" class="node">
<title>ToolbarDisplayLogoDirective </title>
<polygon fill="#fb8072" stroke="black" points="1788.5,-214.8 1599.5,-214.8 1599.5,-178.8 1788.5,-178.8 1788.5,-214.8"/>
<text text-anchor="middle" x="1694" y="-192.6" font-family="Times,serif" font-size="14.00">ToolbarDisplayLogoDirective </text>
</g>
<!-- ApiDirectiveModule&#45;&gt;ToolbarDisplayLogoDirective  -->
<g id="edge47" class="edge">
<title>ApiDirectiveModule&#45;&gt;ToolbarDisplayLogoDirective </title>
<path fill="none" stroke="black" stroke-dasharray="5,2" d="M3073.71,-141.8C2791.66,-141.8 1705.88,-141.8 1705.88,-141.8 1705.88,-141.8 1705.88,-168.79 1705.88,-168.79"/>
<polygon fill="black" stroke="black" points="1702.38,-168.79 1705.88,-178.79 1709.38,-168.79 1702.38,-168.79"/>
</g>
<!-- ToolbarDisplaySessionNameDirective  -->
<g id="node49" class="node">
<title>ToolbarDisplaySessionNameDirective </title>
<polygon fill="#fb8072" stroke="black" points="1581.67,-214.8 1346.33,-214.8 1346.33,-178.8 1581.67,-178.8 1581.67,-214.8"/>
<text text-anchor="middle" x="1464" y="-192.6" font-family="Times,serif" font-size="14.00">ToolbarDisplaySessionNameDirective </text>
</g>
<!-- ApiDirectiveModule&#45;&gt;ToolbarDisplaySessionNameDirective  -->
<g id="edge48" class="edge">
<title>ApiDirectiveModule&#45;&gt;ToolbarDisplaySessionNameDirective </title>
<path fill="none" stroke="black" stroke-dasharray="5,2" d="M3073.8,-140.8C2764.57,-140.8 1477.38,-140.8 1477.38,-140.8 1477.38,-140.8 1477.38,-168.77 1477.38,-168.77"/>
<polygon fill="black" stroke="black" points="1473.88,-168.77 1477.38,-178.77 1480.88,-168.77 1473.88,-168.77"/>
</g>
<!-- ToolbarFullscreenButtonDirective  -->
<g id="node50" class="node">
<title>ToolbarFullscreenButtonDirective </title>
<polygon fill="#fb8072" stroke="black" points="1328.34,-214.8 1115.66,-214.8 1115.66,-178.8 1328.34,-178.8 1328.34,-214.8"/>
<text text-anchor="middle" x="1222" y="-192.6" font-family="Times,serif" font-size="14.00">ToolbarFullscreenButtonDirective </text>
</g>
<!-- ApiDirectiveModule&#45;&gt;ToolbarFullscreenButtonDirective  -->
<g id="edge49" class="edge">
<title>ApiDirectiveModule&#45;&gt;ToolbarFullscreenButtonDirective </title>
<path fill="none" stroke="black" stroke-dasharray="5,2" d="M3073.66,-139.8C2737.37,-139.8 1236.88,-139.8 1236.88,-139.8 1236.88,-139.8 1236.88,-168.76 1236.88,-168.76"/>
<polygon fill="black" stroke="black" points="1233.38,-168.76 1236.88,-178.76 1240.38,-168.76 1233.38,-168.76"/>
</g>
<!-- ToolbarLeaveButtonDirective  -->
<g id="node51" class="node">
<title>ToolbarLeaveButtonDirective </title>
<polygon fill="#fb8072" stroke="black" points="1098.21,-214.8 909.79,-214.8 909.79,-178.8 1098.21,-178.8 1098.21,-214.8"/>
<text text-anchor="middle" x="1004" y="-192.6" font-family="Times,serif" font-size="14.00">ToolbarLeaveButtonDirective </text>
</g>
<!-- ApiDirectiveModule&#45;&gt;ToolbarLeaveButtonDirective  -->
<g id="edge50" class="edge">
<title>ApiDirectiveModule&#45;&gt;ToolbarLeaveButtonDirective </title>
<path fill="none" stroke="black" stroke-dasharray="5,2" d="M3073.65,-137.8C2714.62,-137.8 1020.38,-137.8 1020.38,-137.8 1020.38,-137.8 1020.38,-168.78 1020.38,-168.78"/>
<polygon fill="black" stroke="black" points="1016.88,-168.78 1020.38,-178.78 1023.88,-168.78 1016.88,-168.78"/>
</g>
<!-- ToolbarParticipantsPanelButtonDirective  -->
<g id="node52" class="node">
<title>ToolbarParticipantsPanelButtonDirective </title>
<polygon fill="#fb8072" stroke="black" points="891.72,-214.8 640.28,-214.8 640.28,-178.8 891.72,-178.8 891.72,-214.8"/>
<text text-anchor="middle" x="766" y="-192.6" font-family="Times,serif" font-size="14.00">ToolbarParticipantsPanelButtonDirective </text>
</g>
<!-- ApiDirectiveModule&#45;&gt;ToolbarParticipantsPanelButtonDirective  -->
<g id="edge51" class="edge">
<title>ApiDirectiveModule&#45;&gt;ToolbarParticipantsPanelButtonDirective </title>
<path fill="none" stroke="black" stroke-dasharray="5,2" d="M3073.61,-136.8C2690.98,-136.8 784.38,-136.8 784.38,-136.8 784.38,-136.8 784.38,-168.8 784.38,-168.8"/>
<polygon fill="black" stroke="black" points="780.88,-168.8 784.38,-178.8 787.88,-168.8 780.88,-168.8"/>
</g>
<!-- ToolbarScreenshareButtonDirective  -->
<g id="node53" class="node">
<title>ToolbarScreenshareButtonDirective </title>
<polygon fill="#fb8072" stroke="black" points="622.65,-214.8 401.35,-214.8 401.35,-178.8 622.65,-178.8 622.65,-214.8"/>
<text text-anchor="middle" x="512" y="-192.6" font-family="Times,serif" font-size="14.00">ToolbarScreenshareButtonDirective </text>
</g>
<!-- ApiDirectiveModule&#45;&gt;ToolbarScreenshareButtonDirective  -->
<g id="edge52" class="edge">
<title>ApiDirectiveModule&#45;&gt;ToolbarScreenshareButtonDirective </title>
<path fill="none" stroke="black" stroke-dasharray="5,2" d="M3073.57,-135.8C2666.98,-135.8 531.88,-135.8 531.88,-135.8 531.88,-135.8 531.88,-168.5 531.88,-168.5"/>
<polygon fill="black" stroke="black" points="528.38,-168.5 531.88,-178.5 535.38,-168.5 528.38,-168.5"/>
</g>
<!-- ToolbarSettingsButtonDirective  -->
<g id="node54" class="node">
<title>ToolbarSettingsButtonDirective </title>
<polygon fill="#fb8072" stroke="black" points="383.63,-214.8 184.37,-214.8 184.37,-178.8 383.63,-178.8 383.63,-214.8"/>
<text text-anchor="middle" x="284" y="-192.6" font-family="Times,serif" font-size="14.00">ToolbarSettingsButtonDirective </text>
</g>
<!-- ApiDirectiveModule&#45;&gt;ToolbarSettingsButtonDirective  -->
<g id="edge53" class="edge">
<title>ApiDirectiveModule&#45;&gt;ToolbarSettingsButtonDirective </title>
<path fill="none" stroke="black" stroke-dasharray="5,2" d="M3073.76,-133.8C2647.24,-133.8 305.38,-133.8 305.38,-133.8 305.38,-133.8 305.38,-168.58 305.38,-168.58"/>
<polygon fill="black" stroke="black" points="301.88,-168.58 305.38,-178.58 308.88,-168.58 301.88,-168.58"/>
</g>
<!-- VideoMutedDirective  -->
<g id="node55" class="node">
<title>VideoMutedDirective </title>
<polygon fill="#fb8072" stroke="black" points="166.35,-214.8 23.65,-214.8 23.65,-178.8 166.35,-178.8 166.35,-214.8"/>
<text text-anchor="middle" x="95" y="-192.6" font-family="Times,serif" font-size="14.00">VideoMutedDirective </text>
</g>
<!-- ApiDirectiveModule&#45;&gt;VideoMutedDirective  -->
<g id="edge54" class="edge">
<title>ApiDirectiveModule&#45;&gt;VideoMutedDirective </title>
<path fill="none" stroke="black" stroke-dasharray="5,2" d="M3073.72,-132.8C2630.85,-132.8 118.38,-132.8 118.38,-132.8 118.38,-132.8 118.38,-168.63 118.38,-168.63"/>
<polygon fill="black" stroke="black" points="114.88,-168.63 118.38,-178.63 121.88,-168.63 114.88,-168.63"/>
</g>
</g>
</svg>
