<svg version="1.1" viewBox="0.0 0.0 600.0 371.0" fill="none" stroke="none" stroke-linecap="square" stroke-miterlimit="10" width="600" height="371" xmlns:xlink="http://www.w3.org/1999/xlink" xmlns="http://www.w3.org/2000/svg"><path fill="#ffffff" d="M0 0L600.0 0L600.0 371.0L0 371.0L0 0Z" fill-rule="nonzero"/><path stroke="#333333" stroke-width="1.0" stroke-linecap="butt" d="M108.5 283.5L581.5 283.5" fill-rule="nonzero"/><path stroke="#cccccc" stroke-width="1.0" stroke-linecap="butt" d="M108.5 228.5L581.5 228.5" fill-rule="nonzero"/><path stroke="#cccccc" stroke-width="1.0" stroke-linecap="butt" d="M108.5 172.5L581.5 172.5" fill-rule="nonzero"/><path stroke="#cccccc" stroke-width="1.0" stroke-linecap="butt" d="M108.5 117.5L581.5 117.5" fill-rule="nonzero"/><path stroke="#cccccc" stroke-width="1.0" stroke-linecap="butt" d="M108.5 62.5L581.5 62.5" fill-rule="nonzero"/><clipPath id="id_0"><path d="M108.55 62.416668L581.45 62.416668L581.45 283.45L108.55 283.45L108.55 62.416668Z" clip-rule="nonzero"/></clipPath><path stroke="#000000" stroke-width="0.0" stroke-linecap="butt" stroke-opacity="0.0" clip-path="url(#id_0)" d="M183.0 283.0L135.0 283.0L135.0 230.0C135.0 228.89543 135.89543 228.0 137.0 228.0L181.0 228.0C182.10457 228.0 183.0 228.89543 183.0 230.0Z" fill-rule="nonzero"/><path fill="#4285f4" clip-path="url(#id_0)" d="M183.0 283.0L135.0 283.0L135.0 230.0C135.0 228.89543 135.89543 228.0 137.0 228.0L181.0 228.0C182.10457 228.0 183.0 228.89543 183.0 230.0Z" fill-rule="nonzero"/><path stroke="#000000" stroke-width="0.0" stroke-linecap="butt" stroke-opacity="0.0" clip-path="url(#id_0)" d="M257.0 283.0L209.0 283.0L209.0 136.0C209.0 134.89543 209.89543 134.0 211.0 134.0L255.0 134.0C256.10458 134.0 257.0 134.89543 257.0 136.0Z" fill-rule="nonzero"/><path fill="#4285f4" clip-path="url(#id_0)" d="M257.0 283.0L209.0 283.0L209.0 136.0C209.0 134.89543 209.89543 134.0 211.0 134.0L255.0 134.0C256.10458 134.0 257.0 134.89543 257.0 136.0Z" fill-rule="nonzero"/><path stroke="#000000" stroke-width="0.0" stroke-linecap="butt" stroke-opacity="0.0" clip-path="url(#id_0)" d="M332.0 283.0L284.0 283.0L284.0 230.0C284.0 228.89543 284.89542 228.0 286.0 228.0L330.0 228.0C331.10458 228.0 332.0 228.89543 332.0 230.0Z" fill-rule="nonzero"/><path fill="#4285f4" clip-path="url(#id_0)" d="M332.0 283.0L284.0 283.0L284.0 230.0C284.0 228.89543 284.89542 228.0 286.0 228.0L330.0 228.0C331.10458 228.0 332.0 228.89543 332.0 230.0Z" fill-rule="nonzero"/><path stroke="#000000" stroke-width="0.0" stroke-linecap="butt" stroke-opacity="0.0" clip-path="url(#id_0)" d="M406.0 283.0L358.0 283.0L358.0 116.0C358.0 114.89543 358.89542 114.0 360.0 114.0L404.0 114.0C405.10458 114.0 406.0 114.89543 406.0 116.0Z" fill-rule="nonzero"/><path fill="#4285f4" clip-path="url(#id_0)" d="M406.0 283.0L358.0 283.0L358.0 116.0C358.0 114.89543 358.89542 114.0 360.0 114.0L404.0 114.0C405.10458 114.0 406.0 114.89543 406.0 116.0Z" fill-rule="nonzero"/><path stroke="#000000" stroke-width="0.0" stroke-linecap="butt" stroke-opacity="0.0" clip-path="url(#id_0)" d="M481.0 283.0L433.0 283.0L433.0 267.0C433.0 265.89542 433.89542 265.0 435.0 265.0L479.0 265.0C480.10458 265.0 481.0 265.89542 481.0 267.0Z" fill-rule="nonzero"/><path fill="#4285f4" clip-path="url(#id_0)" d="M481.0 283.0L433.0 283.0L433.0 267.0C433.0 265.89542 433.89542 265.0 435.0 265.0L479.0 265.0C480.10458 265.0 481.0 265.89542 481.0 267.0Z" fill-rule="nonzero"/><path stroke="#000000" stroke-width="0.0" stroke-linecap="butt" stroke-opacity="0.0" clip-path="url(#id_0)" d="M555.0 283.0L507.0 283.0L507.0 281.5C507.0 280.67157 507.67157 280.0 508.5 280.0L553.5 280.0C554.3284 280.0 555.0 280.67157 555.0 281.5Z" fill-rule="nonzero"/><path fill="#4285f4" clip-path="url(#id_0)" d="M555.0 283.0L507.0 283.0L507.0 281.5C507.0 280.67157 507.67157 280.0 508.5 280.0L553.5 280.0C554.3284 280.0 555.0 280.67157 555.0 281.5Z" fill-rule="nonzero"/><path fill="#424242" d="M329.5 345.65314Q328.0625 345.23126 327.39062 344.6219Q326.73438 344.0125 326.73438 343.1219Q326.73438 342.1219 327.53125 341.46564Q328.34375 340.79376 329.64062 340.79376Q330.51562 340.79376 331.20312 341.1375Q331.89062 341.48126 332.26562 342.075Q332.65625 342.66876 332.65625 343.3875L331.51562 343.3875Q331.51562 342.60626 331.01562 342.16876Q330.53125 341.73126 329.64062 341.73126Q328.8125 341.73126 328.34375 342.10626Q327.875 342.46564 327.875 343.10626Q327.875 343.6375 328.3125 343.9969Q328.76562 344.35626 329.82812 344.65314Q330.89062 344.95 331.48438 345.3094Q332.09375 345.66876 332.375 346.15314Q332.67188 346.6375 332.67188 347.27814Q332.67188 348.325 331.85938 348.95Q331.04688 349.575 329.70312 349.575Q328.8125 349.575 328.04688 349.23126Q327.29688 348.8875 326.875 348.3094Q326.46875 347.71564 326.46875 346.98126L327.59375 346.98126Q327.59375 347.7469 328.17188 348.2Q328.75 348.65314 329.70312 348.65314Q330.59375 348.65314 331.0625 348.29376Q331.53125 347.91876 331.53125 347.29376Q331.53125 346.66876 331.09375 346.325Q330.65625 345.98126 329.5 345.65314ZM336.45312 349.575Q335.15625 349.575 334.34375 348.73126Q333.54688 347.8719 333.54688 346.45L333.54688 346.2625Q333.54688 345.3094 333.90625 344.575Q334.26562 343.825 334.90625 343.41876Q335.5625 342.9969 336.3125 342.9969Q337.54688 342.9969 338.23438 343.8094Q338.92188 344.6219 338.92188 346.1375L338.92188 346.59064L334.625 346.59064Q334.65625 347.52814 335.17188 348.10626Q335.70312 348.6844 336.51562 348.6844Q337.07812 348.6844 337.46875 348.45Q337.875 348.21564 338.1875 347.825L338.84375 348.34064Q338.04688 349.575 336.45312 349.575ZM336.3125 343.8875Q335.65625 343.8875 335.20312 344.3719Q334.76562 344.84064 334.67188 345.7L337.84375 345.7L337.84375 345.6219Q337.79688 344.79376 337.39062 344.34064Q337.0 343.8875 336.3125 343.8875ZM342.89062 344.075Q342.64062 344.04376 342.35938 344.04376Q341.28125 344.04376 340.90625 344.95L340.90625 349.45L339.82812 349.45L339.82812 343.10626L340.875 343.10626L340.89062 343.84064Q341.42188 342.9969 342.40625 342.9969Q342.71875 342.9969 342.89062 343.075L342.89062 344.075ZM345.90625 347.98126L347.48438 343.10626L348.59375 343.10626L346.3125 349.45L345.48438 349.45L343.1875 343.10626L344.29688 343.10626L345.90625 347.98126ZM351.0 349.45L349.92188 349.45L349.92188 343.10626L351.0 343.10626L351.0 349.45ZM349.82812 341.4344Q349.82812 341.16876 349.98438 340.98126Q350.15625 340.79376 350.46875 340.79376Q350.78125 340.79376 350.9375 340.98126Q351.10938 341.16876 351.10938 341.4344Q351.10938 341.6844 350.9375 341.8719Q350.78125 342.04376 350.46875 342.04376Q350.15625 342.04376 349.98438 341.8719Q349.82812 341.6844 349.82812 341.4344ZM355.35938 348.6844Q355.9375 348.6844 356.375 348.34064Q356.8125 347.98126 356.85938 347.45L357.89062 347.45Q357.85938 347.9969 357.5 348.4969Q357.15625 348.98126 356.57812 349.27814Q356.01562 349.575 355.35938 349.575Q354.0625 349.575 353.29688 348.71564Q352.54688 347.84064 352.54688 346.34064L352.54688 346.15314Q352.54688 345.23126 352.875 344.5125Q353.21875 343.79376 353.84375 343.40314Q354.48438 342.9969 355.35938 342.9969Q356.42188 342.9969 357.125 343.6375Q357.84375 344.2625 357.89062 345.29376L356.85938 345.29376Q356.8125 344.66876 356.39062 344.27814Q355.96875 343.8875 355.35938 343.8875Q354.53125 343.8875 354.07812 344.48126Q353.625 345.075 353.625 346.2L353.625 346.40314Q353.625 347.4969 354.07812 348.09064Q354.53125 348.6844 355.35938 348.6844ZM361.45312 349.575Q360.15625 349.575 359.34375 348.73126Q358.54688 347.8719 358.54688 346.45L358.54688 346.2625Q358.54688 345.3094 358.90625 344.575Q359.26562 343.825 359.90625 343.41876Q360.5625 342.9969 361.3125 342.9969Q362.54688 342.9969 363.23438 343.8094Q363.92188 344.6219 363.92188 346.1375L363.92188 346.59064L359.625 346.59064Q359.65625 347.52814 360.17188 348.10626Q360.70312 348.6844 361.51562 348.6844Q362.07812 348.6844 362.46875 348.45Q362.875 348.21564 363.1875 347.825L363.84375 348.34064Q363.04688 349.575 361.45312 349.575ZM361.3125 343.8875Q360.65625 343.8875 360.20312 344.3719Q359.76562 344.84064 359.67188 345.7L362.84375 345.7L362.84375 345.6219Q362.79688 344.79376 362.39062 344.34064Q362.0 343.8875 361.3125 343.8875Z" fill-rule="nonzero"/><path fill="#424242" d="M27.846888 194.91771Q29.190638 195.07396 29.940638 195.91771Q30.675013 196.76146 30.675013 198.15208Q30.675013 199.66771 29.596888 200.57396Q28.503138 201.48021 26.675013 201.48021L25.862513 201.48021Q24.675013 201.48021 23.768763 201.05833Q22.862513 200.63646 22.378138 199.85521Q21.893763 199.07396 21.893763 198.05833Q21.893763 196.69896 22.659388 195.88646Q23.425013 195.05833 24.753138 194.91771L24.753138 196.04271Q23.737513 196.19896 23.284388 196.68333Q22.831263 197.16771 22.831263 198.05833Q22.831263 199.13646 23.628138 199.74583Q24.425013 200.35521 25.893763 200.35521L26.721888 200.35521Q28.112513 200.35521 28.940638 199.77708Q29.753138 199.19896 29.753138 198.15208Q29.753138 197.21458 29.331263 196.71458Q28.893763 196.21458 27.846888 196.04271L27.846888 194.91771ZM27.315638 193.65208Q26.393763 193.65208 25.643763 193.29271Q24.893763 192.91771 24.503138 192.26146Q24.096888 191.60521 24.096888 190.77708Q24.096888 189.48021 24.987513 188.68333Q25.878138 187.87083 27.378138 187.87083L27.456263 187.87083Q28.378138 187.87083 29.112513 188.23021Q29.846888 188.58958 30.268763 189.24583Q30.675013 189.90208 30.675013 190.76146Q30.675013 192.04271 29.784388 192.85521Q28.878138 193.65208 27.393763 193.65208L27.315638 193.65208ZM27.456263 192.55833Q28.503138 192.55833 29.143763 192.07396Q29.784388 191.57396 29.784388 190.76146Q29.784388 189.93333 29.143763 189.44896Q28.487513 188.96458 27.315638 188.96458Q26.284388 188.96458 25.643763 189.46458Q24.987513 189.94896 24.987513 190.77708Q24.987513 191.57396 25.628138 192.07396Q26.253138 192.55833 27.456263 192.55833ZM28.862513 182.66771Q28.425013 182.66771 28.190638 183.01146Q27.940638 183.33958 27.768763 184.16771Q27.596888 184.98021 27.346888 185.46458Q27.096888 185.94896 26.768763 186.18333Q26.425013 186.40208 25.956263 186.40208Q25.175013 186.40208 24.643763 185.74583Q24.096888 185.08958 24.096888 184.05833Q24.096888 182.98021 24.659388 182.32396Q25.206263 181.65208 26.065638 181.65208L26.065638 182.73021Q25.628138 182.73021 25.315638 183.12083Q24.987513 183.49583 24.987513 184.05833Q24.987513 184.65208 25.253138 184.99583Q25.503138 185.32396 25.909388 185.32396Q26.300013 185.32396 26.503138 185.01146Q26.706263 184.69896 26.893763 183.88646Q27.065638 183.07396 27.315638 182.57396Q27.565638 182.07396 27.925013 181.83958Q28.284388 181.58958 28.784388 181.58958Q29.643763 181.58958 30.159388 182.27708Q30.675013 182.94896 30.675013 184.02708Q30.675013 184.79271 30.409388 185.38646Q30.128138 185.96458 29.643763 186.29271Q29.159388 186.62083 28.596888 186.62083L28.596888 185.54271Q29.143763 185.51146 29.471888 185.10521Q29.784388 184.69896 29.784388 184.02708Q29.784388 183.41771 29.534388 183.04271Q29.284388 182.66771 28.862513 182.66771ZM22.675013 178.88646L24.206263 178.88646L24.206263 177.71458L25.050013 177.71458L25.050013 178.88646L28.971888 178.88646Q29.362513 178.88646 29.550013 178.73021Q29.737513 178.57396 29.737513 178.19896Q29.737513 178.01146 29.675013 177.68333L30.550013 177.68333Q30.675013 178.10521 30.675013 178.51146Q30.675013 179.23021 30.237513 179.60521Q29.784388 179.98021 28.971888 179.98021L25.050013 179.98021L25.050013 181.13646L24.206263 181.13646L24.206263 179.98021L22.675013 179.98021L22.675013 178.88646ZM24.784388 175.24583L24.268763 177.01146L23.378138 176.74583L24.034388 174.98021L22.018763 175.02708L22.018763 174.13646L24.065638 174.19896L23.425013 172.44896L24.315638 172.18333L24.846888 173.98021L26.425013 172.82396L26.987513 173.54271L25.300013 174.63646L26.940638 175.69896L26.409388 176.43333L24.784388 175.24583Z" fill-rule="nonzero"/><path fill="#757575" d="M57.6125 284.3094Q57.6125 286.21564 56.95625 287.15314Q56.315624 288.075 54.925 288.075Q53.565624 288.075 52.909374 287.16876Q52.253124 286.2625 52.221874 284.45L52.221874 283.0125Q52.221874 281.1219 52.8625 280.21564Q53.51875 279.29376 54.909374 279.29376Q56.284374 279.29376 56.940624 280.1844Q57.596874 281.0594 57.6125 282.90314L57.6125 284.3094ZM56.51875 282.825Q56.51875 281.45 56.128124 280.825Q55.753124 280.1844 54.909374 280.1844Q54.08125 280.1844 53.690624 280.825Q53.315624 281.45 53.315624 282.7469L53.315624 284.48126Q53.315624 285.85626 53.70625 286.52814Q54.1125 287.1844 54.925 287.1844Q55.721874 287.1844 56.1125 286.5594Q56.503124 285.9344 56.51875 284.60626L56.51875 282.825ZM59.33125 289.65314L58.721874 289.23126Q59.26875 288.46564 59.3 287.6375L59.3 286.66876L60.3625 286.66876L60.3625 287.5125Q60.3625 288.10626 60.065624 288.7Q59.76875 289.29376 59.33125 289.65314ZM66.6125 284.3094Q66.6125 286.21564 65.95625 287.15314Q65.31563 288.075 63.925 288.075Q62.565624 288.075 61.909374 287.16876Q61.253124 286.2625 61.221874 284.45L61.221874 283.0125Q61.221874 281.1219 61.8625 280.21564Q62.51875 279.29376 63.909374 279.29376Q65.28438 279.29376 65.94063 280.1844Q66.59688 281.0594 66.6125 282.90314L66.6125 284.3094ZM65.51875 282.825Q65.51875 281.45 65.12813 280.825Q64.75313 280.1844 63.909374 280.1844Q63.08125 280.1844 62.690624 280.825Q62.315624 281.45 62.315624 282.7469L62.315624 284.48126Q62.315624 285.85626 62.70625 286.52814Q63.1125 287.1844 63.925 287.1844Q64.72188 287.1844 65.1125 286.5594Q65.50313 285.9344 65.51875 284.60626L65.51875 282.825ZM73.6125 284.3094Q73.6125 286.21564 72.95625 287.15314Q72.31563 288.075 70.925 288.075Q69.56563 288.075 68.90938 287.16876Q68.25313 286.2625 68.22188 284.45L68.22188 283.0125Q68.22188 281.1219 68.8625 280.21564Q69.51875 279.29376 70.90938 279.29376Q72.28438 279.29376 72.94063 280.1844Q73.59688 281.0594 73.6125 282.90314L73.6125 284.3094ZM72.51875 282.825Q72.51875 281.45 72.12813 280.825Q71.75313 280.1844 70.90938 280.1844Q70.08125 280.1844 69.69063 280.825Q69.31563 281.45 69.31563 282.7469L69.31563 284.48126Q69.31563 285.85626 69.70625 286.52814Q70.1125 287.1844 70.925 287.1844Q71.72188 287.1844 72.1125 286.5594Q72.50313 285.9344 72.51875 284.60626L72.51875 282.825ZM80.6125 284.3094Q80.6125 286.21564 79.95625 287.15314Q79.31563 288.075 77.925 288.075Q76.56563 288.075 75.90938 287.16876Q75.25313 286.2625 75.22188 284.45L75.22188 283.0125Q75.22188 281.1219 75.8625 280.21564Q76.51875 279.29376 77.90938 279.29376Q79.28438 279.29376 79.94063 280.1844Q80.59688 281.0594 80.6125 282.90314L80.6125 284.3094ZM79.51875 282.825Q79.51875 281.45 79.12813 280.825Q78.75313 280.1844 77.90938 280.1844Q77.08125 280.1844 76.69063 280.825Q76.31563 281.45 76.31563 282.7469L76.31563 284.48126Q76.31563 285.85626 76.70625 286.52814Q77.1125 287.1844 77.925 287.1844Q78.72188 287.1844 79.1125 286.5594Q79.50313 285.9344 79.51875 284.60626L79.51875 282.825ZM87.6125 284.3094Q87.6125 286.21564 86.95625 287.15314Q86.31563 288.075 84.925 288.075Q83.56563 288.075 82.90938 287.16876Q82.25313 286.2625 82.22188 284.45L82.22188 283.0125Q82.22188 281.1219 82.8625 280.21564Q83.51875 279.29376 84.90938 279.29376Q86.28438 279.29376 86.94063 280.1844Q87.59688 281.0594 87.6125 282.90314L87.6125 284.3094ZM86.51875 282.825Q86.51875 281.45 86.12813 280.825Q85.75313 280.1844 84.90938 280.1844Q84.08125 280.1844 83.69063 280.825Q83.31563 281.45 83.31563 282.7469L83.31563 284.48126Q83.31563 285.85626 83.70625 286.52814Q84.1125 287.1844 84.925 287.1844Q85.72188 287.1844 86.1125 286.5594Q86.50313 285.9344 86.51875 284.60626L86.51875 282.825ZM94.6125 284.3094Q94.6125 286.21564 93.95625 287.15314Q93.31563 288.075 91.925 288.075Q90.56563 288.075 89.90938 287.16876Q89.25313 286.2625 89.22188 284.45L89.22188 283.0125Q89.22188 281.1219 89.8625 280.21564Q90.51875 279.29376 91.90938 279.29376Q93.28438 279.29376 93.94063 280.1844Q94.59688 281.0594 94.6125 282.90314L94.6125 284.3094ZM93.51875 282.825Q93.51875 281.45 93.12813 280.825Q92.75313 280.1844 91.90938 280.1844Q91.08125 280.1844 90.69063 280.825Q90.31563 281.45 90.31563 282.7469L90.31563 284.48126Q90.31563 285.85626 90.70625 286.52814Q91.1125 287.1844 91.925 287.1844Q92.72188 287.1844 93.1125 286.5594Q93.50313 285.9344 93.51875 284.60626L93.51875 282.825ZM101.6125 284.3094Q101.6125 286.21564 100.95625 287.15314Q100.31563 288.075 98.925 288.075Q97.56563 288.075 96.90938 287.16876Q96.25313 286.2625 96.22188 284.45L96.22188 283.0125Q96.22188 281.1219 96.8625 280.21564Q97.51875 279.29376 98.90938 279.29376Q100.28438 279.29376 100.94063 280.1844Q101.59688 281.0594 101.6125 282.90314L101.6125 284.3094ZM100.51875 282.825Q100.51875 281.45 100.12813 280.825Q99.75313 280.1844 98.90938 280.1844Q98.08125 280.1844 97.69063 280.825Q97.31563 281.45 97.31563 282.7469L97.31563 284.48126Q97.31563 285.85626 97.70625 286.52814Q98.1125 287.1844 98.925 287.1844Q99.72188 287.1844 100.1125 286.5594Q100.50313 285.9344 100.51875 284.60626L100.51875 282.825Z" fill-rule="nonzero"/><path fill="#757575" d="M57.6125 229.05104Q57.6125 230.95729 56.95625 231.89479Q56.315624 232.81667 54.925 232.81667Q53.565624 232.81667 52.909374 231.91042Q52.253124 231.00417 52.221874 229.19167L52.221874 227.75417Q52.221874 225.86354 52.8625 224.95729Q53.51875 224.03542 54.909374 224.03542Q56.284374 224.03542 56.940624 224.92604Q57.596874 225.80104 57.6125 227.64479L57.6125 229.05104ZM56.51875 227.56667Q56.51875 226.19167 56.128124 225.56667Q55.753124 224.92604 54.909374 224.92604Q54.08125 224.92604 53.690624 225.56667Q53.315624 226.19167 53.315624 227.48854L53.315624 229.22292Q53.315624 230.59792 53.70625 231.26979Q54.1125 231.92604 54.925 231.92604Q55.721874 231.92604 56.1125 231.30104Q56.503124 230.67604 56.51875 229.34792L56.51875 227.56667ZM59.33125 234.39479L58.721874 233.97292Q59.26875 233.20729 59.3 232.37917L59.3 231.41042L60.3625 231.41042L60.3625 232.25417Q60.3625 232.84792 60.065624 233.44167Q59.76875 234.03542 59.33125 234.39479ZM66.6125 229.05104Q66.6125 230.95729 65.95625 231.89479Q65.31563 232.81667 63.925 232.81667Q62.565624 232.81667 61.909374 231.91042Q61.253124 231.00417 61.221874 229.19167L61.221874 227.75417Q61.221874 225.86354 61.8625 224.95729Q62.51875 224.03542 63.909374 224.03542Q65.28438 224.03542 65.94063 224.92604Q66.59688 225.80104 66.6125 227.64479L66.6125 229.05104ZM65.51875 227.56667Q65.51875 226.19167 65.12813 225.56667Q64.75313 224.92604 63.909374 224.92604Q63.08125 224.92604 62.690624 225.56667Q62.315624 226.19167 62.315624 227.48854L62.315624 229.22292Q62.315624 230.59792 62.70625 231.26979Q63.1125 231.92604 63.925 231.92604Q64.72188 231.92604 65.1125 231.30104Q65.50313 230.67604 65.51875 229.34792L65.51875 227.56667ZM71.81563 232.69167L70.7375 232.69167L70.7375 225.47292L68.55 226.26979L68.55 225.28542L71.65938 224.11354L71.81563 224.11354L71.81563 232.69167ZM80.6125 229.05104Q80.6125 230.95729 79.95625 231.89479Q79.31563 232.81667 77.925 232.81667Q76.56563 232.81667 75.90938 231.91042Q75.25313 231.00417 75.22188 229.19167L75.22188 227.75417Q75.22188 225.86354 75.8625 224.95729Q76.51875 224.03542 77.90938 224.03542Q79.28438 224.03542 79.94063 224.92604Q80.59688 225.80104 80.6125 227.64479L80.6125 229.05104ZM79.51875 227.56667Q79.51875 226.19167 79.12813 225.56667Q78.75313 224.92604 77.90938 224.92604Q77.08125 224.92604 76.69063 225.56667Q76.31563 226.19167 76.31563 227.48854L76.31563 229.22292Q76.31563 230.59792 76.70625 231.26979Q77.1125 231.92604 77.925 231.92604Q78.72188 231.92604 79.1125 231.30104Q79.50313 230.67604 79.51875 229.34792L79.51875 227.56667ZM87.6125 229.05104Q87.6125 230.95729 86.95625 231.89479Q86.31563 232.81667 84.925 232.81667Q83.56563 232.81667 82.90938 231.91042Q82.25313 231.00417 82.22188 229.19167L82.22188 227.75417Q82.22188 225.86354 82.8625 224.95729Q83.51875 224.03542 84.90938 224.03542Q86.28438 224.03542 86.94063 224.92604Q87.59688 225.80104 87.6125 227.64479L87.6125 229.05104ZM86.51875 227.56667Q86.51875 226.19167 86.12813 225.56667Q85.75313 224.92604 84.90938 224.92604Q84.08125 224.92604 83.69063 225.56667Q83.31563 226.19167 83.31563 227.48854L83.31563 229.22292Q83.31563 230.59792 83.70625 231.26979Q84.1125 231.92604 84.925 231.92604Q85.72188 231.92604 86.1125 231.30104Q86.50313 230.67604 86.51875 229.34792L86.51875 227.56667ZM94.6125 229.05104Q94.6125 230.95729 93.95625 231.89479Q93.31563 232.81667 91.925 232.81667Q90.56563 232.81667 89.90938 231.91042Q89.25313 231.00417 89.22188 229.19167L89.22188 227.75417Q89.22188 225.86354 89.8625 224.95729Q90.51875 224.03542 91.90938 224.03542Q93.28438 224.03542 93.94063 224.92604Q94.59688 225.80104 94.6125 227.64479L94.6125 229.05104ZM93.51875 227.56667Q93.51875 226.19167 93.12813 225.56667Q92.75313 224.92604 91.90938 224.92604Q91.08125 224.92604 90.69063 225.56667Q90.31563 226.19167 90.31563 227.48854L90.31563 229.22292Q90.31563 230.59792 90.70625 231.26979Q91.1125 231.92604 91.925 231.92604Q92.72188 231.92604 93.1125 231.30104Q93.50313 230.67604 93.51875 229.34792L93.51875 227.56667ZM101.6125 229.05104Q101.6125 230.95729 100.95625 231.89479Q100.31563 232.81667 98.925 232.81667Q97.56563 232.81667 96.90938 231.91042Q96.25313 231.00417 96.22188 229.19167L96.22188 227.75417Q96.22188 225.86354 96.8625 224.95729Q97.51875 224.03542 98.90938 224.03542Q100.28438 224.03542 100.94063 224.92604Q101.59688 225.80104 101.6125 227.64479L101.6125 229.05104ZM100.51875 227.56667Q100.51875 226.19167 100.12813 225.56667Q99.75313 224.92604 98.90938 224.92604Q98.08125 224.92604 97.69063 225.56667Q97.31563 226.19167 97.31563 227.48854L97.31563 229.22292Q97.31563 230.59792 97.70625 231.26979Q98.1125 231.92604 98.925 231.92604Q99.72188 231.92604 100.1125 231.30104Q100.50313 230.67604 100.51875 229.34792L100.51875 227.56667Z" fill-rule="nonzero"/><path fill="#757575" d="M57.6125 173.79271Q57.6125 175.69896 56.95625 176.63646Q56.315624 177.55833 54.925 177.55833Q53.565624 177.55833 52.909374 176.65208Q52.253124 175.74583 52.221874 173.93333L52.221874 172.49583Q52.221874 170.60521 52.8625 169.69896Q53.51875 168.77708 54.909374 168.77708Q56.284374 168.77708 56.940624 169.66771Q57.596874 170.54271 57.6125 172.38646L57.6125 173.79271ZM56.51875 172.30833Q56.51875 170.93333 56.128124 170.30833Q55.753124 169.66771 54.909374 169.66771Q54.08125 169.66771 53.690624 170.30833Q53.315624 170.93333 53.315624 172.23021L53.315624 173.96458Q53.315624 175.33958 53.70625 176.01146Q54.1125 176.66771 54.925 176.66771Q55.721874 176.66771 56.1125 176.04271Q56.503124 175.41771 56.51875 174.08958L56.51875 172.30833ZM59.33125 179.13646L58.721874 178.71458Q59.26875 177.94896 59.3 177.12083L59.3 176.15208L60.3625 176.15208L60.3625 176.99583Q60.3625 177.58958 60.065624 178.18333Q59.76875 178.77708 59.33125 179.13646ZM66.6125 173.79271Q66.6125 175.69896 65.95625 176.63646Q65.31563 177.55833 63.925 177.55833Q62.565624 177.55833 61.909374 176.65208Q61.253124 175.74583 61.221874 173.93333L61.221874 172.49583Q61.221874 170.60521 61.8625 169.69896Q62.51875 168.77708 63.909374 168.77708Q65.28438 168.77708 65.94063 169.66771Q66.59688 170.54271 66.6125 172.38646L66.6125 173.79271ZM65.51875 172.30833Q65.51875 170.93333 65.12813 170.30833Q64.75313 169.66771 63.909374 169.66771Q63.08125 169.66771 62.690624 170.30833Q62.315624 170.93333 62.315624 172.23021L62.315624 173.96458Q62.315624 175.33958 62.70625 176.01146Q63.1125 176.66771 63.925 176.66771Q64.72188 176.66771 65.1125 176.04271Q65.50313 175.41771 65.51875 174.08958L65.51875 172.30833ZM73.84688 177.43333L68.25313 177.43333L68.25313 176.65208L71.20625 173.37083Q71.8625 172.62083 72.1125 172.16771Q72.3625 171.69896 72.3625 171.19896Q72.3625 170.52708 71.95625 170.10521Q71.56563 169.66771 70.87813 169.66771Q70.08125 169.66771 69.62813 170.13646Q69.175 170.58958 69.175 171.41771L68.09688 171.41771Q68.09688 170.23021 68.84688 169.51146Q69.6125 168.77708 70.87813 168.77708Q72.08125 168.77708 72.76875 169.40208Q73.45625 170.02708 73.45625 171.07396Q73.45625 172.32396 71.84688 174.07396L69.56563 176.54271L73.84688 176.54271L73.84688 177.43333ZM80.6125 173.79271Q80.6125 175.69896 79.95625 176.63646Q79.31563 177.55833 77.925 177.55833Q76.56563 177.55833 75.90938 176.65208Q75.25313 175.74583 75.22188 173.93333L75.22188 172.49583Q75.22188 170.60521 75.8625 169.69896Q76.51875 168.77708 77.90938 168.77708Q79.28438 168.77708 79.94063 169.66771Q80.59688 170.54271 80.6125 172.38646L80.6125 173.79271ZM79.51875 172.30833Q79.51875 170.93333 79.12813 170.30833Q78.75313 169.66771 77.90938 169.66771Q77.08125 169.66771 76.69063 170.30833Q76.31563 170.93333 76.31563 172.23021L76.31563 173.96458Q76.31563 175.33958 76.70625 176.01146Q77.1125 176.66771 77.925 176.66771Q78.72188 176.66771 79.1125 176.04271Q79.50313 175.41771 79.51875 174.08958L79.51875 172.30833ZM87.6125 173.79271Q87.6125 175.69896 86.95625 176.63646Q86.31563 177.55833 84.925 177.55833Q83.56563 177.55833 82.90938 176.65208Q82.25313 175.74583 82.22188 173.93333L82.22188 172.49583Q82.22188 170.60521 82.8625 169.69896Q83.51875 168.77708 84.90938 168.77708Q86.28438 168.77708 86.94063 169.66771Q87.59688 170.54271 87.6125 172.38646L87.6125 173.79271ZM86.51875 172.30833Q86.51875 170.93333 86.12813 170.30833Q85.75313 169.66771 84.90938 169.66771Q84.08125 169.66771 83.69063 170.30833Q83.31563 170.93333 83.31563 172.23021L83.31563 173.96458Q83.31563 175.33958 83.70625 176.01146Q84.1125 176.66771 84.925 176.66771Q85.72188 176.66771 86.1125 176.04271Q86.50313 175.41771 86.51875 174.08958L86.51875 172.30833ZM94.6125 173.79271Q94.6125 175.69896 93.95625 176.63646Q93.31563 177.55833 91.925 177.55833Q90.56563 177.55833 89.90938 176.65208Q89.25313 175.74583 89.22188 173.93333L89.22188 172.49583Q89.22188 170.60521 89.8625 169.69896Q90.51875 168.77708 91.90938 168.77708Q93.28438 168.77708 93.94063 169.66771Q94.59688 170.54271 94.6125 172.38646L94.6125 173.79271ZM93.51875 172.30833Q93.51875 170.93333 93.12813 170.30833Q92.75313 169.66771 91.90938 169.66771Q91.08125 169.66771 90.69063 170.30833Q90.31563 170.93333 90.31563 172.23021L90.31563 173.96458Q90.31563 175.33958 90.70625 176.01146Q91.1125 176.66771 91.925 176.66771Q92.72188 176.66771 93.1125 176.04271Q93.50313 175.41771 93.51875 174.08958L93.51875 172.30833ZM101.6125 173.79271Q101.6125 175.69896 100.95625 176.63646Q100.31563 177.55833 98.925 177.55833Q97.56563 177.55833 96.90938 176.65208Q96.25313 175.74583 96.22188 173.93333L96.22188 172.49583Q96.22188 170.60521 96.8625 169.69896Q97.51875 168.77708 98.90938 168.77708Q100.28438 168.77708 100.94063 169.66771Q101.59688 170.54271 101.6125 172.38646L101.6125 173.79271ZM100.51875 172.30833Q100.51875 170.93333 100.12813 170.30833Q99.75313 169.66771 98.90938 169.66771Q98.08125 169.66771 97.69063 170.30833Q97.31563 170.93333 97.31563 172.23021L97.31563 173.96458Q97.31563 175.33958 97.70625 176.01146Q98.1125 176.66771 98.925 176.66771Q99.72188 176.66771 100.1125 176.04271Q100.50313 175.41771 100.51875 174.08958L100.51875 172.30833Z" fill-rule="nonzero"/><path fill="#757575" d="M57.6125 118.53438Q57.6125 120.44063 56.95625 121.37813Q56.315624 122.3 54.925 122.3Q53.565624 122.3 52.909374 121.39375Q52.253124 120.4875 52.221874 118.675L52.221874 117.2375Q52.221874 115.34688 52.8625 114.44063Q53.51875 113.51875 54.909374 113.51875Q56.284374 113.51875 56.940624 114.40938Q57.596874 115.28438 57.6125 117.12813L57.6125 118.53438ZM56.51875 117.05Q56.51875 115.675 56.128124 115.05Q55.753124 114.40938 54.909374 114.40938Q54.08125 114.40938 53.690624 115.05Q53.315624 115.675 53.315624 116.97188L53.315624 118.70625Q53.315624 120.08125 53.70625 120.75313Q54.1125 121.40938 54.925 121.40938Q55.721874 121.40938 56.1125 120.78438Q56.503124 120.15938 56.51875 118.83125L56.51875 117.05ZM59.33125 123.87813L58.721874 123.45625Q59.26875 122.69063 59.3 121.8625L59.3 120.89375L60.3625 120.89375L60.3625 121.7375Q60.3625 122.33125 60.065624 122.925Q59.76875 123.51875 59.33125 123.87813ZM66.6125 118.53438Q66.6125 120.44063 65.95625 121.37813Q65.31563 122.3 63.925 122.3Q62.565624 122.3 61.909374 121.39375Q61.253124 120.4875 61.221874 118.675L61.221874 117.2375Q61.221874 115.34688 61.8625 114.44063Q62.51875 113.51875 63.909374 113.51875Q65.28438 113.51875 65.94063 114.40938Q66.59688 115.28438 66.6125 117.12813L66.6125 118.53438ZM65.51875 117.05Q65.51875 115.675 65.12813 115.05Q64.75313 114.40938 63.909374 114.40938Q63.08125 114.40938 62.690624 115.05Q62.315624 115.675 62.315624 116.97188L62.315624 118.70625Q62.315624 120.08125 62.70625 120.75313Q63.1125 121.40938 63.925 121.40938Q64.72188 121.40938 65.1125 120.78438Q65.50313 120.15938 65.51875 118.83125L65.51875 117.05ZM69.83125 117.37813L70.64375 117.37813Q71.425 117.3625 71.8625 116.97188Q72.3 116.58125 72.3 115.90938Q72.3 114.40938 70.8 114.40938Q70.09688 114.40938 69.675 114.81563Q69.26875 115.22188 69.26875 115.87813L68.175 115.87813Q68.175 114.8625 68.90938 114.19063Q69.65938 113.51875 70.8 113.51875Q72.00313 113.51875 72.69063 114.15938Q73.37813 114.8 73.37813 115.94063Q73.37813 116.50313 73.01875 117.01875Q72.65938 117.53438 72.03438 117.8Q72.7375 118.01875 73.1125 118.53438Q73.50313 119.05 73.50313 119.8Q73.50313 120.94063 72.75313 121.62813Q72.00313 122.3 70.8 122.3Q69.6125 122.3 68.84688 121.64375Q68.09688 120.9875 68.09688 119.925L69.19063 119.925Q69.19063 120.59688 69.62813 121.00313Q70.06563 121.40938 70.81563 121.40938Q71.59688 121.40938 72.00313 121.00313Q72.425 120.58125 72.425 119.81563Q72.425 119.08125 71.97188 118.69063Q71.51875 118.28438 70.64375 118.26875L69.83125 118.26875L69.83125 117.37813ZM80.6125 118.53438Q80.6125 120.44063 79.95625 121.37813Q79.31563 122.3 77.925 122.3Q76.56563 122.3 75.90938 121.39375Q75.25313 120.4875 75.22188 118.675L75.22188 117.2375Q75.22188 115.34688 75.8625 114.44063Q76.51875 113.51875 77.90938 113.51875Q79.28438 113.51875 79.94063 114.40938Q80.59688 115.28438 80.6125 117.12813L80.6125 118.53438ZM79.51875 117.05Q79.51875 115.675 79.12813 115.05Q78.75313 114.40938 77.90938 114.40938Q77.08125 114.40938 76.69063 115.05Q76.31563 115.675 76.31563 116.97188L76.31563 118.70625Q76.31563 120.08125 76.70625 120.75313Q77.1125 121.40938 77.925 121.40938Q78.72188 121.40938 79.1125 120.78438Q79.50313 120.15938 79.51875 118.83125L79.51875 117.05ZM87.6125 118.53438Q87.6125 120.44063 86.95625 121.37813Q86.31563 122.3 84.925 122.3Q83.56563 122.3 82.90938 121.39375Q82.25313 120.4875 82.22188 118.675L82.22188 117.2375Q82.22188 115.34688 82.8625 114.44063Q83.51875 113.51875 84.90938 113.51875Q86.28438 113.51875 86.94063 114.40938Q87.59688 115.28438 87.6125 117.12813L87.6125 118.53438ZM86.51875 117.05Q86.51875 115.675 86.12813 115.05Q85.75313 114.40938 84.90938 114.40938Q84.08125 114.40938 83.69063 115.05Q83.31563 115.675 83.31563 116.97188L83.31563 118.70625Q83.31563 120.08125 83.70625 120.75313Q84.1125 121.40938 84.925 121.40938Q85.72188 121.40938 86.1125 120.78438Q86.50313 120.15938 86.51875 118.83125L86.51875 117.05ZM94.6125 118.53438Q94.6125 120.44063 93.95625 121.37813Q93.31563 122.3 91.925 122.3Q90.56563 122.3 89.90938 121.39375Q89.25313 120.4875 89.22188 118.675L89.22188 117.2375Q89.22188 115.34688 89.8625 114.44063Q90.51875 113.51875 91.90938 113.51875Q93.28438 113.51875 93.94063 114.40938Q94.59688 115.28438 94.6125 117.12813L94.6125 118.53438ZM93.51875 117.05Q93.51875 115.675 93.12813 115.05Q92.75313 114.40938 91.90938 114.40938Q91.08125 114.40938 90.69063 115.05Q90.31563 115.675 90.31563 116.97188L90.31563 118.70625Q90.31563 120.08125 90.70625 120.75313Q91.1125 121.40938 91.925 121.40938Q92.72188 121.40938 93.1125 120.78438Q93.50313 120.15938 93.51875 118.83125L93.51875 117.05ZM101.6125 118.53438Q101.6125 120.44063 100.95625 121.37813Q100.31563 122.3 98.925 122.3Q97.56563 122.3 96.90938 121.39375Q96.25313 120.4875 96.22188 118.675L96.22188 117.2375Q96.22188 115.34688 96.8625 114.44063Q97.51875 113.51875 98.90938 113.51875Q100.28438 113.51875 100.94063 114.40938Q101.59688 115.28438 101.6125 117.12813L101.6125 118.53438ZM100.51875 117.05Q100.51875 115.675 100.12813 115.05Q99.75313 114.40938 98.90938 114.40938Q98.08125 114.40938 97.69063 115.05Q97.31563 115.675 97.31563 116.97188L97.31563 118.70625Q97.31563 120.08125 97.70625 120.75313Q98.1125 121.40938 98.925 121.40938Q99.72188 121.40938 100.1125 120.78438Q100.50313 120.15938 100.51875 118.83125L100.51875 117.05Z" fill-rule="nonzero"/><path fill="#757575" d="M57.6125 63.27604Q57.6125 65.18229 56.95625 66.11979Q56.315624 67.041664 54.925 67.041664Q53.565624 67.041664 52.909374 66.135414Q52.253124 65.229164 52.221874 63.416664L52.221874 61.979164Q52.221874 60.08854 52.8625 59.18229Q53.51875 58.260414 54.909374 58.260414Q56.284374 58.260414 56.940624 59.15104Q57.596874 60.02604 57.6125 61.86979L57.6125 63.27604ZM56.51875 61.791664Q56.51875 60.416664 56.128124 59.791664Q55.753124 59.15104 54.909374 59.15104Q54.08125 59.15104 53.690624 59.791664Q53.315624 60.416664 53.315624 61.71354L53.315624 63.447914Q53.315624 64.822914 53.70625 65.49479Q54.1125 66.15104 54.925 66.15104Q55.721874 66.15104 56.1125 65.52604Q56.503124 64.90104 56.51875 63.572914L56.51875 61.791664ZM59.33125 68.61979L58.721874 68.197914Q59.26875 67.43229 59.3 66.604164L59.3 65.635414L60.3625 65.635414L60.3625 66.479164Q60.3625 67.072914 60.065624 67.666664Q59.76875 68.260414 59.33125 68.61979ZM66.6125 63.27604Q66.6125 65.18229 65.95625 66.11979Q65.31563 67.041664 63.925 67.041664Q62.565624 67.041664 61.909374 66.135414Q61.253124 65.229164 61.221874 63.416664L61.221874 61.979164Q61.221874 60.08854 61.8625 59.18229Q62.51875 58.260414 63.909374 58.260414Q65.28438 58.260414 65.94063 59.15104Q66.59688 60.02604 66.6125 61.86979L66.6125 63.27604ZM65.51875 61.791664Q65.51875 60.416664 65.12813 59.791664Q64.75313 59.15104 63.909374 59.15104Q63.08125 59.15104 62.690624 59.791664Q62.315624 60.416664 62.315624 61.71354L62.315624 63.447914Q62.315624 64.822914 62.70625 65.49479Q63.1125 66.15104 63.925 66.15104Q64.72188 66.15104 65.1125 65.52604Q65.50313 64.90104 65.51875 63.572914L65.51875 61.791664ZM72.83125 64.05729L74.01875 64.05729L74.01875 64.93229L72.83125 64.93229L72.83125 66.916664L71.75313 66.916664L71.75313 64.93229L67.8625 64.93229L67.8625 64.291664L71.675 58.385414L72.83125 58.385414L72.83125 64.05729ZM69.09688 64.05729L71.75313 64.05729L71.75313 59.86979L71.6125 60.104164L69.09688 64.05729ZM80.6125 63.27604Q80.6125 65.18229 79.95625 66.11979Q79.31563 67.041664 77.925 67.041664Q76.56563 67.041664 75.90938 66.135414Q75.25313 65.229164 75.22188 63.416664L75.22188 61.979164Q75.22188 60.08854 75.8625 59.18229Q76.51875 58.260414 77.90938 58.260414Q79.28438 58.260414 79.94063 59.15104Q80.59688 60.02604 80.6125 61.86979L80.6125 63.27604ZM79.51875 61.791664Q79.51875 60.416664 79.12813 59.791664Q78.75313 59.15104 77.90938 59.15104Q77.08125 59.15104 76.69063 59.791664Q76.31563 60.416664 76.31563 61.71354L76.31563 63.447914Q76.31563 64.822914 76.70625 65.49479Q77.1125 66.15104 77.925 66.15104Q78.72188 66.15104 79.1125 65.52604Q79.50313 64.90104 79.51875 63.572914L79.51875 61.791664ZM87.6125 63.27604Q87.6125 65.18229 86.95625 66.11979Q86.31563 67.041664 84.925 67.041664Q83.56563 67.041664 82.90938 66.135414Q82.25313 65.229164 82.22188 63.416664L82.22188 61.979164Q82.22188 60.08854 82.8625 59.18229Q83.51875 58.260414 84.90938 58.260414Q86.28438 58.260414 86.94063 59.15104Q87.59688 60.02604 87.6125 61.86979L87.6125 63.27604ZM86.51875 61.791664Q86.51875 60.416664 86.12813 59.791664Q85.75313 59.15104 84.90938 59.15104Q84.08125 59.15104 83.69063 59.791664Q83.31563 60.416664 83.31563 61.71354L83.31563 63.447914Q83.31563 64.822914 83.70625 65.49479Q84.1125 66.15104 84.925 66.15104Q85.72188 66.15104 86.1125 65.52604Q86.50313 64.90104 86.51875 63.572914L86.51875 61.791664ZM94.6125 63.27604Q94.6125 65.18229 93.95625 66.11979Q93.31563 67.041664 91.925 67.041664Q90.56563 67.041664 89.90938 66.135414Q89.25313 65.229164 89.22188 63.416664L89.22188 61.979164Q89.22188 60.08854 89.8625 59.18229Q90.51875 58.260414 91.90938 58.260414Q93.28438 58.260414 93.94063 59.15104Q94.59688 60.02604 94.6125 61.86979L94.6125 63.27604ZM93.51875 61.791664Q93.51875 60.416664 93.12813 59.791664Q92.75313 59.15104 91.90938 59.15104Q91.08125 59.15104 90.69063 59.791664Q90.31563 60.416664 90.31563 61.71354L90.31563 63.447914Q90.31563 64.822914 90.70625 65.49479Q91.1125 66.15104 91.925 66.15104Q92.72188 66.15104 93.1125 65.52604Q93.50313 64.90104 93.51875 63.572914L93.51875 61.791664ZM101.6125 63.27604Q101.6125 65.18229 100.95625 66.11979Q100.31563 67.041664 98.925 67.041664Q97.56563 67.041664 96.90938 66.135414Q96.25313 65.229164 96.22188 63.416664L96.22188 61.979164Q96.22188 60.08854 96.8625 59.18229Q97.51875 58.260414 98.90938 58.260414Q100.28438 58.260414 100.94063 59.15104Q101.59688 60.02604 101.6125 61.86979L101.6125 63.27604ZM100.51875 61.791664Q100.51875 60.416664 100.12813 59.791664Q99.75313 59.15104 98.90938 59.15104Q98.08125 59.15104 97.69063 59.791664Q97.31563 60.416664 97.31563 61.71354L97.31563 63.447914Q97.31563 64.822914 97.70625 65.49479Q98.1125 66.15104 98.925 66.15104Q99.72188 66.15104 100.1125 65.52604Q100.50313 64.90104 100.51875 63.572914L100.51875 61.791664Z" fill-rule="nonzero"/><path fill="#757575" d="M149.70952 293.84064L146.95952 293.84064L146.95952 301.45L145.85014 301.45L145.85014 293.84064L143.10014 293.84064L143.10014 292.91876L149.70952 292.91876L149.70952 293.84064ZM156.2564 299.95L157.47514 295.10626L158.55327 295.10626L156.70952 301.45L155.83452 301.45L154.28764 296.6375L152.78764 301.45L151.91264 301.45L150.0689 295.10626L151.14702 295.10626L152.39702 299.85626L153.8814 295.10626L154.74077 295.10626L156.2564 299.95ZM160.8189 301.45L159.74077 301.45L159.74077 295.10626L160.8189 295.10626L160.8189 301.45ZM159.64702 293.4344Q159.64702 293.16876 159.80327 292.98126Q159.97514 292.79376 160.28764 292.79376Q160.60014 292.79376 160.7564 292.98126Q160.92827 293.16876 160.92827 293.4344Q160.92827 293.6844 160.7564 293.8719Q160.60014 294.04376 160.28764 294.04376Q159.97514 294.04376 159.80327 293.8719Q159.64702 293.6844 159.64702 293.4344ZM163.8189 301.45L162.74077 301.45L162.74077 292.45L163.8189 292.45L163.8189 301.45ZM166.8189 301.45L165.74077 301.45L165.74077 295.10626L166.8189 295.10626L166.8189 301.45ZM165.64702 293.4344Q165.64702 293.16876 165.80327 292.98126Q165.97514 292.79376 166.28764 292.79376Q166.60014 292.79376 166.7564 292.98126Q166.92827 293.16876 166.92827 293.4344Q166.92827 293.6844 166.7564 293.8719Q166.60014 294.04376 166.28764 294.04376Q165.97514 294.04376 165.80327 293.8719Q165.64702 293.6844 165.64702 293.4344ZM168.35014 298.21564Q168.35014 297.29376 168.70952 296.54376Q169.08452 295.79376 169.74077 295.40314Q170.39702 294.9969 171.22514 294.9969Q172.52202 294.9969 173.3189 295.8875Q174.1314 296.77814 174.1314 298.27814L174.1314 298.35626Q174.1314 299.27814 173.77202 300.0125Q173.41264 300.7469 172.7564 301.16876Q172.10014 301.575 171.24077 301.575Q169.95952 301.575 169.14702 300.6844Q168.35014 299.77814 168.35014 298.29376L168.35014 298.21564ZM169.4439 298.35626Q169.4439 299.40314 169.92827 300.04376Q170.42827 300.6844 171.24077 300.6844Q172.0689 300.6844 172.55327 300.04376Q173.03764 299.3875 173.03764 298.21564Q173.03764 297.1844 172.53764 296.54376Q172.05327 295.8875 171.22514 295.8875Q170.42827 295.8875 169.92827 296.52814Q169.4439 297.15314 169.4439 298.35626Z" fill-rule="nonzero"/><path fill="#757575" d="M220.18196 293.84064L217.43196 293.84064L217.43196 301.45L216.32259 301.45L216.32259 293.84064L213.57259 293.84064L213.57259 292.91876L220.18196 292.91876L220.18196 293.84064ZM220.82259 298.21564Q220.82259 297.29376 221.18196 296.54376Q221.55696 295.79376 222.21321 295.40314Q222.86946 294.9969 223.69759 294.9969Q224.99446 294.9969 225.79134 295.8875Q226.60384 296.77814 226.60384 298.27814L226.60384 298.35626Q226.60384 299.27814 226.24446 300.0125Q225.88509 300.7469 225.22884 301.16876Q224.57259 301.575 223.71321 301.575Q222.43196 301.575 221.61946 300.6844Q220.82259 299.77814 220.82259 298.29376L220.82259 298.21564ZM221.91634 298.35626Q221.91634 299.40314 222.40071 300.04376Q222.90071 300.6844 223.71321 300.6844Q224.54134 300.6844 225.02571 300.04376Q225.51009 299.3875 225.51009 298.21564Q225.51009 297.1844 225.01009 296.54376Q224.52571 295.8875 223.69759 295.8875Q222.90071 295.8875 222.40071 296.52814Q221.91634 297.15314 221.91634 298.35626ZM229.88509 298.5125L229.19759 299.21564L229.19759 301.45L228.11946 301.45L228.11946 292.45L229.19759 292.45L229.19759 297.8875L229.77571 297.2L231.76009 295.10626L233.07259 295.10626L230.60384 297.7625L233.36946 301.45L232.08821 301.45L229.88509 298.5125ZM239.47884 298.35626Q239.47884 299.8094 238.80696 300.7Q238.15071 301.575 237.02571 301.575Q235.82259 301.575 235.16634 300.71564L235.10384 301.45L234.11946 301.45L234.11946 292.45L235.19759 292.45L235.19759 295.8094Q235.85384 294.9969 237.01009 294.9969Q238.16634 294.9969 238.82259 295.8719Q239.47884 296.73126 239.47884 298.2625L239.47884 298.35626ZM238.40071 298.23126Q238.40071 297.1219 237.96321 296.52814Q237.54134 295.91876 236.74446 295.91876Q235.66634 295.91876 235.19759 296.90314L235.19759 299.65314Q235.69759 300.65314 236.74446 300.65314Q237.52571 300.65314 237.96321 300.04376Q238.40071 299.4344 238.40071 298.23126ZM240.82259 298.21564Q240.82259 297.29376 241.18196 296.54376Q241.55696 295.79376 242.21321 295.40314Q242.86946 294.9969 243.69759 294.9969Q244.99446 294.9969 245.79134 295.8875Q246.60384 296.77814 246.60384 298.27814L246.60384 298.35626Q246.60384 299.27814 246.24446 300.0125Q245.88509 300.7469 245.22884 301.16876Q244.57259 301.575 243.71321 301.575Q242.43196 301.575 241.61946 300.6844Q240.82259 299.77814 240.82259 298.29376L240.82259 298.21564ZM241.91634 298.35626Q241.91634 299.40314 242.40071 300.04376Q242.90071 300.6844 243.71321 300.6844Q244.54134 300.6844 245.02571 300.04376Q245.51009 299.3875 245.51009 298.21564Q245.51009 297.1844 245.01009 296.54376Q244.52571 295.8875 243.69759 295.8875Q242.90071 295.8875 242.40071 296.52814Q241.91634 297.15314 241.91634 298.35626ZM250.24446 297.41876L251.65071 295.10626L252.91634 295.10626L250.83821 298.2469L252.97884 301.45L251.72884 301.45L250.26009 299.075L248.79134 301.45L247.52571 301.45L249.66634 298.2469L247.60384 295.10626L248.85384 295.10626L250.24446 297.41876Z" fill-rule="nonzero"/><path fill="#757575" d="M296.0763 299.95L298.5138 292.91876L299.74817 292.91876L296.5763 301.45L295.59192 301.45L292.43567 292.91876L293.65442 292.91876L296.0763 299.95ZM302.2638 301.45L301.18567 301.45L301.18567 295.10626L302.2638 295.10626L302.2638 301.45ZM301.09192 293.4344Q301.09192 293.16876 301.24817 292.98126Q301.42004 292.79376 301.73254 292.79376Q302.04504 292.79376 302.2013 292.98126Q302.37317 293.16876 302.37317 293.4344Q302.37317 293.6844 302.2013 293.8719Q302.04504 294.04376 301.73254 294.04376Q301.42004 294.04376 301.24817 293.8719Q301.09192 293.6844 301.09192 293.4344ZM303.8263 298.23126Q303.8263 296.7625 304.5138 295.8875Q305.2013 294.9969 306.3263 294.9969Q307.43567 294.9969 308.09192 295.7469L308.09192 292.45L309.17004 292.45L309.17004 301.45L308.17004 301.45L308.12317 300.7625Q307.46692 301.575 306.31067 301.575Q305.21692 301.575 304.5138 300.66876Q303.8263 299.7625 303.8263 298.3094L303.8263 298.23126ZM304.90442 298.35626Q304.90442 299.4344 305.34192 300.04376Q305.79504 300.65314 306.5763 300.65314Q307.60754 300.65314 308.09192 299.71564L308.09192 296.8094Q307.60754 295.91876 306.59192 295.91876Q305.79504 295.91876 305.34192 296.52814Q304.90442 297.1375 304.90442 298.35626ZM313.15442 299.85626L314.6388 295.10626L315.79504 295.10626L313.24817 302.4344Q312.65442 304.0125 311.37317 304.0125L311.15442 303.9969L310.7638 303.91876L310.7638 303.04376L311.04504 303.0594Q311.60754 303.0594 311.90442 302.84064Q312.21692 302.6219 312.42004 302.02814L312.65442 301.3719L310.3888 295.10626L311.5763 295.10626L313.15442 299.85626ZM316.79504 298.21564Q316.79504 297.29376 317.15442 296.54376Q317.52942 295.79376 318.18567 295.40314Q318.84192 294.9969 319.67004 294.9969Q320.96692 294.9969 321.7638 295.8875Q322.5763 296.77814 322.5763 298.27814L322.5763 298.35626Q322.5763 299.27814 322.21692 300.0125Q321.85754 300.7469 321.2013 301.16876Q320.54504 301.575 319.68567 301.575Q318.40442 301.575 317.59192 300.6844Q316.79504 299.77814 316.79504 298.29376L316.79504 298.21564ZM317.8888 298.35626Q317.8888 299.40314 318.37317 300.04376Q318.87317 300.6844 319.68567 300.6844Q320.5138 300.6844 320.99817 300.04376Q321.48254 299.3875 321.48254 298.21564Q321.48254 297.1844 320.98254 296.54376Q320.49817 295.8875 319.67004 295.8875Q318.87317 295.8875 318.37317 296.52814Q317.8888 297.15314 317.8888 298.35626Z" fill-rule="nonzero"/><path fill="#757575" d="M365.2362 297.65314Q363.7987 297.23126 363.12683 296.6219Q362.47058 296.0125 362.47058 295.1219Q362.47058 294.1219 363.26746 293.46564Q364.07996 292.79376 365.37683 292.79376Q366.25183 292.79376 366.93933 293.1375Q367.62683 293.48126 368.00183 294.075Q368.39246 294.66876 368.39246 295.3875L367.25183 295.3875Q367.25183 294.60626 366.75183 294.16876Q366.26746 293.73126 365.37683 293.73126Q364.5487 293.73126 364.07996 294.10626Q363.6112 294.46564 363.6112 295.10626Q363.6112 295.6375 364.0487 295.9969Q364.50183 296.35626 365.56433 296.65314Q366.62683 296.95 367.22058 297.3094Q367.82996 297.66876 368.1112 298.15314Q368.40808 298.6375 368.40808 299.27814Q368.40808 300.325 367.59558 300.95Q366.78308 301.575 365.43933 301.575Q364.5487 301.575 363.78308 301.23126Q363.03308 300.8875 362.6112 300.3094Q362.20496 299.71564 362.20496 298.98126L363.32996 298.98126Q363.32996 299.7469 363.90808 300.2Q364.4862 300.65314 365.43933 300.65314Q366.32996 300.65314 366.7987 300.29376Q367.26746 299.91876 367.26746 299.29376Q367.26746 298.66876 366.82996 298.325Q366.39246 297.98126 365.2362 297.65314ZM371.32996 298.5125L370.64246 299.21564L370.64246 301.45L369.56433 301.45L369.56433 292.45L370.64246 292.45L370.64246 297.8875L371.22058 297.2L373.20496 295.10626L374.51746 295.10626L372.0487 297.7625L374.81433 301.45L373.53308 301.45L371.32996 298.5125ZM377.62683 299.85626L379.1112 295.10626L380.26746 295.10626L377.72058 302.4344Q377.12683 304.0125 375.84558 304.0125L375.62683 303.9969L375.2362 303.91876L375.2362 303.04376L375.51746 303.0594Q376.07996 303.0594 376.37683 302.84064Q376.68933 302.6219 376.89246 302.02814L377.12683 301.3719L374.8612 295.10626L376.0487 295.10626L377.62683 299.85626ZM382.8612 300.52814L386.90808 300.52814L386.90808 301.45L381.72058 301.45L381.72058 292.91876L382.8612 292.91876L382.8612 300.52814ZM388.7362 301.45L387.65808 301.45L387.65808 295.10626L388.7362 295.10626L388.7362 301.45ZM387.56433 293.4344Q387.56433 293.16876 387.72058 292.98126Q387.89246 292.79376 388.20496 292.79376Q388.51746 292.79376 388.6737 292.98126Q388.84558 293.16876 388.84558 293.4344Q388.84558 293.6844 388.6737 293.8719Q388.51746 294.04376 388.20496 294.04376Q387.89246 294.04376 387.72058 293.8719Q387.56433 293.6844 387.56433 293.4344ZM391.57996 295.10626L391.6112 295.90314Q392.34558 294.9969 393.51746 294.9969Q395.53308 294.9969 395.5487 297.2625L395.5487 301.45L394.45496 301.45L394.45496 297.2469Q394.45496 296.575 394.14246 296.2469Q393.84558 295.91876 393.18933 295.91876Q392.65808 295.91876 392.25183 296.2Q391.8612 296.48126 391.64246 296.9344L391.64246 301.45L390.56433 301.45L390.56433 295.10626L391.57996 295.10626ZM399.32996 298.5125L398.64246 299.21564L398.64246 301.45L397.56433 301.45L397.56433 292.45L398.64246 292.45L398.64246 297.8875L399.22058 297.2L401.20496 295.10626L402.51746 295.10626L400.0487 297.7625L402.81433 301.45L401.53308 301.45L399.32996 298.5125Z" fill-rule="nonzero"/><path fill="#757575" d="M437.75552 297.46564Q437.75552 298.71564 437.33365 299.65314Q436.91177 300.575 436.13052 301.075Q435.3649 301.575 434.33365 301.575Q433.33365 301.575 432.5524 301.075Q431.77115 300.575 431.33365 299.66876Q430.91177 298.7469 430.89615 297.52814L430.89615 296.91876Q430.89615 295.6844 431.31802 294.7469Q431.75552 293.8094 432.53677 293.3094Q433.31802 292.79376 434.33365 292.79376Q435.34927 292.79376 436.13052 293.29376Q436.91177 293.79376 437.33365 294.73126Q437.75552 295.66876 437.75552 296.91876L437.75552 297.46564ZM436.64615 296.90314Q436.64615 295.3875 436.03677 294.575Q435.4274 293.7625 434.33365 293.7625Q433.25552 293.7625 432.64615 294.575Q432.03677 295.3875 432.02115 296.825L432.02115 297.46564Q432.02115 298.9344 432.63052 299.77814Q433.25552 300.60626 434.33365 300.60626Q435.4274 300.60626 436.02115 299.825Q436.63052 299.02814 436.64615 297.54376L436.64615 296.90314ZM444.38052 298.35626Q444.38052 299.79376 443.72427 300.6844Q443.06802 301.575 441.9274 301.575Q440.77115 301.575 440.1149 300.84064L440.1149 303.8875L439.03677 303.8875L439.03677 295.10626L440.02115 295.10626L440.06802 295.8094Q440.7399 294.9969 441.91177 294.9969Q443.0524 294.9969 443.70865 295.85626Q444.38052 296.71564 444.38052 298.2469L444.38052 298.35626ZM443.3024 298.23126Q443.3024 297.15314 442.83365 296.54376Q442.38052 295.91876 441.58365 295.91876Q440.59927 295.91876 440.1149 296.77814L440.1149 299.8094Q440.59927 300.6844 441.59927 300.6844Q442.38052 300.6844 442.83365 300.075Q443.3024 299.45 443.3024 298.23126ZM448.66177 301.575Q447.3649 301.575 446.5524 300.73126Q445.75552 299.8719 445.75552 298.45L445.75552 298.2625Q445.75552 297.3094 446.1149 296.575Q446.47427 295.825 447.1149 295.41876Q447.77115 294.9969 448.52115 294.9969Q449.75552 294.9969 450.44302 295.8094Q451.13052 296.6219 451.13052 298.1375L451.13052 298.59064L446.83365 298.59064Q446.8649 299.52814 447.38052 300.10626Q447.91177 300.6844 448.72427 300.6844Q449.28677 300.6844 449.6774 300.45Q450.08365 300.21564 450.39615 299.825L451.0524 300.34064Q450.25552 301.575 448.66177 301.575ZM448.52115 295.8875Q447.8649 295.8875 447.41177 296.3719Q446.97427 296.84064 446.88052 297.7L450.0524 297.7L450.0524 297.6219Q450.00552 296.79376 449.59927 296.34064Q449.20865 295.8875 448.52115 295.8875ZM453.0524 295.10626L453.08365 295.90314Q453.81802 294.9969 454.9899 294.9969Q457.00552 294.9969 457.02115 297.2625L457.02115 301.45L455.9274 301.45L455.9274 297.2469Q455.9274 296.575 455.6149 296.2469Q455.31802 295.91876 454.66177 295.91876Q454.13052 295.91876 453.72427 296.2Q453.33365 296.48126 453.1149 296.9344L453.1149 301.45L452.03677 301.45L452.03677 295.10626L453.0524 295.10626ZM462.02115 299.95L464.45865 292.91876L465.69302 292.91876L462.52115 301.45L461.53677 301.45L458.38052 292.91876L459.59927 292.91876L462.02115 299.95ZM468.20865 301.45L467.13052 301.45L467.13052 295.10626L468.20865 295.10626L468.20865 301.45ZM467.03677 293.4344Q467.03677 293.16876 467.19302 292.98126Q467.3649 292.79376 467.6774 292.79376Q467.9899 292.79376 468.14615 292.98126Q468.31802 293.16876 468.31802 293.4344Q468.31802 293.6844 468.14615 293.8719Q467.9899 294.04376 467.6774 294.04376Q467.3649 294.04376 467.19302 293.8719Q467.03677 293.6844 467.03677 293.4344ZM469.77115 298.23126Q469.77115 296.7625 470.45865 295.8875Q471.14615 294.9969 472.27115 294.9969Q473.38052 294.9969 474.03677 295.7469L474.03677 292.45L475.1149 292.45L475.1149 301.45L474.1149 301.45L474.06802 300.7625Q473.41177 301.575 472.25552 301.575Q471.16177 301.575 470.45865 300.66876Q469.77115 299.7625 469.77115 298.3094L469.77115 298.23126ZM470.84927 298.35626Q470.84927 299.4344 471.28677 300.04376Q471.7399 300.65314 472.52115 300.65314Q473.5524 300.65314 474.03677 299.71564L474.03677 296.8094Q473.5524 295.91876 472.53677 295.91876Q471.7399 295.91876 471.28677 296.52814Q470.84927 297.1375 470.84927 298.35626ZM480.94302 300.825Q480.31802 301.575 479.08365 301.575Q478.06802 301.575 477.53677 300.98126Q477.00552 300.3875 477.00552 299.23126L477.00552 295.10626L478.08365 295.10626L478.08365 299.2Q478.08365 300.65314 479.25552 300.65314Q480.50552 300.65314 480.91177 299.71564L480.91177 295.10626L482.00552 295.10626L482.00552 301.45L480.97427 301.45L480.94302 300.825Z" fill-rule="nonzero"/><path fill="#757575" d="M434.81802 313.10626L434.81802 316.45L433.69302 316.45L433.69302 307.91876L436.84927 307.91876Q438.2399 307.91876 439.03677 308.6375Q439.83365 309.34064 439.83365 310.52814Q439.83365 311.7625 439.0524 312.4344Q438.28677 313.10626 436.83365 313.10626L434.81802 313.10626ZM434.81802 312.1844L436.84927 312.1844Q437.75552 312.1844 438.22427 311.7625Q438.70865 311.34064 438.70865 310.54376Q438.70865 309.77814 438.22427 309.325Q437.75552 308.85626 436.91177 308.84064L434.81802 308.84064L434.81802 312.1844ZM444.59927 311.075Q444.34927 311.04376 444.06802 311.04376Q442.9899 311.04376 442.6149 311.95L442.6149 316.45L441.53677 316.45L441.53677 310.10626L442.58365 310.10626L442.59927 310.84064Q443.13052 309.9969 444.1149 309.9969Q444.4274 309.9969 444.59927 310.075L444.59927 311.075ZM445.2399 313.21564Q445.2399 312.29376 445.59927 311.54376Q445.97427 310.79376 446.63052 310.40314Q447.28677 309.9969 448.1149 309.9969Q449.41177 309.9969 450.20865 310.8875Q451.02115 311.77814 451.02115 313.27814L451.02115 313.35626Q451.02115 314.27814 450.66177 315.0125Q450.3024 315.7469 449.64615 316.16876Q448.9899 316.575 448.13052 316.575Q446.84927 316.575 446.03677 315.6844Q445.2399 314.77814 445.2399 313.29376L445.2399 313.21564ZM446.33365 313.35626Q446.33365 314.40314 446.81802 315.04376Q447.31802 315.6844 448.13052 315.6844Q448.95865 315.6844 449.44302 315.04376Q449.9274 314.3875 449.9274 313.21564Q449.9274 312.1844 449.4274 311.54376Q448.94302 310.8875 448.1149 310.8875Q447.31802 310.8875 446.81802 311.52814Q446.33365 312.15314 446.33365 313.35626ZM460.41177 314.21564L456.83365 314.21564L456.03677 316.45L454.88052 316.45L458.13052 307.91876L459.1149 307.91876L462.38052 316.45L461.22427 316.45L460.41177 314.21564ZM457.1774 313.29376L460.08365 313.29376L458.63052 309.3094L457.1774 313.29376ZM465.53677 313.7625L465.70865 314.8875L465.94302 313.8719L467.63052 307.91876L468.58365 307.91876L470.22427 313.8719L470.45865 314.90314L470.64615 313.7469L471.97427 307.91876L473.09927 307.91876L471.03677 316.45L470.00552 316.45L468.2399 310.23126L468.1149 309.575L467.97427 310.23126L466.16177 316.45L465.13052 316.45L463.06802 307.91876L464.19302 307.91876L465.53677 313.7625ZM477.20865 312.65314Q475.77115 312.23126 475.09927 311.6219Q474.44302 311.0125 474.44302 310.1219Q474.44302 309.1219 475.2399 308.46564Q476.0524 307.79376 477.34927 307.79376Q478.22427 307.79376 478.91177 308.1375Q479.59927 308.48126 479.97427 309.075Q480.3649 309.66876 480.3649 310.3875L479.22427 310.3875Q479.22427 309.60626 478.72427 309.16876Q478.2399 308.73126 477.34927 308.73126Q476.52115 308.73126 476.0524 309.10626Q475.58365 309.46564 475.58365 310.10626Q475.58365 310.6375 476.02115 310.9969Q476.47427 311.35626 477.53677 311.65314Q478.59927 311.95 479.19302 312.3094Q479.8024 312.66876 480.08365 313.15314Q480.38052 313.6375 480.38052 314.27814Q480.38052 315.325 479.56802 315.95Q478.75552 316.575 477.41177 316.575Q476.52115 316.575 475.75552 316.23126Q475.00552 315.8875 474.58365 315.3094Q474.1774 314.71564 474.1774 313.98126L475.3024 313.98126Q475.3024 314.7469 475.88052 315.2Q476.45865 315.65314 477.41177 315.65314Q478.3024 315.65314 478.77115 315.29376Q479.2399 314.91876 479.2399 314.29376Q479.2399 313.66876 478.8024 313.325Q478.3649 312.98126 477.20865 312.65314Z" fill-rule="nonzero"/><path fill="#757575" d="M512.22797 297.46564Q512.22797 298.71564 511.8061 299.65314Q511.38422 300.575 510.60297 301.075Q509.83734 301.575 508.8061 301.575Q507.8061 301.575 507.02484 301.075Q506.2436 300.575 505.8061 299.66876Q505.38422 298.7469 505.3686 297.52814L505.3686 296.91876Q505.3686 295.6844 505.79047 294.7469Q506.22797 293.8094 507.00922 293.3094Q507.79047 292.79376 508.8061 292.79376Q509.82172 292.79376 510.60297 293.29376Q511.38422 293.79376 511.8061 294.73126Q512.22797 295.66876 512.22797 296.91876L512.22797 297.46564ZM511.1186 296.90314Q511.1186 295.3875 510.50922 294.575Q509.89984 293.7625 508.8061 293.7625Q507.72797 293.7625 507.1186 294.575Q506.50922 295.3875 506.4936 296.825L506.4936 297.46564Q506.4936 298.9344 507.10297 299.77814Q507.72797 300.60626 508.8061 300.60626Q509.89984 300.60626 510.4936 299.825Q511.10297 299.02814 511.1186 297.54376L511.1186 296.90314ZM518.85297 298.35626Q518.85297 299.79376 518.1967 300.6844Q517.54047 301.575 516.39984 301.575Q515.2436 301.575 514.58734 300.84064L514.58734 303.8875L513.5092 303.8875L513.5092 295.10626L514.4936 295.10626L514.54047 295.8094Q515.21234 294.9969 516.3842 294.9969Q517.52484 294.9969 518.1811 295.85626Q518.85297 296.71564 518.85297 298.2469L518.85297 298.35626ZM517.77484 298.23126Q517.77484 297.15314 517.3061 296.54376Q516.85297 295.91876 516.0561 295.91876Q515.0717 295.91876 514.58734 296.77814L514.58734 299.8094Q515.0717 300.6844 516.0717 300.6844Q516.85297 300.6844 517.3061 300.075Q517.77484 299.45 517.77484 298.23126ZM523.1342 301.575Q521.83734 301.575 521.02484 300.73126Q520.22797 299.8719 520.22797 298.45L520.22797 298.2625Q520.22797 297.3094 520.58734 296.575Q520.9467 295.825 521.58734 295.41876Q522.2436 294.9969 522.9936 294.9969Q524.22797 294.9969 524.91547 295.8094Q525.60297 296.6219 525.60297 298.1375L525.60297 298.59064L521.3061 298.59064Q521.33734 299.52814 521.85297 300.10626Q522.3842 300.6844 523.1967 300.6844Q523.7592 300.6844 524.14984 300.45Q524.5561 300.21564 524.8686 299.825L525.52484 300.34064Q524.72797 301.575 523.1342 301.575ZM522.9936 295.8875Q522.33734 295.8875 521.8842 296.3719Q521.4467 296.84064 521.35297 297.7L524.52484 297.7L524.52484 297.6219Q524.47797 296.79376 524.0717 296.34064Q523.6811 295.8875 522.9936 295.8875ZM527.52484 295.10626L527.5561 295.90314Q528.29047 294.9969 529.46234 294.9969Q531.47797 294.9969 531.4936 297.2625L531.4936 301.45L530.39984 301.45L530.39984 297.2469Q530.39984 296.575 530.08734 296.2469Q529.79047 295.91876 529.1342 295.91876Q528.60297 295.91876 528.1967 296.2Q527.8061 296.48126 527.58734 296.9344L527.58734 301.45L526.5092 301.45L526.5092 295.10626L527.52484 295.10626ZM536.4936 299.95L538.9311 292.91876L540.16547 292.91876L536.9936 301.45L536.0092 301.45L532.85297 292.91876L534.0717 292.91876L536.4936 299.95ZM542.6811 301.45L541.60297 301.45L541.60297 295.10626L542.6811 295.10626L542.6811 301.45ZM541.5092 293.4344Q541.5092 293.16876 541.66547 292.98126Q541.83734 292.79376 542.14984 292.79376Q542.46234 292.79376 542.6186 292.98126Q542.79047 293.16876 542.79047 293.4344Q542.79047 293.6844 542.6186 293.8719Q542.46234 294.04376 542.14984 294.04376Q541.83734 294.04376 541.66547 293.8719Q541.5092 293.6844 541.5092 293.4344ZM544.2436 298.23126Q544.2436 296.7625 544.9311 295.8875Q545.6186 294.9969 546.7436 294.9969Q547.85297 294.9969 548.5092 295.7469L548.5092 292.45L549.58734 292.45L549.58734 301.45L548.58734 301.45L548.54047 300.7625Q547.8842 301.575 546.72797 301.575Q545.6342 301.575 544.9311 300.66876Q544.2436 299.7625 544.2436 298.3094L544.2436 298.23126ZM545.3217 298.35626Q545.3217 299.4344 545.7592 300.04376Q546.21234 300.65314 546.9936 300.65314Q548.02484 300.65314 548.5092 299.71564L548.5092 296.8094Q548.02484 295.91876 547.0092 295.91876Q546.21234 295.91876 545.7592 296.52814Q545.3217 297.1375 545.3217 298.35626ZM555.41547 300.825Q554.79047 301.575 553.5561 301.575Q552.54047 301.575 552.0092 300.98126Q551.47797 300.3875 551.47797 299.23126L551.47797 295.10626L552.5561 295.10626L552.5561 299.2Q552.5561 300.65314 553.72797 300.65314Q554.97797 300.65314 555.3842 299.71564L555.3842 295.10626L556.47797 295.10626L556.47797 301.45L555.4467 301.45L555.41547 300.825Z" fill-rule="nonzero"/><path fill="#757575" d="M514.29047 313.10626L514.29047 316.45L513.16547 316.45L513.16547 307.91876L516.3217 307.91876Q517.71234 307.91876 518.5092 308.6375Q519.3061 309.34064 519.3061 310.52814Q519.3061 311.7625 518.52484 312.4344Q517.7592 313.10626 516.3061 313.10626L514.29047 313.10626ZM514.29047 312.1844L516.3217 312.1844Q517.22797 312.1844 517.6967 311.7625Q518.1811 311.34064 518.1811 310.54376Q518.1811 309.77814 517.6967 309.325Q517.22797 308.85626 516.3842 308.84064L514.29047 308.84064L514.29047 312.1844ZM524.0717 311.075Q523.8217 311.04376 523.54047 311.04376Q522.46234 311.04376 522.08734 311.95L522.08734 316.45L521.0092 316.45L521.0092 310.10626L522.0561 310.10626L522.0717 310.84064Q522.60297 309.9969 523.58734 309.9969Q523.89984 309.9969 524.0717 310.075L524.0717 311.075ZM524.71234 313.21564Q524.71234 312.29376 525.0717 311.54376Q525.4467 310.79376 526.10297 310.40314Q526.7592 309.9969 527.58734 309.9969Q528.8842 309.9969 529.6811 310.8875Q530.4936 311.77814 530.4936 313.27814L530.4936 313.35626Q530.4936 314.27814 530.1342 315.0125Q529.77484 315.7469 529.1186 316.16876Q528.46234 316.575 527.60297 316.575Q526.3217 316.575 525.5092 315.6844Q524.71234 314.77814 524.71234 313.29376L524.71234 313.21564ZM525.8061 313.35626Q525.8061 314.40314 526.29047 315.04376Q526.79047 315.6844 527.60297 315.6844Q528.4311 315.6844 528.91547 315.04376Q529.39984 314.3875 529.39984 313.21564Q529.39984 312.1844 528.89984 311.54376Q528.41547 310.8875 527.58734 310.8875Q526.79047 310.8875 526.29047 311.52814Q525.8061 312.15314 525.8061 313.35626ZM535.16547 316.45L535.16547 307.91876L537.58734 307.91876Q538.6967 307.91876 539.54047 308.41876Q540.39984 308.90314 540.8686 309.8094Q541.33734 310.71564 541.33734 311.90314L541.33734 312.4344Q541.33734 313.65314 540.8686 314.5594Q540.41547 315.46564 539.54047 315.95Q538.6811 316.4344 537.54047 316.45L535.16547 316.45ZM536.29047 308.84064L536.29047 315.52814L537.47797 315.52814Q538.77484 315.52814 539.4936 314.73126Q540.22797 313.91876 540.22797 312.41876L540.22797 311.91876Q540.22797 310.46564 539.54047 309.66876Q538.8686 308.85626 537.60297 308.84064L536.29047 308.84064ZM549.72797 312.46564Q549.72797 313.71564 549.3061 314.65314Q548.8842 315.575 548.10297 316.075Q547.33734 316.575 546.3061 316.575Q545.3061 316.575 544.52484 316.075Q543.7436 315.575 543.3061 314.66876Q542.8842 313.7469 542.8686 312.52814L542.8686 311.91876Q542.8686 310.6844 543.29047 309.7469Q543.72797 308.8094 544.5092 308.3094Q545.29047 307.79376 546.3061 307.79376Q547.3217 307.79376 548.10297 308.29376Q548.8842 308.79376 549.3061 309.73126Q549.72797 310.66876 549.72797 311.91876L549.72797 312.46564ZM548.6186 311.90314Q548.6186 310.3875 548.0092 309.575Q547.39984 308.7625 546.3061 308.7625Q545.22797 308.7625 544.6186 309.575Q544.0092 310.3875 543.9936 311.825L543.9936 312.46564Q543.9936 313.9344 544.60297 314.77814Q545.22797 315.60626 546.3061 315.60626Q547.39984 315.60626 547.9936 314.825Q548.60297 314.02814 548.6186 312.54376L548.6186 311.90314Z" fill-rule="nonzero"/><path fill="#757575" d="M30.659374 33.034374Q30.39375 35.3 28.9875 36.534374Q27.596874 37.753124 25.26875 37.753124Q22.753124 37.753124 21.221874 35.940624Q19.70625 34.128124 19.70625 31.096874L19.70625 29.7375Q19.70625 27.753124 20.409374 26.253124Q21.128124 24.753124 22.425 23.940624Q23.721874 23.128124 25.440624 23.128124Q27.70625 23.128124 29.065624 24.39375Q30.440624 25.659374 30.659374 27.89375L28.76875 27.89375Q28.534374 26.20625 27.70625 25.440624Q26.89375 24.675 25.440624 24.675Q23.64375 24.675 22.6125 26.003124Q21.596874 27.33125 21.596874 29.784374L21.596874 31.159374Q21.596874 33.471874 22.565624 34.846874Q23.534374 36.20625 25.26875 36.20625Q26.83125 36.20625 27.659374 35.503124Q28.503124 34.8 28.76875 33.034374L30.659374 33.034374ZM32.440624 32.175Q32.440624 30.6125 33.05 29.378124Q33.659374 28.128124 34.7375 27.45625Q35.83125 26.784374 37.2375 26.784374Q39.39375 26.784374 40.721874 28.284374Q42.065624 29.76875 42.065624 32.253124L42.065624 32.378124Q42.065624 33.925 41.471874 35.159374Q40.878124 36.378124 39.76875 37.065624Q38.675 37.753124 37.253124 37.753124Q35.1125 37.753124 33.76875 36.253124Q32.440624 34.753124 32.440624 32.3L32.440624 32.175ZM34.253124 32.378124Q34.253124 34.14375 35.065624 35.20625Q35.89375 36.26875 37.253124 36.26875Q38.628124 36.26875 39.440624 35.190624Q40.253124 34.1125 40.253124 32.175Q40.253124 30.425 39.425 29.346874Q38.596874 28.26875 37.2375 28.26875Q35.89375 28.26875 35.065624 29.33125Q34.253124 30.39375 34.253124 32.378124ZM50.065624 34.753124Q50.065624 34.01875 49.51875 33.6125Q48.971874 33.20625 47.596874 32.909374Q46.221874 32.6125 45.409374 32.20625Q44.6125 31.8 44.221874 31.2375Q43.846874 30.659374 43.846874 29.878124Q43.846874 28.58125 44.940624 27.690624Q46.034374 26.784374 47.753124 26.784374Q49.55 26.784374 50.659374 27.721874Q51.784374 28.64375 51.784374 30.08125L49.95625 30.08125Q49.95625 29.346874 49.33125 28.815624Q48.70625 28.26875 47.753124 28.26875Q46.753124 28.26875 46.190624 28.70625Q45.64375 29.128124 45.64375 29.83125Q45.64375 30.471874 46.159374 30.815624Q46.675 31.14375 48.034374 31.45625Q49.39375 31.753124 50.221874 32.175Q51.065624 32.58125 51.471874 33.175Q51.878124 33.76875 51.878124 34.6125Q51.878124 36.034374 50.7375 36.89375Q49.6125 37.753124 47.8 37.753124Q46.534374 37.753124 45.55 37.3Q44.58125 36.846874 44.01875 36.05Q43.471874 35.2375 43.471874 34.3L45.284374 34.3Q45.33125 35.20625 46.003124 35.7375Q46.690624 36.26875 47.8 36.26875Q48.83125 36.26875 49.440624 35.8625Q50.065624 35.440624 50.065624 34.753124ZM56.3625 24.425L56.3625 26.9875L58.346874 26.9875L58.346874 28.378124L56.3625 28.378124L56.3625 34.925Q56.3625 35.565624 56.628124 35.89375Q56.89375 36.20625 57.534374 36.20625Q57.846874 36.20625 58.39375 36.08125L58.39375 37.55Q57.675 37.753124 57.003124 37.753124Q55.8 37.753124 55.175 37.01875Q54.565624 36.284374 54.565624 34.925L54.565624 28.378124L52.64375 28.378124L52.64375 26.9875L54.565624 26.9875L54.565624 24.425L56.3625 24.425ZM74.84688 32.378124Q74.84688 34.8 73.7375 36.284374Q72.64375 37.753124 70.75313 37.753124Q68.83125 37.753124 67.72188 36.51875L67.72188 41.6125L65.925 41.6125L65.925 26.9875L67.56563 26.9875L67.65938 28.159374Q68.75313 26.784374 70.72188 26.784374Q72.62813 26.784374 73.7375 28.221874Q74.84688 29.659374 74.84688 32.221874L74.84688 32.378124ZM73.03438 32.175Q73.03438 30.39375 72.26875 29.3625Q71.51875 28.315624 70.19063 28.315624Q68.55 28.315624 67.72188 29.76875L67.72188 34.83125Q68.53438 36.26875 70.20625 36.26875Q71.50313 36.26875 72.26875 35.2375Q73.03438 34.20625 73.03438 32.175ZM81.3 37.753124Q79.15938 37.753124 77.8 36.346874Q76.45625 34.925 76.45625 32.565624L76.45625 32.221874Q76.45625 30.659374 77.05 29.425Q77.65938 28.190624 78.7375 27.4875Q79.81563 26.784374 81.08125 26.784374Q83.14375 26.784374 84.28438 28.14375Q85.425 29.503124 85.425 32.034374L85.425 32.784374L78.26875 32.784374Q78.3 34.346874 79.175 35.315624Q80.05 36.26875 81.39375 36.26875Q82.3625 36.26875 83.01875 35.878124Q83.69063 35.4875 84.19063 34.846874L85.28438 35.70625Q83.95625 37.753124 81.3 37.753124ZM81.08125 28.26875Q79.9875 28.26875 79.2375 29.065624Q78.50313 29.8625 78.33125 31.3L83.6125 31.3L83.6125 31.159374Q83.53438 29.784374 82.8625 29.034374Q82.20625 28.26875 81.08125 28.26875ZM93.01875 28.596874Q92.6125 28.534374 92.14375 28.534374Q90.3625 28.534374 89.72188 30.05L89.72188 37.55L87.925 37.55L87.925 26.9875L89.675 26.9875L89.70625 28.20625Q90.59688 26.784374 92.22188 26.784374Q92.75313 26.784374 93.01875 26.925L93.01875 28.596874ZM108.84688 32.378124Q108.84688 34.8 107.7375 36.284374Q106.64375 37.753124 104.75313 37.753124Q102.83125 37.753124 101.72188 36.51875L101.72188 41.6125L99.925 41.6125L99.925 26.9875L101.56563 26.9875L101.65938 28.159374Q102.75313 26.784374 104.72188 26.784374Q106.62813 26.784374 107.7375 28.221874Q108.84688 29.659374 108.84688 32.221874L108.84688 32.378124ZM107.03438 32.175Q107.03438 30.39375 106.26875 29.3625Q105.51875 28.315624 104.19063 28.315624Q102.55 28.315624 101.72188 29.76875L101.72188 34.83125Q102.53438 36.26875 104.20625 36.26875Q105.50313 36.26875 106.26875 35.2375Q107.03438 34.20625 107.03438 32.175ZM117.44063 37.55Q117.28438 37.2375 117.19063 36.440624Q115.925 37.753124 114.175 37.753124Q112.6125 37.753124 111.6125 36.8625Q110.6125 35.971874 110.6125 34.6125Q110.6125 32.971874 111.8625 32.065624Q113.12813 31.14375 115.39375 31.14375L117.15938 31.14375L117.15938 30.315624Q117.15938 29.3625 116.58125 28.8Q116.01875 28.2375 114.925 28.2375Q113.95625 28.2375 113.3 28.7375Q112.64375 29.221874 112.64375 29.909374L110.83125 29.909374Q110.83125 29.128124 111.39375 28.39375Q111.95625 27.64375 112.90938 27.221874Q113.87813 26.784374 115.03438 26.784374Q116.8625 26.784374 117.89375 27.70625Q118.925 28.6125 118.97188 30.221874L118.97188 35.08125Q118.97188 36.534374 119.33125 37.39375L119.33125 37.55L117.44063 37.55ZM114.44063 36.175Q115.3 36.175 116.05 35.7375Q116.81563 35.3 117.15938 34.596874L117.15938 32.425L115.7375 32.425Q112.425 32.425 112.425 34.3625Q112.425 35.221874 112.9875 35.70625Q113.55 36.175 114.44063 36.175ZM127.01875 28.596874Q126.6125 28.534374 126.14375 28.534374Q124.3625 28.534374 123.72188 30.05L123.72188 37.55L121.925 37.55L121.925 26.9875L123.675 26.9875L123.70625 28.20625Q124.59688 26.784374 126.22188 26.784374Q126.75313 26.784374 127.01875 26.925L127.01875 28.596874ZM131.3625 24.425L131.3625 26.9875L133.34688 26.9875L133.34688 28.378124L131.3625 28.378124L131.3625 34.925Q131.3625 35.565624 131.62813 35.89375Q131.89375 36.20625 132.53438 36.20625Q132.84688 36.20625 133.39375 36.08125L133.39375 37.55Q132.675 37.753124 132.00313 37.753124Q130.8 37.753124 130.175 37.01875Q129.56563 36.284374 129.56563 34.925L129.56563 28.378124L127.64375 28.378124L127.64375 26.9875L129.56563 26.9875L129.56563 24.425L131.3625 24.425ZM137.87813 37.55L136.08125 37.55L136.08125 26.9875L137.87813 26.9875L137.87813 37.55ZM135.925 24.175Q135.925 23.7375 136.19063 23.440624Q136.47188 23.128124 136.9875 23.128124Q137.51875 23.128124 137.78438 23.440624Q138.06563 23.7375 138.06563 24.175Q138.06563 24.6125 137.78438 24.909374Q137.51875 25.20625 136.9875 25.20625Q136.47188 25.20625 136.19063 24.909374Q135.925 24.6125 135.925 24.175ZM145.15938 36.26875Q146.12813 36.26875 146.84688 35.690624Q147.56563 35.096874 147.64375 34.221874L149.3625 34.221874Q149.3 35.128124 148.72188 35.95625Q148.15938 36.76875 147.19063 37.26875Q146.2375 37.753124 145.15938 37.753124Q143.00313 37.753124 141.72188 36.315624Q140.45625 34.8625 140.45625 32.3625L140.45625 32.065624Q140.45625 30.51875 141.01875 29.315624Q141.58125 28.1125 142.64375 27.45625Q143.70625 26.784374 145.14375 26.784374Q146.925 26.784374 148.09688 27.846874Q149.28438 28.909374 149.3625 30.6125L147.64375 30.6125Q147.56563 29.596874 146.8625 28.940624Q146.175 28.26875 145.14375 28.26875Q143.76875 28.26875 143.00313 29.26875Q142.25313 30.253124 142.25313 32.128124L142.25313 32.471874Q142.25313 34.3 143.00313 35.284374Q143.75313 36.26875 145.15938 36.26875ZM152.87813 37.55L151.08125 37.55L151.08125 26.9875L152.87813 26.9875L152.87813 37.55ZM150.925 24.175Q150.925 23.7375 151.19063 23.440624Q151.47188 23.128124 151.9875 23.128124Q152.51875 23.128124 152.78438 23.440624Q153.06563 23.7375 153.06563 24.175Q153.06563 24.6125 152.78438 24.909374Q152.51875 25.20625 151.9875 25.20625Q151.47188 25.20625 151.19063 24.909374Q150.925 24.6125 150.925 24.175ZM164.84688 32.378124Q164.84688 34.8 163.7375 36.284374Q162.64375 37.753124 160.75313 37.753124Q158.83125 37.753124 157.72188 36.51875L157.72188 41.6125L155.925 41.6125L155.925 26.9875L157.56563 26.9875L157.65938 28.159374Q158.75313 26.784374 160.72188 26.784374Q162.62813 26.784374 163.7375 28.221874Q164.84688 29.659374 164.84688 32.221874L164.84688 32.378124ZM163.03438 32.175Q163.03438 30.39375 162.26875 29.3625Q161.51875 28.315624 160.19063 28.315624Q158.55 28.315624 157.72188 29.76875L157.72188 34.83125Q158.53438 36.26875 160.20625 36.26875Q161.50313 36.26875 162.26875 35.2375Q163.03438 34.20625 163.03438 32.175ZM173.44063 37.55Q173.28438 37.2375 173.19063 36.440624Q171.925 37.753124 170.175 37.753124Q168.6125 37.753124 167.6125 36.8625Q166.6125 35.971874 166.6125 34.6125Q166.6125 32.971874 167.8625 32.065624Q169.12813 31.14375 171.39375 31.14375L173.15938 31.14375L173.15938 30.315624Q173.15938 29.3625 172.58125 28.8Q172.01875 28.2375 170.925 28.2375Q169.95625 28.2375 169.3 28.7375Q168.64375 29.221874 168.64375 29.909374L166.83125 29.909374Q166.83125 29.128124 167.39375 28.39375Q167.95625 27.64375 168.90938 27.221874Q169.87813 26.784374 171.03438 26.784374Q172.8625 26.784374 173.89375 27.70625Q174.925 28.6125 174.97188 30.221874L174.97188 35.08125Q174.97188 36.534374 175.33125 37.39375L175.33125 37.55L173.44063 37.55ZM170.44063 36.175Q171.3 36.175 172.05 35.7375Q172.81563 35.3 173.15938 34.596874L173.15938 32.425L171.7375 32.425Q168.425 32.425 168.425 34.3625Q168.425 35.221874 168.9875 35.70625Q169.55 36.175 170.44063 36.175ZM179.62813 26.9875L179.69063 28.315624Q180.89375 26.784374 182.84688 26.784374Q186.20625 26.784374 186.22188 30.565624L186.22188 37.55L184.425 37.55L184.425 30.55Q184.40938 29.409374 183.89375 28.8625Q183.39375 28.315624 182.3 28.315624Q181.425 28.315624 180.75313 28.784374Q180.09688 29.253124 179.72188 30.01875L179.72188 37.55L177.925 37.55L177.925 26.9875L179.62813 26.9875ZM191.3625 24.425L191.3625 26.9875L193.34688 26.9875L193.34688 28.378124L191.3625 28.378124L191.3625 34.925Q191.3625 35.565624 191.62813 35.89375Q191.89375 36.20625 192.53438 36.20625Q192.84688 36.20625 193.39375 36.08125L193.39375 37.55Q192.675 37.753124 192.00313 37.753124Q190.8 37.753124 190.175 37.01875Q189.56563 36.284374 189.56563 34.925L189.56563 28.378124L187.64375 28.378124L187.64375 26.9875L189.56563 26.9875L189.56563 24.425L191.3625 24.425ZM209.84688 32.378124Q209.84688 34.8 208.7375 36.284374Q207.64375 37.753124 205.75313 37.753124Q203.83125 37.753124 202.72188 36.51875L202.72188 41.6125L200.925 41.6125L200.925 26.9875L202.56563 26.9875L202.65938 28.159374Q203.75313 26.784374 205.72188 26.784374Q207.62813 26.784374 208.7375 28.221874Q209.84688 29.659374 209.84688 32.221874L209.84688 32.378124ZM208.03438 32.175Q208.03438 30.39375 207.26875 29.3625Q206.51875 28.315624 205.19063 28.315624Q203.55 28.315624 202.72188 29.76875L202.72188 34.83125Q203.53438 36.26875 205.20625 36.26875Q206.50313 36.26875 207.26875 35.2375Q208.03438 34.20625 208.03438 32.175ZM216.3 37.753124Q214.15938 37.753124 212.8 36.346874Q211.45625 34.925 211.45625 32.565624L211.45625 32.221874Q211.45625 30.659374 212.05 29.425Q212.65938 28.190624 213.7375 27.4875Q214.81563 26.784374 216.08125 26.784374Q218.14375 26.784374 219.28438 28.14375Q220.425 29.503124 220.425 32.034374L220.425 32.784374L213.26875 32.784374Q213.3 34.346874 214.175 35.315624Q215.05 36.26875 216.39375 36.26875Q217.3625 36.26875 218.01875 35.878124Q218.69063 35.4875 219.19063 34.846874L220.28438 35.70625Q218.95625 37.753124 216.3 37.753124ZM216.08125 28.26875Q214.9875 28.26875 214.2375 29.065624Q213.50313 29.8625 213.33125 31.3L218.6125 31.3L218.6125 31.159374Q218.53438 29.784374 217.8625 29.034374Q217.20625 28.26875 216.08125 28.26875ZM228.01875 28.596874Q227.6125 28.534374 227.14375 28.534374Q225.3625 28.534374 224.72188 30.05L224.72188 37.55L222.925 37.55L222.925 26.9875L224.675 26.9875L224.70625 28.20625Q225.59688 26.784374 227.22188 26.784374Q227.75313 26.784374 228.01875 26.925L228.01875 28.596874ZM236.6125 26.9875L236.65938 28.159374Q237.83125 26.784374 239.8 26.784374Q242.01875 26.784374 242.81563 28.4875Q243.34688 27.721874 244.19063 27.253124Q245.03438 26.784374 246.19063 26.784374Q249.65938 26.784374 249.72188 30.471874L249.72188 37.55L247.90938 37.55L247.90938 30.58125Q247.90938 29.440624 247.39375 28.878124Q246.87813 28.315624 245.65938 28.315624Q244.65938 28.315624 243.9875 28.925Q243.33125 29.51875 243.22188 30.534374L243.22188 37.55L241.40938 37.55L241.40938 30.628124Q241.40938 28.315624 239.14375 28.315624Q237.3625 28.315624 236.72188 29.83125L236.72188 37.55L234.90938 37.55L234.90938 26.9875L236.6125 26.9875ZM254.87813 37.55L253.08125 37.55L253.08125 26.9875L254.87813 26.9875L254.87813 37.55ZM252.925 24.175Q252.925 23.7375 253.19063 23.440624Q253.47188 23.128124 253.9875 23.128124Q254.51875 23.128124 254.78438 23.440624Q255.06563 23.7375 255.06563 24.175Q255.06563 24.6125 254.78438 24.909374Q254.51875 25.20625 253.9875 25.20625Q253.47188 25.20625 253.19063 24.909374Q252.925 24.6125 252.925 24.175ZM259.6281 26.9875L259.6906 28.315624Q260.89374 26.784374 262.84686 26.784374Q266.20624 26.784374 266.22186 30.565624L266.22186 37.55L264.425 37.55L264.425 30.55Q264.40936 29.409374 263.89374 28.8625Q263.39374 28.315624 262.3 28.315624Q261.425 28.315624 260.7531 28.784374Q260.09686 29.253124 259.72186 30.01875L259.72186 37.55L257.925 37.55L257.925 26.9875L259.6281 26.9875ZM275.4406 36.503124Q274.39374 37.753124 272.34686 37.753124Q270.65936 37.753124 269.76874 36.76875Q268.89374 35.784374 268.8781 33.8625L268.8781 26.9875L270.6906 26.9875L270.6906 33.815624Q270.6906 36.20625 272.64374 36.20625Q274.70624 36.20625 275.39374 34.675L275.39374 26.9875L277.20624 26.9875L277.20624 37.55L275.4875 37.55L275.4406 36.503124ZM282.3625 24.425L282.3625 26.9875L284.34686 26.9875L284.34686 28.378124L282.3625 28.378124L282.3625 34.925Q282.3625 35.565624 282.6281 35.89375Q282.89374 36.20625 283.53436 36.20625Q283.84686 36.20625 284.39374 36.08125L284.39374 37.55Q283.675 37.753124 283.0031 37.753124Q281.8 37.753124 281.175 37.01875Q280.5656 36.284374 280.5656 34.925L280.5656 28.378124L278.64374 28.378124L278.64374 26.9875L280.5656 26.9875L280.5656 24.425L282.3625 24.425ZM291.3 37.753124Q289.15936 37.753124 287.8 36.346874Q286.45624 34.925 286.45624 32.565624L286.45624 32.221874Q286.45624 30.659374 287.05 29.425Q287.65936 28.190624 288.7375 27.4875Q289.8156 26.784374 291.08124 26.784374Q293.14374 26.784374 294.28436 28.14375Q295.425 29.503124 295.425 32.034374L295.425 32.784374L288.26874 32.784374Q288.3 34.346874 289.175 35.315624Q290.05 36.26875 291.39374 36.26875Q292.3625 36.26875 293.01874 35.878124Q293.6906 35.4875 294.1906 34.846874L295.28436 35.70625Q293.95624 37.753124 291.3 37.753124ZM291.08124 28.26875Q289.9875 28.26875 289.2375 29.065624Q288.5031 29.8625 288.33124 31.3L293.6125 31.3L293.6125 31.159374Q293.53436 29.784374 292.8625 29.034374Q292.20624 28.26875 291.08124 28.26875ZM304.8781 37.55L303.08124 37.55L303.08124 26.9875L304.8781 26.9875L304.8781 37.55ZM302.925 24.175Q302.925 23.7375 303.1906 23.440624Q303.47186 23.128124 303.9875 23.128124Q304.51874 23.128124 304.78436 23.440624Q305.0656 23.7375 305.0656 24.175Q305.0656 24.6125 304.78436 24.909374Q304.51874 25.20625 303.9875 25.20625Q303.47186 25.20625 303.1906 24.909374Q302.925 24.6125 302.925 24.175ZM309.6281 26.9875L309.6906 28.315624Q310.89374 26.784374 312.84686 26.784374Q316.20624 26.784374 316.22186 30.565624L316.22186 37.55L314.425 37.55L314.425 30.55Q314.40936 29.409374 313.89374 28.8625Q313.39374 28.315624 312.3 28.315624Q311.425 28.315624 310.7531 28.784374Q310.09686 29.253124 309.72186 30.01875L309.72186 37.55L307.925 37.55L307.925 26.9875L309.6281 26.9875ZM330.90936 33.89375Q330.90936 32.9875 330.26874 32.378124Q329.64374 31.753124 328.15936 31.253124Q326.08124 30.628124 325.1281 29.6125Q324.175 28.58125 324.175 27.01875Q324.175 25.409374 325.09686 24.39375Q326.03436 23.3625 327.675 23.159374L327.675 21.01875L329.1281 21.01875L329.1281 23.175Q330.76874 23.39375 331.675 24.55Q332.59686 25.70625 332.59686 27.70625L330.8 27.70625Q330.8 26.33125 330.14374 25.51875Q329.4875 24.70625 328.3781 24.70625Q327.20624 24.70625 326.58124 25.315624Q325.97186 25.909374 325.97186 26.9875Q325.97186 27.971874 326.6281 28.565624Q327.28436 29.159374 328.76874 29.64375Q330.2531 30.128124 331.08124 30.70625Q331.925 31.284374 332.3156 32.065624Q332.72186 32.83125 332.72186 33.8625Q332.72186 35.51875 331.72186 36.534374Q330.7375 37.534374 328.9406 37.721874L328.9406 39.58125L327.5031 39.58125L327.5031 37.721874Q325.6906 37.55 324.65936 36.425Q323.6281 35.3 323.6281 33.3625L325.425 33.3625Q325.425 34.721874 326.14374 35.45625Q326.8625 36.175 328.15936 36.175Q329.4406 36.175 330.175 35.565624Q330.90936 34.95625 330.90936 33.89375ZM341.76874 27.95625L338.83124 27.065624L339.26874 25.596874L342.22186 26.690624L342.1281 23.33125L343.6281 23.33125L343.53436 26.7375L346.425 25.659374L346.8781 27.14375L343.8781 28.034374L345.8156 30.690624L344.6125 31.596874L342.78436 28.784374L341.03436 31.534374L339.8156 30.64375L341.76874 27.95625Z" fill-rule="nonzero"/></svg>