<?xml version="1.0" encoding="UTF-8" standalone="no"?>
<!DOCTYPE svg PUBLIC "-//W3C//DTD SVG 1.1//EN"
 "http://www.w3.org/Graphics/SVG/1.1/DTD/svg11.dtd">
<!-- Generated by graphviz version 5.0.0 (20220707.1540)
 -->
<!-- Title: dependencies Pages: 1 -->
<svg width="284pt" height="174pt"
 viewBox="0.00 0.00 284.00 173.80" xmlns="http://www.w3.org/2000/svg" xmlns:xlink="http://www.w3.org/1999/xlink">
<g id="graph0" class="graph" transform="scale(1 1) rotate(0) translate(4 169.8)">
<title>dependencies</title>
<polygon fill="white" stroke="transparent" points="-4,4 -4,-169.8 280,-169.8 280,4 -4,4"/>
<text text-anchor="middle" x="138" y="-8.2" font-family="sans-serif" font-size="14.00">dependencies</text>
<g id="clust1" class="cluster">
<title>cluster_OpenviduWebComponentModule</title>
<polygon fill="none" stroke="black" stroke-dasharray="1,5" points="8,-32.8 8,-157.8 268,-157.8 268,-32.8 8,-32.8"/>
</g>
<g id="clust2" class="cluster">
<title>cluster_OpenviduWebComponentModule_declarations</title>
<polygon fill="none" stroke="black" points="16,-40.8 16,-92.8 260,-92.8 260,-40.8 16,-40.8"/>
</g>
<!-- OpenviduWebComponentComponent -->
<g id="node1" class="node">
<title>OpenviduWebComponentComponent</title>
<polygon fill="#ffffb3" stroke="black" points="252.3,-84.8 23.7,-84.8 23.7,-48.8 252.3,-48.8 252.3,-84.8"/>
<text text-anchor="middle" x="138" y="-62.6" font-family="Times,serif" font-size="14.00">OpenviduWebComponentComponent</text>
</g>
<!-- OpenviduWebComponentModule -->
<g id="node2" class="node">
<title>OpenviduWebComponentModule</title>
<polygon fill="#8dd3c7" stroke="black" points="241.02,-149.8 238.02,-153.8 217.02,-153.8 214.02,-149.8 34.98,-149.8 34.98,-113.8 241.02,-113.8 241.02,-149.8"/>
<text text-anchor="middle" x="138" y="-127.6" font-family="Times,serif" font-size="14.00">OpenviduWebComponentModule</text>
</g>
<!-- OpenviduWebComponentComponent&#45;&gt;OpenviduWebComponentModule -->
<g id="edge1" class="edge">
<title>OpenviduWebComponentComponent&#45;&gt;OpenviduWebComponentModule</title>
<path fill="none" stroke="black" d="M138,-84.91C138,-84.91 138,-103.79 138,-103.79"/>
<polygon fill="black" stroke="black" points="134.5,-103.79 138,-113.79 141.5,-103.79 134.5,-103.79"/>
</g>
</g>
</svg>
