<svg xmlns="http://www.w3.org/2000/svg" width="401.931" height="401.931"><path d="M395.928 187.794l-272.1-135.687c-5.358-2.669-11.866-.494-14.538 4.864L51.24 173.379a10.84 10.84 0 004.864 14.538l81.242 40.511-7.208 14.455c-2.671 5.358-.494 11.866 4.864 14.538l2.561 1.278-13.998 24.929H41.027C33.351 268.782 17.867 258.626 0 258.626v92.338c17.454 0 32.642-9.688 40.49-23.978h95.766a21.678 21.678 0 0018.903-11.063l21.255-37.85 3.695 1.842c5.357 2.671 11.867.493 14.539-4.863l7.208-14.455 60.7 30.271a10.834 10.834 0 0010.911-.723l16.753-11.332 29.912 14.916a10.82 10.82 0 008.276.578 10.832 10.832 0 006.262-5.441l30.624-61.413 31.757-20.903a10.839 10.839 0 00-1.123-18.756z"/></svg>